<?xml version="1.0" standalone="no"?>
<!DOCTYPE svg PUBLIC "-//W3C//DTD SVG 1.1//EN" "http://www.w3.org/Graphics/SVG/1.1/DTD/svg11.dtd" >
<svg xmlns="http://www.w3.org/2000/svg" xmlns:xlink="http://www.w3.org/1999/xlink" version="1.1">
<metadata>
Created by FontForge 20170910 at Sun Aug 12 11:18:31 2012
 By Jimmy Wärting
Copyright (C) 2011-2012 Severin Meyer
</metadata>
<defs>
<font id="Xolonium-Bold" horiz-adv-x="740" >
  <font-face 
    font-family="Xolonium"
    font-weight="700"
    font-stretch="normal"
    units-per-em="1000"
    panose-1="2 0 8 3 0 0 0 0 0 0"
    ascent="800"
    descent="-200"
    x-height="480"
    cap-height="660"
    bbox="-465 -225 1670 890"
    underline-thickness="70"
    underline-position="-285"
    unicode-range="U+0020-FB04"
  />
<missing-glyph 
d="M100 0v660h540v-660h-540zM220 70h300v520h-300v-520z" />
    <glyph glyph-name=".notdef" 
d="M100 0v660h540v-660h-540zM220 70h300v520h-300v-520z" />
    <glyph glyph-name=".null" horiz-adv-x="0" 
 />
    <glyph glyph-name="nonmarkingreturn" horiz-adv-x="333" 
 />
    <glyph glyph-name="space" unicode=" " horiz-adv-x="400" 
 />
    <glyph glyph-name="exclam" unicode="!" horiz-adv-x="320" 
d="M75 0v140h170v-140h-170zM75 220v440h170v-440h-170z" />
    <glyph glyph-name="quotedbl" unicode="&#x22;" horiz-adv-x="550" 
d="M335 410v250h140v-250h-140zM75 410v250h140v-250h-140z" />
    <glyph glyph-name="numbersign" unicode="#" horiz-adv-x="930" 
d="M300 660h150l-50 -150h250l50 150h150l-50 -150h70v-105h-105l-50 -150h115v-105h-150l-50 -150h-150l50 150h-250l-50 -150h-150l50 150h-70v105h105l50 150h-115v105h150zM365 405l-50 -150h250l50 150h-250z" />
    <glyph glyph-name="dollar" unicode="$" horiz-adv-x="950" 
d="M70 0v105h335v200h-95h-40.5t-38 1.5t-37.5 3.5t-33 6.5t-31 11.5t-24 17t-20 23.5t-11.5 31.5t-4.5 40v85q0 22 4.5 40t11.5 31.5t20 23.5t24 17t31 11.5t33 6.5t37.5 3.5t38 1.5h40.5h95v85h140v-85h285v-105h-285v-140h95h40.5t38 -1.5t37.5 -3.5t33 -6.5t31 -11.5
t24 -17t20 -23.5t11.5 -31.5t4.5 -40v-145q0 -22 -4.5 -40t-11.5 -31.5t-20 -23.5t-24 -17t-31 -11.5t-33 -6.5t-37.5 -3.5t-38 -1.5h-40.5h-95v-85h-140v85h-335zM240 450q0 -16 10 -24.5t20 -9.5t30 -1h105v140h-105q-20 0 -30 -1t-20 -9.5t-10 -24.5v-70zM545 105h105
q20 0 30 1t20 9.5t10 24.5v130q0 16 -10 24.5t-20 9.5t-30 1h-105v-200z" />
    <glyph glyph-name="percent" unicode="%" horiz-adv-x="1230" 
d="M730 90v160q0 26 10 44t22.5 27t37.5 13.5t41.5 5t48.5 0.5h120q32 0 48.5 -0.5t41.5 -5t37.5 -13.5t22.5 -27t10 -44v-160q0 -26 -10 -44t-22.5 -27t-37.5 -13.5t-41.5 -5t-48.5 -0.5h-120q-32 0 -48.5 0.5t-41.5 5t-37.5 13.5t-22.5 27t-10 44zM860 95q0 -17 10 -21
t30 -4h100q13 0 20 1t13.5 6.5t6.5 17.5v150q0 17 -10 21t-30 4h-100q-13 0 -20 -1t-13.5 -6.5t-6.5 -17.5v-150zM60 410v160q0 26 10 44t22.5 27t37.5 13.5t41.5 5t48.5 0.5h120q32 0 48.5 -0.5t41.5 -5t37.5 -13.5t22.5 -27t10 -44v-160q0 -26 -10 -44t-22.5 -27
t-37.5 -13.5t-41.5 -5t-48.5 -0.5h-120q-32 0 -48.5 0.5t-41.5 5t-37.5 13.5t-22.5 27t-10 44zM190 415q0 -17 10 -21t30 -4h100q13 0 20 1t13.5 6.5t6.5 17.5v150q0 17 -10 21t-30 4h-100q-13 0 -20 -1t-13.5 -6.5t-6.5 -17.5v-150zM380 0l330 660h140l-330 -660h-140z" />
    <glyph glyph-name="ampersand" unicode="&#x26;" horiz-adv-x="930" 
d="M320 515q0 -15 20 -35l350 -350v170h170v-165q0 -22 -4.5 -40t-11.5 -31.5t-20 -23.5t-24 -17t-31 -11.5t-33 -6.5t-37.5 -3.5t-38 -1.5h-40.5h-310h-40.5t-38 1.5t-37.5 3.5t-33 6.5t-31 11.5t-24 17t-20 23.5t-11.5 31.5t-4.5 40v155q0 61 46 90.5t104 29.5
q-45 45 -57.5 64t-12.5 51q0 22 4.5 40t11.5 31.5t20 23.5t24 17t31 11.5t33 6.5t37.5 3.5t38 1.5h40.5h120h40.5t38 -1.5t37.5 -3.5t33 -6.5t31 -11.5t24 -17t20 -23.5t11.5 -31.5t4.5 -40v-40h-170v30q0 16 -10 24.5t-20 9.5t-30 1h-140q-20 0 -30 -1t-20 -9.5t-10 -24.5z
M240 145q0 -16 10 -24.5t20 -9.5t30 -1h220l-195 195h-25q-20 0 -30 -1t-20 -9.5t-10 -24.5v-125z" />
    <glyph glyph-name="quotesingle" unicode="'" horiz-adv-x="290" 
d="M75 410v250h140v-250h-140z" />
    <glyph glyph-name="parenleft" unicode="(" horiz-adv-x="420" 
d="M75 220q0 119 42 234t118 206h125q-67 -90 -103.5 -204.5t-36.5 -235.5t36.5 -238.5t103.5 -206.5h-125q-75 90 -117.5 207.5t-42.5 237.5z" />
    <glyph glyph-name="parenright" unicode=")" horiz-adv-x="420" 
d="M60 -225q67 89 103.5 206.5t36.5 238.5t-36.5 235.5t-103.5 204.5h125q76 -91 118 -206t42 -234q0 -120 -42.5 -237.5t-117.5 -207.5h-125z" />
    <glyph glyph-name="asterisk" unicode="*" horiz-adv-x="654" 
d="M60 439l40 123l162 -53v151h130v-151l163 53l39 -123l-161 -53l88 -122l-105 -76l-89 121l-88 -121l-105 76l88 122z" />
    <glyph glyph-name="plus" unicode="+" horiz-adv-x="720" 
d="M60 180v120h215v180h170v-180h215v-120h-215v-180h-170v180h-215z" />
    <glyph glyph-name="comma" unicode="," horiz-adv-x="350" 
d="M45 -150l60 270h170l-120 -270h-110z" />
    <glyph glyph-name="hyphen" unicode="-" horiz-adv-x="540" 
d="M60 180v120h420v-120h-420z" />
    <glyph glyph-name="period" unicode="." horiz-adv-x="320" 
d="M75 0v140h170v-140h-170z" />
    <glyph glyph-name="slash" unicode="/" horiz-adv-x="650" 
d="M60 -100l380 760h150l-380 -760h-150z" />
    <glyph glyph-name="zero" unicode="0" horiz-adv-x="910" 
d="M60 135v390q0 22 4.5 40t11.5 31.5t20 23.5t24 17t31 11.5t33 6.5t37.5 3.5t38 1.5h40.5h310h40.5t38 -1.5t37.5 -3.5t33 -6.5t31 -11.5t24 -17t20 -23.5t11.5 -31.5t4.5 -40v-390q0 -22 -4.5 -40t-11.5 -31.5t-20 -23.5t-24 -17t-31 -11.5t-33 -6.5t-37.5 -3.5t-38 -1.5
h-40.5h-310h-40.5t-38 1.5t-37.5 3.5t-33 6.5t-31 11.5t-24 17t-20 23.5t-11.5 31.5t-4.5 40zM230 145q0 -16 10 -24.5t20 -9.5t30 -1h330q20 0 30 1t20 9.5t10 24.5v370q0 16 -10 24.5t-20 9.5t-30 1h-330q-20 0 -30 -1t-20 -9.5t-10 -24.5v-370z" />
    <glyph glyph-name="one" unicode="1" horiz-adv-x="910" 
d="M670 660v-660h-170v550h-220v110h390z" />
    <glyph glyph-name="two" unicode="2" horiz-adv-x="910" 
d="M60 0v280q0 22 4.5 40t11.5 31.5t20 23.5t24 17t31 11.5t33 6.5t37.5 3.5t38 1.5h40.5h320q20 0 30 1t20 9.5t10 24.5v65q0 16 -10 24.5t-20 9.5t-30 1h-510v110h500h40.5t38 -1.5t37.5 -3.5t33 -6.5t31 -11.5t24 -17t20 -23.5t11.5 -31.5t4.5 -40v-85q0 -22 -4.5 -40
t-11.5 -31.5t-20 -23.5t-24 -17t-31 -11.5t-33 -6.5t-37.5 -3.5t-38 -1.5h-40.5h-320q-20 0 -30 -1t-20 -9.5t-10 -24.5v-160h620v-110h-790z" />
    <glyph glyph-name="three" unicode="3" horiz-adv-x="910" 
d="M90 0v110h530q20 0 30 1t20 9.5t10 24.5v125q0 16 -10 24.5t-20 9.5t-30 1h-440v110h440q20 0 30 1t20 9.5t10 24.5v65q0 16 -10 24.5t-20 9.5t-30 1h-530v110h520h40.5t38 -1.5t37.5 -3.5t33 -6.5t31 -11.5t24 -17t20 -23.5t11.5 -31.5t4.5 -40v-60q0 -42 -23 -66.5
t-57 -33.5q34 -9 57 -33.5t23 -66.5v-130q0 -22 -4.5 -40t-11.5 -31.5t-20 -23.5t-24 -17t-31 -11.5t-33 -6.5t-37.5 -3.5t-38 -1.5h-40.5h-520z" />
    <glyph glyph-name="four" unicode="4" horiz-adv-x="910" 
d="M60 130v110l540 420h250v-660h-170v130h-620zM284 240h396v308z" />
    <glyph glyph-name="five" unicode="5" horiz-adv-x="910" 
d="M60 0v110h560q20 0 30 1t20 9.5t10 24.5v125q0 16 -10 24.5t-20 9.5t-30 1h-560v355h740v-110h-570v-135h380h40.5t38 -1.5t37.5 -3.5t33 -6.5t31 -11.5t24 -17t20 -23.5t11.5 -31.5t4.5 -40v-145q0 -22 -4.5 -40t-11.5 -31.5t-20 -23.5t-24 -17t-31 -11.5t-33 -6.5
t-37.5 -3.5t-38 -1.5h-40.5h-550z" />
    <glyph glyph-name="six" unicode="6" horiz-adv-x="910" 
d="M60 135v345q0 29 6 53.5t14.5 42t26 31t32 22.5t41 15t44 9t50.5 5t51 2h55h420v-110h-430q-23 0 -35 -0.5t-31.5 -2.5t-30 -7t-22 -13.5t-16.5 -23t-5 -33.5v-55h380h40.5t38 -1.5t37.5 -3.5t33 -6.5t31 -11.5t24 -17t20 -23.5t11.5 -31.5t4.5 -40v-145q0 -22 -4.5 -40
t-11.5 -31.5t-20 -23.5t-24 -17t-31 -11.5t-33 -6.5t-37.5 -3.5t-38 -1.5h-40.5h-310h-40.5t-38 1.5t-37.5 3.5t-33 6.5t-31 11.5t-24 17t-20 23.5t-11.5 31.5t-4.5 40zM230 145q0 -16 10 -24.5t20 -9.5t30 -1h330q20 0 30 1t20 9.5t10 24.5v125q0 16 -10 24.5t-20 9.5
t-30 1h-330q-20 0 -30 -1t-20 -9.5t-10 -24.5v-125z" />
    <glyph glyph-name="seven" unicode="7" horiz-adv-x="910" 
d="M60 550v110h790v-110l-420 -550h-200l420 550h-590z" />
    <glyph glyph-name="eight" unicode="8" horiz-adv-x="910" 
d="M60 135v130q0 42 23 66.5t57 33.5q-34 9 -57 33.5t-23 66.5v60q0 22 4.5 40t11.5 31.5t20 23.5t24 17t31 11.5t33 6.5t37.5 3.5t38 1.5h40.5h310h40.5t38 -1.5t37.5 -3.5t33 -6.5t31 -11.5t24 -17t20 -23.5t11.5 -31.5t4.5 -40v-60q0 -42 -23 -66.5t-57 -33.5
q34 -9 57 -33.5t23 -66.5v-130q0 -22 -4.5 -40t-11.5 -31.5t-20 -23.5t-24 -17t-31 -11.5t-33 -6.5t-37.5 -3.5t-38 -1.5h-40.5h-310h-40.5t-38 1.5t-37.5 3.5t-33 6.5t-31 11.5t-24 17t-20 23.5t-11.5 31.5t-4.5 40zM230 145q0 -16 10 -24.5t20 -9.5t30 -1h330q20 0 30 1
t20 9.5t10 24.5v125q0 16 -10 24.5t-20 9.5t-30 1h-330q-20 0 -30 -1t-20 -9.5t-10 -24.5v-125zM230 450q0 -16 10 -24.5t20 -9.5t30 -1h330q20 0 30 1t20 9.5t10 24.5v65q0 16 -10 24.5t-20 9.5t-30 1h-330q-20 0 -30 -1t-20 -9.5t-10 -24.5v-65z" />
    <glyph glyph-name="nine" unicode="9" horiz-adv-x="910" 
d="M60 440v85q0 22 4.5 40t11.5 31.5t20 23.5t24 17t31 11.5t33 6.5t37.5 3.5t38 1.5h40.5h310h40.5t38 -1.5t37.5 -3.5t33 -6.5t31 -11.5t24 -17t20 -23.5t11.5 -31.5t4.5 -40v-345q0 -38 -10.5 -67t-24.5 -47.5t-41.5 -31.5t-49 -19.5t-62 -10t-63.5 -4t-69 -0.5h-430v110
h440q23 0 35 0.5t31.5 2.5t30 7t22 13.5t16.5 23t5 33.5v115h-380h-40.5t-38 1.5t-37.5 3.5t-33 6.5t-31 11.5t-24 17t-20 23.5t-11.5 31.5t-4.5 40zM230 450q0 -16 10 -24.5t20 -9.5t30 -1h330q20 0 30 1t20 9.5t10 24.5v65q0 16 -10 24.5t-20 9.5t-30 1h-330q-20 0 -30 -1
t-20 -9.5t-10 -24.5v-65z" />
    <glyph glyph-name="colon" unicode=":" horiz-adv-x="320" 
d="M75 340v140h170v-140h-170zM75 0v140h170v-140h-170z" />
    <glyph glyph-name="semicolon" unicode=";" horiz-adv-x="350" 
d="M45 -150l60 270h170l-120 -270h-110zM105 340v140h170v-140h-170z" />
    <glyph glyph-name="less" unicode="&#x3c;" horiz-adv-x="750" 
d="M60 190v100l630 210v-120l-420 -140l420 -140v-120z" />
    <glyph glyph-name="equal" unicode="=" horiz-adv-x="720" 
d="M60 60v120h600v-120h-600zM60 300v120h600v-120h-600z" />
    <glyph glyph-name="greater" unicode="&#x3e;" horiz-adv-x="750" 
d="M60 -20v120l420 140l-420 140v120l630 -210v-100z" />
    <glyph glyph-name="question" unicode="?" horiz-adv-x="910" 
d="M75 550v110h520h40.5t38 -1.5t37.5 -3.5t33 -6.5t31 -11.5t24 -17t20 -23.5t11.5 -31.5t4.5 -40v-85q0 -22 -4.5 -40t-11.5 -31.5t-20 -23.5t-24 -17t-31 -11.5t-33 -6.5t-37.5 -3.5t-38 -1.5h-40.5h-80q-20 0 -30 -1t-20 -9.5t-10 -24.5v-50h-170v60q0 22 4.5 40
t11.5 31.5t20 23.5t24 17t31 11.5t33 6.5t37.5 3.5t38 1.5h40.5h80q20 0 30 1t20 9.5t10 24.5v65q0 16 -10 24.5t-20 9.5t-30 1h-530zM285 0v140h170v-140h-170z" />
    <glyph glyph-name="at" unicode="@" horiz-adv-x="1290" 
d="M75 -50v580q0 28 7 48.5t23.5 32.5t31 19.5t43 10.5t45.5 3.5t50 0.5h740q33 0 50 -0.5t45.5 -3.5t43 -10.5t31 -19.5t23.5 -32.5t7 -48.5v-530h-680q-33 0 -50 0.5t-45.5 3.5t-43 10.5t-31 19.5t-23.5 32.5t-7 48.5v250q0 28 7 48.5t23.5 32.5t31 19.5t43 10.5t45.5 3.5
t50 0.5h420v-385h130v425q0 16 -6 27t-14 16.5t-24 8t-26 3t-30 0.5h-680q-20 0 -30 -0.5t-26 -3t-24 -8t-14 -16.5t-6 -27v-560q0 -16 6 -27t14 -16.5t24 -8t26 -3t30 -0.5h870v-70h-900q-33 0 -50 0.5t-45.5 3.5t-43 10.5t-31 19.5t-23.5 32.5t-7 48.5zM495 125
q0 -14 8.5 -21t16.5 -8t25 -1h250v290h-250q-17 0 -25 -1t-16.5 -8t-8.5 -21v-230z" />
    <glyph glyph-name="A" unicode="A" horiz-adv-x="930" 
d="M20 0l330 660h230l330 -660h-180l-95 190h-340l-95 -190h-180zM350 300h230l-115 230z" />
    <glyph glyph-name="B" unicode="B" horiz-adv-x="930" 
d="M70 0v660h540h40.5t38 -1.5t37.5 -3.5t33 -6.5t31 -11.5t24 -17t20 -23.5t11.5 -31.5t4.5 -40v-60q0 -42 -23 -66.5t-57 -33.5q39 -10 64.5 -31.5t25.5 -68.5v-130q0 -22 -4.5 -40t-11.5 -31.5t-20 -23.5t-24 -17t-31 -11.5t-33 -6.5t-37.5 -3.5t-38 -1.5h-40.5h-550z
M240 110h390q20 0 30 1t20 9.5t10 24.5v125q0 16 -10 24.5t-20 9.5t-30 1h-390v-195zM240 415h380q20 0 30 1t20 9.5t10 24.5v65q0 16 -10 24.5t-20 9.5t-30 1h-380v-135z" />
    <glyph glyph-name="C" unicode="C" horiz-adv-x="880" 
d="M70 135v390q0 22 4.5 40t11.5 31.5t20 23.5t24 17t31 11.5t33 6.5t37.5 3.5t38 1.5h40.5h500v-110h-510q-20 0 -30 -1t-20 -9.5t-10 -24.5v-370q0 -16 10 -24.5t20 -9.5t30 -1h510v-110h-500h-40.5t-38 1.5t-37.5 3.5t-33 6.5t-31 11.5t-24 17t-20 23.5t-11.5 31.5
t-4.5 40z" />
    <glyph glyph-name="D" unicode="D" horiz-adv-x="930" 
d="M70 0v660h430q71 0 133 -16.5t114 -51t82.5 -95.5t30.5 -142v-45q0 -81 -30.5 -143t-82.5 -97t-114.5 -52.5t-132.5 -17.5h-430zM240 110h210q240 0 240 200v45q0 200 -240 200h-210v-445z" />
    <glyph glyph-name="E" unicode="E" horiz-adv-x="880" 
d="M70 0v660h740v-110h-570v-135h520v-110h-520v-195h570v-110h-740z" />
    <glyph glyph-name="F" unicode="F" horiz-adv-x="860" 
d="M70 0v660h740v-110h-570v-135h510v-110h-510v-305h-170z" />
    <glyph glyph-name="G" unicode="G" horiz-adv-x="930" 
d="M70 135v390q0 22 4.5 40t11.5 31.5t20 23.5t24 17t31 11.5t33 6.5t37.5 3.5t38 1.5h40.5h500v-110h-510q-20 0 -30 -1t-20 -9.5t-10 -24.5v-370q0 -16 10 -24.5t20 -9.5t30 -1h330q20 0 30 1t20 9.5t10 24.5v160h-150v110h320v-280q0 -22 -4.5 -40t-11.5 -31.5t-20 -23.5
t-24 -17t-31 -11.5t-33 -6.5t-37.5 -3.5t-38 -1.5h-40.5h-310h-40.5t-38 1.5t-37.5 3.5t-33 6.5t-31 11.5t-24 17t-20 23.5t-11.5 31.5t-4.5 40z" />
    <glyph glyph-name="H" unicode="H" horiz-adv-x="930" 
d="M70 0v660h170v-245h450v245h170v-660h-170v305h-450v-305h-170z" />
    <glyph glyph-name="I" unicode="I" horiz-adv-x="310" 
d="M70 0v660h170v-660h-170z" />
    <glyph glyph-name="J" unicode="J" horiz-adv-x="930" 
d="M70 135v120h170v-110q0 -16 10 -24.5t20 -9.5t30 -1h330q20 0 30 1t20 9.5t10 24.5v515h170v-525q0 -22 -4.5 -40t-11.5 -31.5t-20 -23.5t-24 -17t-31 -11.5t-33 -6.5t-37.5 -3.5t-38 -1.5h-40.5h-310h-40.5t-38 1.5t-37.5 3.5t-33 6.5t-31 11.5t-24 17t-20 23.5
t-11.5 31.5t-4.5 40z" />
    <glyph glyph-name="K" unicode="K" horiz-adv-x="860" 
d="M70 0v660h170v-350l350 350h210l-310 -310l350 -350h-210l-245 245l-145 -145v-100h-170z" />
    <glyph glyph-name="L" unicode="L" horiz-adv-x="840" 
d="M70 0v660h170v-550h570v-110h-740z" />
    <glyph glyph-name="M" unicode="M" horiz-adv-x="1090" 
d="M70 0v660h225l250 -500l250 500h225v-660h-170v450l-225 -450h-160l-225 450v-450h-170z" />
    <glyph glyph-name="N" unicode="N" horiz-adv-x="930" 
d="M70 0v660h190l430 -470v470h170v-660h-190l-430 470v-470h-170z" />
    <glyph glyph-name="O" unicode="O" horiz-adv-x="930" 
d="M70 135v390q0 22 4.5 40t11.5 31.5t20 23.5t24 17t31 11.5t33 6.5t37.5 3.5t38 1.5h40.5h310h40.5t38 -1.5t37.5 -3.5t33 -6.5t31 -11.5t24 -17t20 -23.5t11.5 -31.5t4.5 -40v-390q0 -22 -4.5 -40t-11.5 -31.5t-20 -23.5t-24 -17t-31 -11.5t-33 -6.5t-37.5 -3.5t-38 -1.5
h-40.5h-310h-40.5t-38 1.5t-37.5 3.5t-33 6.5t-31 11.5t-24 17t-20 23.5t-11.5 31.5t-4.5 40zM240 145q0 -16 10 -24.5t20 -9.5t30 -1h330q20 0 30 1t20 9.5t10 24.5v370q0 16 -10 24.5t-20 9.5t-30 1h-330q-20 0 -30 -1t-20 -9.5t-10 -24.5v-370z" />
    <glyph glyph-name="P" unicode="P" horiz-adv-x="930" 
d="M70 0v660h550h40.5t38 -1.5t37.5 -3.5t33 -6.5t31 -11.5t24 -17t20 -23.5t11.5 -31.5t4.5 -40v-140q0 -22 -4.5 -40t-11.5 -31.5t-20 -23.5t-24 -17t-31 -11.5t-33 -6.5t-37.5 -3.5t-38 -1.5h-40.5h-380v-250h-170zM240 360h390q20 0 30 1t20 9.5t10 24.5v120
q0 16 -10 24.5t-20 9.5t-30 1h-390v-190z" />
    <glyph glyph-name="Q" unicode="Q" horiz-adv-x="930" 
d="M70 135v390q0 22 4.5 40t11.5 31.5t20 23.5t24 17t31 11.5t33 6.5t37.5 3.5t38 1.5h40.5h310h40.5t38 -1.5t37.5 -3.5t33 -6.5t31 -11.5t24 -17t20 -23.5t11.5 -31.5t4.5 -40v-390q0 -22 -4.5 -40t-11.5 -31.5t-20 -23.5t-24 -17t-31 -11.5t-33 -6.5t-37.5 -3.5t-38 -1.5
h-40.5l150 -150h-200l-150 150h-110h-40.5t-38 1.5t-37.5 3.5t-33 6.5t-31 11.5t-24 17t-20 23.5t-11.5 31.5t-4.5 40zM240 145q0 -16 10 -24.5t20 -9.5t30 -1h330q20 0 30 1t20 9.5t10 24.5v370q0 16 -10 24.5t-20 9.5t-30 1h-330q-20 0 -30 -1t-20 -9.5t-10 -24.5v-370z
" />
    <glyph glyph-name="R" unicode="R" horiz-adv-x="930" 
d="M900 0h-210l-270 270h-180v-270h-170v660h550h40.5t38 -1.5t37.5 -3.5t33 -6.5t31 -11.5t24 -17t20 -23.5t11.5 -31.5t4.5 -40v-120q0 -28 -7.5 -50t-18 -36t-31 -24t-36 -14.5t-44.5 -7t-45 -3t-48 -0.5zM240 380h390q20 0 30 1t20 9.5t10 24.5v100q0 16 -10 24.5
t-20 9.5t-30 1h-390v-170z" />
    <glyph glyph-name="S" unicode="S" horiz-adv-x="930" 
d="M70 0v110h560q20 0 30 1t20 9.5t10 24.5v125q0 16 -10 24.5t-20 9.5t-30 1h-320h-40.5t-38 1.5t-37.5 3.5t-33 6.5t-31 11.5t-24 17t-20 23.5t-11.5 31.5t-4.5 40v85q0 22 4.5 40t11.5 31.5t20 23.5t24 17t31 11.5t33 6.5t37.5 3.5t38 1.5h40.5h500v-110h-510
q-20 0 -30 -1t-20 -9.5t-10 -24.5v-65q0 -16 10 -24.5t20 -9.5t30 -1h320h40.5t38 -1.5t37.5 -3.5t33 -6.5t31 -11.5t24 -17t20 -23.5t11.5 -31.5t4.5 -40v-145q0 -22 -4.5 -40t-11.5 -31.5t-20 -23.5t-24 -17t-31 -11.5t-33 -6.5t-37.5 -3.5t-38 -1.5h-40.5h-550z" />
    <glyph glyph-name="T" unicode="T" horiz-adv-x="910" 
d="M30 550v110h850v-110h-340v-550h-170v550h-340z" />
    <glyph glyph-name="U" unicode="U" horiz-adv-x="930" 
d="M70 135v525h170v-515q0 -16 10 -24.5t20 -9.5t30 -1h330q20 0 30 1t20 9.5t10 24.5v515h170v-525q0 -22 -4.5 -40t-11.5 -31.5t-20 -23.5t-24 -17t-31 -11.5t-33 -6.5t-37.5 -3.5t-38 -1.5h-40.5h-310h-40.5t-38 1.5t-37.5 3.5t-33 6.5t-31 11.5t-24 17t-20 23.5
t-11.5 31.5t-4.5 40z" />
    <glyph glyph-name="V" unicode="V" horiz-adv-x="930" 
d="M20 660h180l265 -530l265 530h180l-330 -660h-230z" />
    <glyph glyph-name="W" unicode="W" horiz-adv-x="1260" 
d="M20 660h175l165 -495l155 465h230l155 -465l165 495h175l-220 -660h-220l-170 510l-170 -510h-220z" />
    <glyph glyph-name="X" unicode="X" horiz-adv-x="910" 
d="M20 0l330 330l-330 330h210l225 -225l225 225h210l-330 -330l330 -330h-210l-225 225l-225 -225h-210z" />
    <glyph glyph-name="Y" unicode="Y" horiz-adv-x="910" 
d="M20 660h210l225 -225l225 225h210l-350 -350v-310h-170v310z" />
    <glyph glyph-name="Z" unicode="Z" horiz-adv-x="880" 
d="M50 0v110l525 440h-505v110h740v-110l-525 -440h545v-110h-780z" />
    <glyph glyph-name="bracketleft" unicode="[" horiz-adv-x="475" 
d="M75 -225v885h340v-95h-200v-695h200v-95h-340z" />
    <glyph glyph-name="backslash" unicode="\" horiz-adv-x="650" 
d="M60 660h150l380 -760h-150z" />
    <glyph glyph-name="bracketright" unicode="]" horiz-adv-x="475" 
d="M60 -130h200v695h-200v95h340v-885h-340v95z" />
    <glyph glyph-name="asciicircum" unicode="^" horiz-adv-x="620" 
d="M60 300l180 360h140l180 -360h-140l-110 220l-110 -220h-140z" />
    <glyph glyph-name="underscore" unicode="_" horiz-adv-x="680" 
d="M20 -130h640v-95h-640v95z" />
    <glyph glyph-name="grave" unicode="`" horiz-adv-x="500" 
d="M80 710h170l100 -160h-110z" />
    <glyph glyph-name="a" unicode="a" 
d="M60 115v70q0 28 7 48.5t23.5 32.5t31 19.5t43 10.5t45.5 3.5t50 0.5h260v55q0 14 -8.5 21t-16.5 8t-25 1h-370v95h380q33 0 50 -0.5t45.5 -3.5t43 -10.5t31 -19.5t23.5 -32.5t7 -48.5v-365h-420q-33 0 -50 0.5t-45.5 3.5t-43 10.5t-31 19.5t-23.5 32.5t-7 48.5zM220 125
q0 -14 8.5 -21t16.5 -8t25 -1h250v110h-250q-17 0 -25 -1t-16.5 -8t-8.5 -21v-50z" />
    <glyph glyph-name="b" unicode="b" 
d="M60 0v660h160v-180h260q33 0 50 -0.5t45.5 -3.5t43 -10.5t31 -19.5t23.5 -32.5t7 -48.5v-250q0 -28 -7 -48.5t-23.5 -32.5t-31 -19.5t-43 -10.5t-45.5 -3.5t-50 -0.5h-420zM220 95h250q17 0 25 1t16.5 8t8.5 21v230q0 14 -8.5 21t-16.5 8t-25 1h-250v-290z" />
    <glyph glyph-name="c" unicode="c" horiz-adv-x="700" 
d="M60 115v250q0 28 7 48.5t23.5 32.5t31 19.5t43 10.5t45.5 3.5t50 0.5h380v-95h-370q-17 0 -25 -1t-16.5 -8t-8.5 -21v-230q0 -14 8.5 -21t16.5 -8t25 -1h370v-95h-380q-33 0 -50 0.5t-45.5 3.5t-43 10.5t-31 19.5t-23.5 32.5t-7 48.5z" />
    <glyph glyph-name="d" unicode="d" 
d="M60 115v250q0 28 7 48.5t23.5 32.5t31 19.5t43 10.5t45.5 3.5t50 0.5h260v180h160v-660h-420q-33 0 -50 0.5t-45.5 3.5t-43 10.5t-31 19.5t-23.5 32.5t-7 48.5zM220 125q0 -14 8.5 -21t16.5 -8t25 -1h250v290h-250q-17 0 -25 -1t-16.5 -8t-8.5 -21v-230z" />
    <glyph glyph-name="e" unicode="e" 
d="M60 115v250q0 28 7 48.5t23.5 32.5t31 19.5t43 10.5t45.5 3.5t50 0.5h220q33 0 50 -0.5t45.5 -3.5t43 -10.5t31 -19.5t23.5 -32.5t7 -48.5v-160h-460v-80q0 -14 8.5 -21t16.5 -8t25 -1h390v-95h-400q-33 0 -50 0.5t-45.5 3.5t-43 10.5t-31 19.5t-23.5 32.5t-7 48.5z
M220 300h300v55q0 14 -8.5 21t-16.5 8t-25 1h-200q-17 0 -25 -1t-16.5 -8t-8.5 -21v-55z" />
    <glyph glyph-name="f" unicode="f" horiz-adv-x="480" 
d="M60 0v545q0 28 7 48.5t23.5 32.5t31 19.5t43 10.5t45.5 3.5t50 0.5h160v-95h-150q-17 0 -25 -1t-16.5 -8t-8.5 -21v-55h200v-95h-200v-385h-160z" />
    <glyph glyph-name="g" unicode="g" 
d="M60 115v250q0 28 7 48.5t23.5 32.5t31 19.5t43 10.5t45.5 3.5t50 0.5h420v-605q0 -24 -7 -42t-23.5 -28.5t-31 -17t-43 -9t-45.5 -3t-50 -0.5h-400v95h390q17 0 25 1t16.5 6.5t8.5 17.5v105h-260q-33 0 -50 0.5t-45.5 3.5t-43 10.5t-31 19.5t-23.5 32.5t-7 48.5zM220 125
q0 -14 8.5 -21t16.5 -8t25 -1h250v290h-250q-17 0 -25 -1t-16.5 -8t-8.5 -21v-230z" />
    <glyph glyph-name="h" unicode="h" 
d="M60 0v660h160v-180h260q33 0 50 -0.5t45.5 -3.5t43 -10.5t31 -19.5t23.5 -32.5t7 -48.5v-365h-160v355q0 14 -8.5 21t-16.5 8t-25 1h-250v-385h-160z" />
    <glyph glyph-name="i" unicode="i" horiz-adv-x="280" 
d="M60 0v480h160v-480h-160zM60 565v95h160v-95h-160z" />
    <glyph glyph-name="j" unicode="j" horiz-adv-x="280" 
d="M-50 -130q110 18 110 130v480h160v-480q0 -42 -10.5 -76.5t-26.5 -57t-41.5 -39.5t-47 -26t-52 -15t-49 -8t-43.5 -3v95zM60 565v95h160v-95h-160z" />
    <glyph glyph-name="k" unicode="k" horiz-adv-x="670" 
d="M60 0v660h160v-400l220 220h190l-230 -230l250 -250h-190l-155 155l-85 -85v-70h-160z" />
    <glyph glyph-name="l" unicode="l" horiz-adv-x="280" 
d="M60 0v660h160v-660h-160z" />
    <glyph glyph-name="m" unicode="m" horiz-adv-x="960" 
d="M60 0v480h640q33 0 50 -0.5t45.5 -3.5t43 -10.5t31 -19.5t23.5 -32.5t7 -48.5v-365h-160v355q0 14 -8.5 21t-16.5 8t-25 1h-130v-385h-160v355q0 14 -8.5 21t-16.5 8t-25 1h-130v-385h-160z" />
    <glyph glyph-name="n" unicode="n" 
d="M60 0v480h420q33 0 50 -0.5t45.5 -3.5t43 -10.5t31 -19.5t23.5 -32.5t7 -48.5v-365h-160v355q0 14 -8.5 21t-16.5 8t-25 1h-250v-385h-160z" />
    <glyph glyph-name="o" unicode="o" 
d="M60 115v250q0 28 7 48.5t23.5 32.5t31 19.5t43 10.5t45.5 3.5t50 0.5h220q33 0 50 -0.5t45.5 -3.5t43 -10.5t31 -19.5t23.5 -32.5t7 -48.5v-250q0 -28 -7 -48.5t-23.5 -32.5t-31 -19.5t-43 -10.5t-45.5 -3.5t-50 -0.5h-220q-33 0 -50 0.5t-45.5 3.5t-43 10.5t-31 19.5
t-23.5 32.5t-7 48.5zM220 125q0 -14 8.5 -21t16.5 -8t25 -1h200q17 0 25 1t16.5 8t8.5 21v230q0 14 -8.5 21t-16.5 8t-25 1h-200q-17 0 -25 -1t-16.5 -8t-8.5 -21v-230z" />
    <glyph glyph-name="p" unicode="p" 
d="M60 -225v705h420q33 0 50 -0.5t45.5 -3.5t43 -10.5t31 -19.5t23.5 -32.5t7 -48.5v-250q0 -28 -7 -48.5t-23.5 -32.5t-31 -19.5t-43 -10.5t-45.5 -3.5t-50 -0.5h-260v-225h-160zM220 95h250q17 0 25 1t16.5 8t8.5 21v230q0 14 -8.5 21t-16.5 8t-25 1h-250v-290z" />
    <glyph glyph-name="q" unicode="q" 
d="M60 115v250q0 28 7 48.5t23.5 32.5t31 19.5t43 10.5t45.5 3.5t50 0.5h420v-705h-160v225h-260q-33 0 -50 0.5t-45.5 3.5t-43 10.5t-31 19.5t-23.5 32.5t-7 48.5zM220 125q0 -14 8.5 -21t16.5 -8t25 -1h250v290h-250q-17 0 -25 -1t-16.5 -8t-8.5 -21v-230z" />
    <glyph glyph-name="r" unicode="r" horiz-adv-x="480" 
d="M60 0v365q0 28 7 48.5t23.5 32.5t31 19.5t43 10.5t45.5 3.5t50 0.5h160v-95h-150q-17 0 -25 -1t-16.5 -8t-8.5 -21v-355h-160z" />
    <glyph glyph-name="s" unicode="s" 
d="M60 0v95h410q17 0 25 1t16.5 8t8.5 21v50q0 14 -8.5 21t-16.5 8t-25 1h-210q-33 0 -50 0.5t-45.5 3.5t-43 10.5t-31 19.5t-23.5 32.5t-7 48.5v45q0 28 7 48.5t23.5 32.5t31 19.5t43 10.5t45.5 3.5t50 0.5h380v-95h-370q-17 0 -25 -1t-16.5 -8t-8.5 -21v-25q0 -14 8.5 -21
t16.5 -8t25 -1h210q33 0 50 -0.5t45.5 -3.5t43 -10.5t31 -19.5t23.5 -32.5t7 -48.5v-70q0 -28 -7 -48.5t-23.5 -32.5t-31 -19.5t-43 -10.5t-45.5 -3.5t-50 -0.5h-420z" />
    <glyph glyph-name="t" unicode="t" horiz-adv-x="480" 
d="M60 115v545h160v-180h200v-95h-200v-260q0 -14 8.5 -21t16.5 -8t25 -1h150v-95h-160q-33 0 -50 0.5t-45.5 3.5t-43 10.5t-31 19.5t-23.5 32.5t-7 48.5z" />
    <glyph glyph-name="u" unicode="u" 
d="M60 115v365h160v-355q0 -14 8.5 -21t16.5 -8t25 -1h200q17 0 25 1t16.5 8t8.5 21v355h160v-365q0 -28 -7 -48.5t-23.5 -32.5t-31 -19.5t-43 -10.5t-45.5 -3.5t-50 -0.5h-220q-33 0 -50 0.5t-45.5 3.5t-43 10.5t-31 19.5t-23.5 32.5t-7 48.5z" />
    <glyph glyph-name="v" unicode="v" horiz-adv-x="720" 
d="M20 480h170l170 -340l170 340h170l-240 -480h-200z" />
    <glyph glyph-name="w" unicode="w" horiz-adv-x="960" 
d="M20 480h160l110 -330l100 300h180l100 -300l110 330h160l-160 -480h-195l-105 315l-105 -315h-195z" />
    <glyph glyph-name="x" unicode="x" horiz-adv-x="710" 
d="M690 0h-190l-145 145l-145 -145h-190l240 240l-240 240h190l145 -145l145 145h190l-240 -240z" />
    <glyph glyph-name="y" unicode="y" horiz-adv-x="720" 
d="M20 480h170l170 -340l170 340h170l-300 -600q-19 -37 -32 -55.5t-43 -34t-75 -15.5h-170v95h100q32 0 42.5 7.5t22.5 32.5l30 60z" />
    <glyph glyph-name="z" unicode="z" horiz-adv-x="720" 
d="M50 0v105l390 280h-370v95h580v-105l-390 -280h410v-95h-620z" />
    <glyph glyph-name="braceleft" unicode="{" horiz-adv-x="645" 
d="M75 165v120l170 85v175q0 28 7 48.5t23.5 32.5t31 19.5t43 10.5t45.5 3.5t50 0.5h140v-95h-150q-17 0 -25 -1t-16.5 -8t-8.5 -21v-220l-180 -90l180 -90v-235q0 -14 8.5 -21t16.5 -8t25 -1h150v-95h-140q-33 0 -50 0.5t-45.5 3.5t-43 10.5t-31 19.5t-23.5 32.5t-7 48.5
v190z" />
    <glyph glyph-name="bar" unicode="|" horiz-adv-x="340" 
d="M100 -225v885h140v-885h-140z" />
    <glyph glyph-name="braceright" unicode="}" horiz-adv-x="645" 
d="M60 -130h150q17 0 25 1t16.5 8t8.5 21v235l180 90l-180 90v220q0 14 -8.5 21t-16.5 8t-25 1h-150v95h140q33 0 50 -0.5t45.5 -3.5t43 -10.5t31 -19.5t23.5 -32.5t7 -48.5v-175l170 -85v-120l-170 -85v-190q0 -28 -7 -48.5t-23.5 -32.5t-31 -19.5t-43 -10.5t-45.5 -3.5
t-50 -0.5h-140v95z" />
    <glyph glyph-name="asciitilde" unicode="~" horiz-adv-x="750" 
d="M210 210h-150q50 116 90 163t95 47q26 0 65 -20l145 -75q6 -3 15 -3q8 0 16 7.5t18 24t17 29t19 37.5h150q-50 -116 -90 -163t-95 -47q-26 0 -65 20l-145 75q-6 3 -15 3q-8 0 -16 -7.5t-18 -24t-17 -29t-19 -37.5z" />
    <glyph glyph-name="uni00A0" unicode="&#xa0;" horiz-adv-x="400" 
 />
    <glyph glyph-name="exclamdown" unicode="&#xa1;" horiz-adv-x="320" 
d="M75 215h170v-440h-170v440zM75 295v140h170v-140h-170z" />
    <glyph glyph-name="cent" unicode="&#xa2;" horiz-adv-x="700" 
d="M60 115v250q0 28 7 48.5t23.5 32.5t31 19.5t43 10.5t45.5 3.5t50 0.5h80v75h120v-75h180v-95h-180v-290h180v-95h-180v-75h-120v75h-80q-33 0 -50 0.5t-45.5 3.5t-43 10.5t-31 19.5t-23.5 32.5t-7 48.5zM220 125q0 -14 8.5 -21t16.5 -8t25 -1h70v290h-70q-17 0 -25 -1
t-16.5 -8t-8.5 -21v-230z" />
    <glyph glyph-name="sterling" unicode="&#xa3;" horiz-adv-x="930" 
d="M70 0v110h100v200h-100v95h100v120q0 22 4.5 40t11.5 31.5t20 23.5t24 17t31 11.5t33 6.5t37.5 3.5t38 1.5h40.5h210h40.5t38 -1.5t37.5 -3.5t33 -6.5t31 -11.5t24 -17t20 -23.5t11.5 -31.5t4.5 -40v-60h-170v50q0 16 -10 24.5t-20 9.5t-30 1h-230q-20 0 -30 -1t-20 -9.5
t-10 -24.5v-110h250v-95h-250v-200h520v-110h-790z" />
    <glyph glyph-name="currency" unicode="&#xa4;" horiz-adv-x="840" 
d="M60 150l110 110v140l-110 110l100 100l110 -110h300l110 110l100 -100l-110 -110v-140l110 -110l-100 -100l-110 110h-300l-110 -110zM310 280q0 -17 10 -21t30 -4h140q13 0 20 1t13.5 6.5t6.5 17.5v100q0 17 -10 21t-30 4h-140q-13 0 -20 -1t-13.5 -6.5t-6.5 -17.5v-100
z" />
    <glyph glyph-name="yen" unicode="&#xa5;" horiz-adv-x="910" 
d="M20 660h210l225 -225l225 225h210l-335 -335h185v-95h-200v-60h200v-95h-200v-75h-170v75h-200v95h200v60h-200v95h185z" />
    <glyph glyph-name="brokenbar" unicode="&#xa6;" horiz-adv-x="340" 
d="M100 140h140v-365h-140v365zM100 300v360h140v-360h-140z" />
    <glyph glyph-name="section" unicode="&#xa7;" horiz-adv-x="880" 
d="M70 0h170v-30q0 -16 10 -24.5t20 -9.5t30 -1h280q20 0 30 1t20 9.5t10 24.5v60q0 16 -10 24.5t-20 9.5t-30 1h-270h-40.5t-38 1.5t-37.5 3.5t-33 6.5t-31 11.5t-24 17t-20 23.5t-11.5 31.5t-4.5 40v70q0 42 23 67t57 33q-34 8 -57 33t-23 67v55q0 22 4.5 40t11.5 31.5
t20 23.5t24 17t31 11.5t33 6.5t37.5 3.5t38 1.5h40.5h260h40.5t38 -1.5t37.5 -3.5t33 -6.5t31 -11.5t24 -17t20 -23.5t11.5 -31.5t4.5 -40v-40h-170v30q0 16 -10 24.5t-20 9.5t-30 1h-280q-20 0 -30 -1t-20 -9.5t-10 -24.5v-60q0 -16 10 -24.5t20 -9.5t30 -1h270h40.5
t38 -1.5t37.5 -3.5t33 -6.5t31 -11.5t24 -17t20 -23.5t11.5 -31.5t4.5 -40v-65q0 -42 -23 -67t-57 -33q34 -8 57 -33t23 -67v-60q0 -22 -4.5 -40t-11.5 -31.5t-20 -23.5t-24 -17t-31 -11.5t-33 -6.5t-37.5 -3.5t-38 -1.5h-40.5h-260h-40.5t-38 1.5t-37.5 3.5t-33 6.5
t-31 11.5t-24 17t-20 23.5t-11.5 31.5t-4.5 40v40zM240 210q0 -16 10 -24.5t20 -9.5t30 -1h280q20 0 30 1t20 9.5t10 24.5v65q0 16 -10 24.5t-20 9.5t-30 1h-280q-20 0 -30 -1t-20 -9.5t-10 -24.5v-65z" />
    <glyph glyph-name="dieresis" unicode="&#xa8;" horiz-adv-x="500" 
d="M60 575v110h135v-110h-135zM305 575v110h135v-110h-135z" />
    <glyph glyph-name="copyright" unicode="&#xa9;" horiz-adv-x="1030" 
d="M60 115v430q0 28 7 48.5t23.5 32.5t31 19.5t43 10.5t45.5 3.5t50 0.5h510q33 0 50 -0.5t45.5 -3.5t43 -10.5t31 -19.5t23.5 -32.5t7 -48.5v-430q0 -28 -7 -48.5t-23.5 -32.5t-31 -19.5t-43 -10.5t-45.5 -3.5t-50 -0.5h-510q-33 0 -50 0.5t-45.5 3.5t-43 10.5t-31 19.5
t-23.5 32.5t-7 48.5zM190 125q0 -16 6 -27t14 -16.5t24 -8t26 -3t30 -0.5h450q20 0 30 0.5t26 3t24 8t14 16.5t6 27v410q0 16 -6 27t-14 16.5t-24 8t-26 3t-30 0.5h-450q-20 0 -30 -0.5t-26 -3t-24 -8t-14 -16.5t-6 -27v-410zM310 250v160q0 26 10 44t22.5 27t37.5 13.5
t41.5 5t48.5 0.5h250v-70h-240q-13 0 -20 -1t-13.5 -6.5t-6.5 -17.5v-150q0 -17 10 -21t30 -4h240v-70h-250q-32 0 -48.5 0.5t-41.5 5t-37.5 13.5t-22.5 27t-10 44z" />
    <glyph glyph-name="ordfeminine" unicode="&#xaa;" horiz-adv-x="560" 
d="M60 175v70h440v-70h-440zM60 410v35q0 26 10 44t22.5 27t37.5 13.5t41.5 5t48.5 0.5h150v30q0 17 -10 21t-30 4h-230v70h240q32 0 48.5 -0.5t41.5 -5t37.5 -13.5t22.5 -27t10 -44v-250h-280q-32 0 -48.5 0.5t-41.5 5t-37.5 13.5t-22.5 27t-10 44zM190 415q0 -17 10 -21
t30 -4h140v75h-140q-13 0 -20 -1t-13.5 -6.5t-6.5 -17.5v-25z" />
    <glyph glyph-name="guillemotleft" unicode="&#xab;" horiz-adv-x="790" 
d="M380 240l200 200h150l-180 -200l180 -200h-150zM60 240l200 200h150l-180 -200l180 -200h-150z" />
    <glyph glyph-name="logicalnot" unicode="&#xac;" horiz-adv-x="680" 
d="M60 280v120h560v-320h-140v200h-420z" />
    <glyph glyph-name="uni00AD" unicode="&#xad;" horiz-adv-x="540" 
d="M60 180v120h420v-120h-420z" />
    <glyph glyph-name="registered" unicode="&#xae;" horiz-adv-x="1060" 
d="M60 115v430q0 28 7 48.5t23.5 32.5t31 19.5t43 10.5t45.5 3.5t50 0.5h540q33 0 50 -0.5t45.5 -3.5t43 -10.5t31 -19.5t23.5 -32.5t7 -48.5v-430q0 -28 -7 -48.5t-23.5 -32.5t-31 -19.5t-43 -10.5t-45.5 -3.5t-50 -0.5h-540q-33 0 -50 0.5t-45.5 3.5t-43 10.5t-31 19.5
t-23.5 32.5t-7 48.5zM190 125q0 -16 6 -27t14 -16.5t24 -8t26 -3t30 -0.5h480q20 0 30 0.5t26 3t24 8t14 16.5t6 27v410q0 16 -6 27t-14 16.5t-24 8t-26 3t-30 0.5h-480q-20 0 -30 -0.5t-26 -3t-24 -8t-14 -16.5t-6 -27v-410zM310 160v340h280q32 0 48.5 -0.5t41.5 -5
t37.5 -13.5t22.5 -27t10 -44v-25q0 -37 -20 -58.5t-44.5 -26.5t-60.5 -5l135 -135h-140l-135 135h-45v-135h-130zM440 365h140q13 0 20 1t13.5 6.5t6.5 17.5v15q0 17 -10 21t-30 4h-140v-65z" />
    <glyph glyph-name="macron" unicode="&#xaf;" horiz-adv-x="500" 
d="M70 575v95h360v-95h-360z" />
    <glyph glyph-name="degree" unicode="&#xb0;" horiz-adv-x="560" 
d="M60 480v90q0 26 10 44t22.5 27t37.5 13.5t41.5 5t48.5 0.5h120q32 0 48.5 -0.5t41.5 -5t37.5 -13.5t22.5 -27t10 -44v-90q0 -26 -10 -44t-22.5 -27t-37.5 -13.5t-41.5 -5t-48.5 -0.5h-120q-32 0 -48.5 0.5t-41.5 5t-37.5 13.5t-22.5 27t-10 44zM190 485q0 -17 10 -21
t30 -4h100q13 0 20 1t13.5 6.5t6.5 17.5v80q0 17 -10 21t-30 4h-100q-13 0 -20 -1t-13.5 -6.5t-6.5 -17.5v-80z" />
    <glyph glyph-name="plusminus" unicode="&#xb1;" horiz-adv-x="720" 
d="M60 0v120h600v-120h-600zM60 300v120h215v130h170v-130h215v-120h-215v-130h-170v130h-215z" />
    <glyph glyph-name="uni00B2" unicode="&#xb2;" horiz-adv-x="560" 
d="M60 320v125q0 22 6.5 38t20.5 25.5t27 15t37 8t38 3t41 0.5h100q13 0 20 1t13.5 6.5t6.5 17.5v5q0 17 -10 21t-30 4h-250v70h260q32 0 48.5 -0.5t41.5 -5t37.5 -13.5t22.5 -27t10 -44v-15q0 -26 -10 -44t-22.5 -27t-37.5 -13.5t-41.5 -5t-48.5 -0.5h-110q-13 0 -20 -1
t-13.5 -6.5t-6.5 -17.5v-50h310v-70h-440z" />
    <glyph glyph-name="uni00B3" unicode="&#xb3;" horiz-adv-x="560" 
d="M60 320v70h270q13 0 20 1t13.5 6.5t6.5 17.5v25q0 17 -10 21t-30 4h-210v70h210q13 0 20 1t13.5 6.5t6.5 17.5v5q0 17 -10 21t-30 4h-270v70h280q32 0 48.5 -0.5t41.5 -5t37.5 -13.5t22.5 -27t10 -44q0 -50 -60 -65q60 -15 60 -65v-30q0 -26 -10 -44t-22.5 -27
t-37.5 -13.5t-41.5 -5t-48.5 -0.5h-280z" />
    <glyph glyph-name="acute" unicode="&#xb4;" horiz-adv-x="500" 
d="M150 550l100 160h170l-160 -160h-110z" />
    <glyph glyph-name="uni00B5" unicode="&#xb5;" 
d="M60 -225v705h160v-360q0 -17 12.5 -21t37.5 -4h200q17 0 25 1t16.5 8t8.5 21v355h160v-365q0 -28 -7 -48.5t-23.5 -32.5t-31 -19.5t-43 -10.5t-45.5 -3.5t-50 -0.5h-260v-225h-160z" />
    <glyph glyph-name="paragraph" unicode="&#xb6;" horiz-adv-x="750" 
d="M60 430v60q0 170 230 170h400v-885h-140v790h-120v-790h-140v485q-230 0 -230 170z" />
    <glyph glyph-name="periodcentered" unicode="&#xb7;" horiz-adv-x="320" 
d="M75 170v140h170v-140h-170z" />
    <glyph glyph-name="cedilla" unicode="&#xb8;" horiz-adv-x="500" 
d="M150 -155h30q70 0 70 40q0 16 -16 39t-69 76h115q55 -55 72.5 -80.5t17.5 -54.5q0 -38 -25 -59t-56.5 -26t-78.5 -5h-60v70z" />
    <glyph glyph-name="uni00B9" unicode="&#xb9;" horiz-adv-x="350" 
d="M60 580v80h230v-340h-130v260h-100z" />
    <glyph glyph-name="ordmasculine" unicode="&#xba;" horiz-adv-x="560" 
d="M60 175v70h440v-70h-440zM60 410v160q0 26 10 44t22.5 27t37.5 13.5t41.5 5t48.5 0.5h120q32 0 48.5 -0.5t41.5 -5t37.5 -13.5t22.5 -27t10 -44v-160q0 -26 -10 -44t-22.5 -27t-37.5 -13.5t-41.5 -5t-48.5 -0.5h-120q-32 0 -48.5 0.5t-41.5 5t-37.5 13.5t-22.5 27t-10 44
zM190 415q0 -17 10 -21t30 -4h100q13 0 20 1t13.5 6.5t6.5 17.5v150q0 17 -10 21t-30 4h-100q-13 0 -20 -1t-13.5 -6.5t-6.5 -17.5v-150z" />
    <glyph glyph-name="guillemotright" unicode="&#xbb;" horiz-adv-x="790" 
d="M380 40l180 200l-180 200h150l200 -200l-200 -200h-150zM60 40l180 200l-180 200h150l200 -200l-200 -200h-150z" />
    <glyph glyph-name="onequarter" unicode="&#xbc;" horiz-adv-x="1030" 
d="M530 60v70l270 210h170v-340h-130v60h-310zM669 130h171v133zM220 0l330 660h140l-330 -660h-140zM60 580v80h230v-340h-130v260h-100z" />
    <glyph glyph-name="onehalf" unicode="&#xbd;" horiz-adv-x="1070" 
d="M570 0v125q0 22 6.5 38t20.5 25.5t27 15t37 8t38 3t41 0.5h100q13 0 20 1t13.5 6.5t6.5 17.5v5q0 17 -10 21t-30 4h-250v70h260q32 0 48.5 -0.5t41.5 -5t37.5 -13.5t22.5 -27t10 -44v-15q0 -26 -10 -44t-22.5 -27t-37.5 -13.5t-41.5 -5t-48.5 -0.5h-110q-13 0 -20 -1
t-13.5 -6.5t-6.5 -17.5v-50h310v-70h-440zM220 0l330 660h140l-330 -660h-140zM60 580v80h230v-340h-130v260h-100z" />
    <glyph glyph-name="threequarters" unicode="&#xbe;" horiz-adv-x="1190" 
d="M690 60v70l270 210h170v-340h-130v60h-310zM829 130h171v133zM60 320v70h270q13 0 20 1t13.5 6.5t6.5 17.5v25q0 17 -10 21t-30 4h-210v70h210q13 0 20 1t13.5 6.5t6.5 17.5v5q0 17 -10 21t-30 4h-270v70h280q32 0 48.5 -0.5t41.5 -5t37.5 -13.5t22.5 -27t10 -44
q0 -50 -60 -65q60 -15 60 -65v-30q0 -26 -10 -44t-22.5 -27t-37.5 -13.5t-41.5 -5t-48.5 -0.5h-280zM380 0l330 660h140l-330 -660h-140z" />
    <glyph glyph-name="questiondown" unicode="&#xbf;" horiz-adv-x="910" 
d="M835 -115v-110h-520h-40.5t-38 1.5t-37.5 3.5t-33 6.5t-31 11.5t-24 17t-20 23.5t-11.5 31.5t-4.5 40v85q0 22 4.5 40t11.5 31.5t20 23.5t24 17t31 11.5t33 6.5t37.5 3.5t38 1.5h40.5h80q20 0 30 1t20 9.5t10 24.5v50h170v-60q0 -22 -4.5 -40t-11.5 -31.5t-20 -23.5
t-24 -17t-31 -11.5t-33 -6.5t-37.5 -3.5t-38 -1.5h-40.5h-80q-20 0 -30 -1t-20 -9.5t-10 -24.5v-65q0 -16 10 -24.5t20 -9.5t30 -1h530zM625 435v-140h-170v140h170z" />
    <glyph glyph-name="Agrave" unicode="&#xc0;" horiz-adv-x="930" 
d="M295 890h170l100 -160h-110zM20 0l330 660h230l330 -660h-180l-95 190h-340l-95 -190h-180zM350 300h230l-115 230z" />
    <glyph glyph-name="Aacute" unicode="&#xc1;" horiz-adv-x="930" 
d="M365 730l100 160h170l-160 -160h-110zM20 0l330 660h230l330 -660h-180l-95 190h-340l-95 -190h-180zM350 300h230l-115 230z" />
    <glyph glyph-name="Acircumflex" unicode="&#xc2;" horiz-adv-x="930" 
d="M255 730l150 160h120l150 -160h-120l-90 90l-90 -90h-120zM20 0l330 660h230l330 -660h-180l-95 190h-340l-95 -190h-180zM350 300h230l-115 230z" />
    <glyph glyph-name="Atilde" unicode="&#xc3;" horiz-adv-x="930" 
d="M370 880q21 0 37 -4.5t58 -25.5q60 -30 70 -30q9 0 14 2t12 16t14 42h100q-17 -73 -49 -106.5t-66 -33.5q-21 0 -37 4.5t-58 25.5q-60 30 -70 30q-9 0 -14 -2t-12 -16t-14 -42h-100q17 73 49 106.5t66 33.5zM20 0l330 660h230l330 -660h-180l-95 190h-340l-95 -190h-180z
M350 300h230l-115 230z" />
    <glyph glyph-name="Adieresis" unicode="&#xc4;" horiz-adv-x="930" 
d="M275 755v110h135v-110h-135zM520 755v110h135v-110h-135zM20 0l330 660h230l330 -660h-180l-95 190h-340l-95 -190h-180zM350 300h230l-115 230z" />
    <glyph glyph-name="Aring" unicode="&#xc5;" horiz-adv-x="930" 
d="M280 745v60q0 85 120 85h130q120 0 120 -85v-60q0 -85 -120 -85h-130q-120 0 -120 85zM390 745q0 -20 30 -20h90q30 0 30 20v60q0 20 -30 20h-90q-30 0 -30 -20v-60zM20 0l330 660h230l330 -660h-180l-95 190h-340l-95 -190h-180zM350 300h230l-115 230z" />
    <glyph glyph-name="AE" unicode="&#xc6;" horiz-adv-x="1350" 
d="M20 0l330 660h930v-110h-520v-135h470v-110h-470v-195h520v-110h-690v190h-305l-95 -190h-170zM340 300h250v250h-125z" />
    <glyph glyph-name="Ccedilla" unicode="&#xc7;" horiz-adv-x="880" 
d="M380 -155h30q70 0 70 40q0 16 -16 39t-69 76h115q55 -55 72.5 -80.5t17.5 -54.5q0 -38 -25 -59t-56.5 -26t-78.5 -5h-60v70zM70 135v390q0 22 4.5 40t11.5 31.5t20 23.5t24 17t31 11.5t33 6.5t37.5 3.5t38 1.5h40.5h500v-110h-510q-20 0 -30 -1t-20 -9.5t-10 -24.5v-370
q0 -16 10 -24.5t20 -9.5t30 -1h510v-110h-500h-40.5t-38 1.5t-37.5 3.5t-33 6.5t-31 11.5t-24 17t-20 23.5t-11.5 31.5t-4.5 40z" />
    <glyph glyph-name="Egrave" unicode="&#xc8;" horiz-adv-x="880" 
d="M270 890h170l100 -160h-110zM70 0v660h740v-110h-570v-135h520v-110h-520v-195h570v-110h-740z" />
    <glyph glyph-name="Eacute" unicode="&#xc9;" horiz-adv-x="880" 
d="M340 730l100 160h170l-160 -160h-110zM70 0v660h740v-110h-570v-135h520v-110h-520v-195h570v-110h-740z" />
    <glyph glyph-name="Ecircumflex" unicode="&#xca;" horiz-adv-x="880" 
d="M230 730l150 160h120l150 -160h-120l-90 90l-90 -90h-120zM70 0v660h740v-110h-570v-135h520v-110h-520v-195h570v-110h-740z" />
    <glyph glyph-name="Edieresis" unicode="&#xcb;" horiz-adv-x="880" 
d="M250 755v110h135v-110h-135zM495 755v110h135v-110h-135zM70 0v660h740v-110h-570v-135h520v-110h-520v-195h570v-110h-740z" />
    <glyph glyph-name="Igrave" unicode="&#xcc;" horiz-adv-x="310" 
d="M-10 890h170l100 -160h-110zM70 0v660h170v-660h-170z" />
    <glyph glyph-name="Iacute" unicode="&#xcd;" horiz-adv-x="310" 
d="M50 730l100 160h170l-160 -160h-110zM70 0v660h170v-660h-170z" />
    <glyph glyph-name="Icircumflex" unicode="&#xce;" horiz-adv-x="340" 
d="M-40 730l150 160h120l150 -160h-120l-90 90l-90 -90h-120zM85 0v660h170v-660h-170z" />
    <glyph glyph-name="Idieresis" unicode="&#xcf;" horiz-adv-x="340" 
d="M-20 755v110h135v-110h-135zM225 755v110h135v-110h-135zM85 0v660h170v-660h-170z" />
    <glyph glyph-name="Eth" unicode="&#xd0;" horiz-adv-x="960" 
d="M270 110h210q240 0 240 200v45q0 200 -240 200h-210v-145h225v-95h-225v-205zM100 315h-80v95h80v250h430q71 0 133 -16.5t114 -51t82.5 -95.5t30.5 -142v-45q0 -81 -30.5 -143t-82.5 -97t-114.5 -52.5t-132.5 -17.5h-430v315z" />
    <glyph glyph-name="Ntilde" unicode="&#xd1;" horiz-adv-x="930" 
d="M370 880q21 0 37 -4.5t58 -25.5q60 -30 70 -30q9 0 14 2t12 16t14 42h100q-17 -73 -49 -106.5t-66 -33.5q-21 0 -37 4.5t-58 25.5q-60 30 -70 30q-9 0 -14 -2t-12 -16t-14 -42h-100q17 73 49 106.5t66 33.5zM70 0v660h190l430 -470v470h170v-660h-190l-430 470v-470h-170
z" />
    <glyph glyph-name="Ograve" unicode="&#xd2;" horiz-adv-x="930" 
d="M295 890h170l100 -160h-110zM70 135v390q0 22 4.5 40t11.5 31.5t20 23.5t24 17t31 11.5t33 6.5t37.5 3.5t38 1.5h40.5h310h40.5t38 -1.5t37.5 -3.5t33 -6.5t31 -11.5t24 -17t20 -23.5t11.5 -31.5t4.5 -40v-390q0 -22 -4.5 -40t-11.5 -31.5t-20 -23.5t-24 -17t-31 -11.5
t-33 -6.5t-37.5 -3.5t-38 -1.5h-40.5h-310h-40.5t-38 1.5t-37.5 3.5t-33 6.5t-31 11.5t-24 17t-20 23.5t-11.5 31.5t-4.5 40zM240 145q0 -16 10 -24.5t20 -9.5t30 -1h330q20 0 30 1t20 9.5t10 24.5v370q0 16 -10 24.5t-20 9.5t-30 1h-330q-20 0 -30 -1t-20 -9.5t-10 -24.5
v-370z" />
    <glyph glyph-name="Oacute" unicode="&#xd3;" horiz-adv-x="930" 
d="M365 730l100 160h170l-160 -160h-110zM70 135v390q0 22 4.5 40t11.5 31.5t20 23.5t24 17t31 11.5t33 6.5t37.5 3.5t38 1.5h40.5h310h40.5t38 -1.5t37.5 -3.5t33 -6.5t31 -11.5t24 -17t20 -23.5t11.5 -31.5t4.5 -40v-390q0 -22 -4.5 -40t-11.5 -31.5t-20 -23.5t-24 -17
t-31 -11.5t-33 -6.5t-37.5 -3.5t-38 -1.5h-40.5h-310h-40.5t-38 1.5t-37.5 3.5t-33 6.5t-31 11.5t-24 17t-20 23.5t-11.5 31.5t-4.5 40zM240 145q0 -16 10 -24.5t20 -9.5t30 -1h330q20 0 30 1t20 9.5t10 24.5v370q0 16 -10 24.5t-20 9.5t-30 1h-330q-20 0 -30 -1t-20 -9.5
t-10 -24.5v-370z" />
    <glyph glyph-name="Ocircumflex" unicode="&#xd4;" horiz-adv-x="930" 
d="M255 730l150 160h120l150 -160h-120l-90 90l-90 -90h-120zM70 135v390q0 22 4.5 40t11.5 31.5t20 23.5t24 17t31 11.5t33 6.5t37.5 3.5t38 1.5h40.5h310h40.5t38 -1.5t37.5 -3.5t33 -6.5t31 -11.5t24 -17t20 -23.5t11.5 -31.5t4.5 -40v-390q0 -22 -4.5 -40t-11.5 -31.5
t-20 -23.5t-24 -17t-31 -11.5t-33 -6.5t-37.5 -3.5t-38 -1.5h-40.5h-310h-40.5t-38 1.5t-37.5 3.5t-33 6.5t-31 11.5t-24 17t-20 23.5t-11.5 31.5t-4.5 40zM240 145q0 -16 10 -24.5t20 -9.5t30 -1h330q20 0 30 1t20 9.5t10 24.5v370q0 16 -10 24.5t-20 9.5t-30 1h-330
q-20 0 -30 -1t-20 -9.5t-10 -24.5v-370z" />
    <glyph glyph-name="Otilde" unicode="&#xd5;" horiz-adv-x="930" 
d="M370 880q21 0 37 -4.5t58 -25.5q60 -30 70 -30q9 0 14 2t12 16t14 42h100q-17 -73 -49 -106.5t-66 -33.5q-21 0 -37 4.5t-58 25.5q-60 30 -70 30q-9 0 -14 -2t-12 -16t-14 -42h-100q17 73 49 106.5t66 33.5zM70 135v390q0 22 4.5 40t11.5 31.5t20 23.5t24 17t31 11.5
t33 6.5t37.5 3.5t38 1.5h40.5h310h40.5t38 -1.5t37.5 -3.5t33 -6.5t31 -11.5t24 -17t20 -23.5t11.5 -31.5t4.5 -40v-390q0 -22 -4.5 -40t-11.5 -31.5t-20 -23.5t-24 -17t-31 -11.5t-33 -6.5t-37.5 -3.5t-38 -1.5h-40.5h-310h-40.5t-38 1.5t-37.5 3.5t-33 6.5t-31 11.5
t-24 17t-20 23.5t-11.5 31.5t-4.5 40zM240 145q0 -16 10 -24.5t20 -9.5t30 -1h330q20 0 30 1t20 9.5t10 24.5v370q0 16 -10 24.5t-20 9.5t-30 1h-330q-20 0 -30 -1t-20 -9.5t-10 -24.5v-370z" />
    <glyph glyph-name="Odieresis" unicode="&#xd6;" horiz-adv-x="930" 
d="M275 755v110h135v-110h-135zM520 755v110h135v-110h-135zM70 135v390q0 22 4.5 40t11.5 31.5t20 23.5t24 17t31 11.5t33 6.5t37.5 3.5t38 1.5h40.5h310h40.5t38 -1.5t37.5 -3.5t33 -6.5t31 -11.5t24 -17t20 -23.5t11.5 -31.5t4.5 -40v-390q0 -22 -4.5 -40t-11.5 -31.5
t-20 -23.5t-24 -17t-31 -11.5t-33 -6.5t-37.5 -3.5t-38 -1.5h-40.5h-310h-40.5t-38 1.5t-37.5 3.5t-33 6.5t-31 11.5t-24 17t-20 23.5t-11.5 31.5t-4.5 40zM240 145q0 -16 10 -24.5t20 -9.5t30 -1h330q20 0 30 1t20 9.5t10 24.5v370q0 16 -10 24.5t-20 9.5t-30 1h-330
q-20 0 -30 -1t-20 -9.5t-10 -24.5v-370z" />
    <glyph glyph-name="multiply" unicode="&#xd7;" horiz-adv-x="600" 
d="M60 100l140 140l-140 140l100 100l140 -140l140 140l100 -100l-140 -140l140 -140l-100 -100l-140 140l-140 -140z" />
    <glyph glyph-name="Oslash" unicode="&#xd8;" horiz-adv-x="1030" 
d="M20 100v105l100 35v285q0 22 4.5 40t11.5 31.5t20 23.5t24 17t31 11.5t33 6.5t37.5 3.5t38 1.5h40.5h310h40.5t38 -1.5t37.5 -3.5t33 -6.5t31 -11.5t24 -17t20 -23.5t11.5 -31.5t4.5 -40l100 35v-105l-100 -35v-285q0 -22 -4.5 -40t-11.5 -31.5t-20 -23.5t-24 -17
t-31 -11.5t-33 -6.5t-37.5 -3.5t-38 -1.5h-40.5h-310h-40.5t-38 1.5t-37.5 3.5t-33 6.5t-31 11.5t-24 17t-20 23.5t-11.5 31.5t-4.5 40zM290 145q0 -16 10 -24.5t20 -9.5t30 -1h330q20 0 30 1t20 9.5t10 24.5v212l-450 -160v-52zM290 302l450 160v53q0 16 -10 24.5t-20 9.5
t-30 1h-330q-20 0 -30 -1t-20 -9.5t-10 -24.5v-213z" />
    <glyph glyph-name="Ugrave" unicode="&#xd9;" horiz-adv-x="930" 
d="M295 890h170l100 -160h-110zM70 135v525h170v-515q0 -16 10 -24.5t20 -9.5t30 -1h330q20 0 30 1t20 9.5t10 24.5v515h170v-525q0 -22 -4.5 -40t-11.5 -31.5t-20 -23.5t-24 -17t-31 -11.5t-33 -6.5t-37.5 -3.5t-38 -1.5h-40.5h-310h-40.5t-38 1.5t-37.5 3.5t-33 6.5
t-31 11.5t-24 17t-20 23.5t-11.5 31.5t-4.5 40z" />
    <glyph glyph-name="Uacute" unicode="&#xda;" horiz-adv-x="930" 
d="M365 730l100 160h170l-160 -160h-110zM70 135v525h170v-515q0 -16 10 -24.5t20 -9.5t30 -1h330q20 0 30 1t20 9.5t10 24.5v515h170v-525q0 -22 -4.5 -40t-11.5 -31.5t-20 -23.5t-24 -17t-31 -11.5t-33 -6.5t-37.5 -3.5t-38 -1.5h-40.5h-310h-40.5t-38 1.5t-37.5 3.5
t-33 6.5t-31 11.5t-24 17t-20 23.5t-11.5 31.5t-4.5 40z" />
    <glyph glyph-name="Ucircumflex" unicode="&#xdb;" horiz-adv-x="930" 
d="M255 730l150 160h120l150 -160h-120l-90 90l-90 -90h-120zM70 135v525h170v-515q0 -16 10 -24.5t20 -9.5t30 -1h330q20 0 30 1t20 9.5t10 24.5v515h170v-525q0 -22 -4.5 -40t-11.5 -31.5t-20 -23.5t-24 -17t-31 -11.5t-33 -6.5t-37.5 -3.5t-38 -1.5h-40.5h-310h-40.5
t-38 1.5t-37.5 3.5t-33 6.5t-31 11.5t-24 17t-20 23.5t-11.5 31.5t-4.5 40z" />
    <glyph glyph-name="Udieresis" unicode="&#xdc;" horiz-adv-x="930" 
d="M275 755v110h135v-110h-135zM520 755v110h135v-110h-135zM70 135v525h170v-515q0 -16 10 -24.5t20 -9.5t30 -1h330q20 0 30 1t20 9.5t10 24.5v515h170v-525q0 -22 -4.5 -40t-11.5 -31.5t-20 -23.5t-24 -17t-31 -11.5t-33 -6.5t-37.5 -3.5t-38 -1.5h-40.5h-310h-40.5
t-38 1.5t-37.5 3.5t-33 6.5t-31 11.5t-24 17t-20 23.5t-11.5 31.5t-4.5 40z" />
    <glyph glyph-name="Yacute" unicode="&#xdd;" horiz-adv-x="910" 
d="M355 730l100 160h170l-160 -160h-110zM20 660h210l225 -225l225 225h210l-350 -350v-310h-170v310z" />
    <glyph glyph-name="Thorn" unicode="&#xde;" horiz-adv-x="930" 
d="M70 0v660h170v-125h380h40.5t38 -1.5t37.5 -3.5t33 -6.5t31 -11.5t24 -17t20 -23.5t11.5 -31.5t4.5 -40v-140q0 -22 -4.5 -40t-11.5 -31.5t-20 -23.5t-24 -17t-31 -11.5t-33 -6.5t-37.5 -3.5t-38 -1.5h-40.5h-380v-125h-170zM240 235h390q20 0 30 1t20 9.5t10 24.5v120
q0 16 -10 24.5t-20 9.5t-30 1h-390v-190z" />
    <glyph glyph-name="germandbls" unicode="&#xdf;" 
d="M60 0v545q0 28 7 48.5t23.5 32.5t31 19.5t43 10.5t45.5 3.5t50 0.5h180q33 0 50 -0.5t45.5 -3.5t43 -10.5t31 -19.5t23.5 -32.5t7 -48.5v-95q0 -46 -18.5 -66t-51.5 -24q17 -2 27.5 -4t28 -9t28 -17.5t18.5 -29.5t8 -45v-140q0 -28 -7 -48.5t-23.5 -32.5t-31 -19.5
t-43 -10.5t-45.5 -3.5t-50 -0.5h-140v95h130q17 0 25 1t16.5 8t8.5 21v150q0 14 -8.5 21t-16.5 8t-25 1h-130v95h90q17 0 25 1t16.5 8t8.5 21v105q0 14 -8.5 21t-16.5 8t-25 1h-160q-17 0 -25 -1t-16.5 -8t-8.5 -21v-535h-160z" />
    <glyph glyph-name="agrave" unicode="&#xe0;" 
d="M200 710h170l100 -160h-110zM60 115v70q0 28 7 48.5t23.5 32.5t31 19.5t43 10.5t45.5 3.5t50 0.5h260v55q0 14 -8.5 21t-16.5 8t-25 1h-370v95h380q33 0 50 -0.5t45.5 -3.5t43 -10.5t31 -19.5t23.5 -32.5t7 -48.5v-365h-420q-33 0 -50 0.5t-45.5 3.5t-43 10.5t-31 19.5
t-23.5 32.5t-7 48.5zM220 125q0 -14 8.5 -21t16.5 -8t25 -1h250v110h-250q-17 0 -25 -1t-16.5 -8t-8.5 -21v-50z" />
    <glyph glyph-name="aacute" unicode="&#xe1;" 
d="M270 550l100 160h170l-160 -160h-110zM60 115v70q0 28 7 48.5t23.5 32.5t31 19.5t43 10.5t45.5 3.5t50 0.5h260v55q0 14 -8.5 21t-16.5 8t-25 1h-370v95h380q33 0 50 -0.5t45.5 -3.5t43 -10.5t31 -19.5t23.5 -32.5t7 -48.5v-365h-420q-33 0 -50 0.5t-45.5 3.5t-43 10.5
t-31 19.5t-23.5 32.5t-7 48.5zM220 125q0 -14 8.5 -21t16.5 -8t25 -1h250v110h-250q-17 0 -25 -1t-16.5 -8t-8.5 -21v-50z" />
    <glyph glyph-name="acircumflex" unicode="&#xe2;" 
d="M160 550l150 160h120l150 -160h-120l-90 90l-90 -90h-120zM60 115v70q0 28 7 48.5t23.5 32.5t31 19.5t43 10.5t45.5 3.5t50 0.5h260v55q0 14 -8.5 21t-16.5 8t-25 1h-370v95h380q33 0 50 -0.5t45.5 -3.5t43 -10.5t31 -19.5t23.5 -32.5t7 -48.5v-365h-420q-33 0 -50 0.5
t-45.5 3.5t-43 10.5t-31 19.5t-23.5 32.5t-7 48.5zM220 125q0 -14 8.5 -21t16.5 -8t25 -1h250v110h-250q-17 0 -25 -1t-16.5 -8t-8.5 -21v-50z" />
    <glyph glyph-name="atilde" unicode="&#xe3;" 
d="M275 700q21 0 37 -4.5t58 -25.5q60 -30 70 -30q9 0 14 2t12 16t14 42h100q-17 -73 -49 -106.5t-66 -33.5q-21 0 -37 4.5t-58 25.5q-60 30 -70 30q-9 0 -14 -2t-12 -16t-14 -42h-100q17 73 49 106.5t66 33.5zM60 115v70q0 28 7 48.5t23.5 32.5t31 19.5t43 10.5t45.5 3.5
t50 0.5h260v55q0 14 -8.5 21t-16.5 8t-25 1h-370v95h380q33 0 50 -0.5t45.5 -3.5t43 -10.5t31 -19.5t23.5 -32.5t7 -48.5v-365h-420q-33 0 -50 0.5t-45.5 3.5t-43 10.5t-31 19.5t-23.5 32.5t-7 48.5zM220 125q0 -14 8.5 -21t16.5 -8t25 -1h250v110h-250q-17 0 -25 -1
t-16.5 -8t-8.5 -21v-50z" />
    <glyph glyph-name="adieresis" unicode="&#xe4;" 
d="M180 575v110h135v-110h-135zM425 575v110h135v-110h-135zM60 115v70q0 28 7 48.5t23.5 32.5t31 19.5t43 10.5t45.5 3.5t50 0.5h260v55q0 14 -8.5 21t-16.5 8t-25 1h-370v95h380q33 0 50 -0.5t45.5 -3.5t43 -10.5t31 -19.5t23.5 -32.5t7 -48.5v-365h-420q-33 0 -50 0.5
t-45.5 3.5t-43 10.5t-31 19.5t-23.5 32.5t-7 48.5zM220 125q0 -14 8.5 -21t16.5 -8t25 -1h250v110h-250q-17 0 -25 -1t-16.5 -8t-8.5 -21v-50z" />
    <glyph glyph-name="aring" unicode="&#xe5;" 
d="M185 635v60q0 85 120 85h130q120 0 120 -85v-60q0 -85 -120 -85h-130q-120 0 -120 85zM295 635q0 -20 30 -20h90q30 0 30 20v60q0 20 -30 20h-90q-30 0 -30 -20v-60zM60 115v70q0 28 7 48.5t23.5 32.5t31 19.5t43 10.5t45.5 3.5t50 0.5h260v55q0 14 -8.5 21t-16.5 8
t-25 1h-370v95h380q33 0 50 -0.5t45.5 -3.5t43 -10.5t31 -19.5t23.5 -32.5t7 -48.5v-365h-420q-33 0 -50 0.5t-45.5 3.5t-43 10.5t-31 19.5t-23.5 32.5t-7 48.5zM220 125q0 -14 8.5 -21t16.5 -8t25 -1h250v110h-250q-17 0 -25 -1t-16.5 -8t-8.5 -21v-50z" />
    <glyph glyph-name="ae" unicode="&#xe6;" horiz-adv-x="1200" 
d="M60 115v70q0 28 7 48.5t23.5 32.5t31 19.5t43 10.5t45.5 3.5t50 0.5h260v55q0 14 -8.5 21t-16.5 8t-25 1h-370v95h840q33 0 50 -0.5t45.5 -3.5t43 -10.5t31 -19.5t23.5 -32.5t7 -48.5v-160h-460v-80q0 -14 8.5 -21t16.5 -8t25 -1h390v-95h-860q-33 0 -50 0.5t-45.5 3.5
t-43 10.5t-31 19.5t-23.5 32.5t-7 48.5zM220 125q0 -14 8.5 -21t16.5 -8t25 -1h250v110h-250q-17 0 -25 -1t-16.5 -8t-8.5 -21v-50zM680 300h300v55q0 14 -8.5 21t-16.5 8t-25 1h-200q-17 0 -25 -1t-16.5 -8t-8.5 -21v-55z" />
    <glyph glyph-name="ccedilla" unicode="&#xe7;" horiz-adv-x="700" 
d="M290 -155h30q70 0 70 40q0 16 -16 39t-69 76h115q55 -55 72.5 -80.5t17.5 -54.5q0 -38 -25 -59t-56.5 -26t-78.5 -5h-60v70zM60 115v250q0 28 7 48.5t23.5 32.5t31 19.5t43 10.5t45.5 3.5t50 0.5h380v-95h-370q-17 0 -25 -1t-16.5 -8t-8.5 -21v-230q0 -14 8.5 -21
t16.5 -8t25 -1h370v-95h-380q-33 0 -50 0.5t-45.5 3.5t-43 10.5t-31 19.5t-23.5 32.5t-7 48.5z" />
    <glyph glyph-name="egrave" unicode="&#xe8;" 
d="M200 710h170l100 -160h-110zM60 115v250q0 28 7 48.5t23.5 32.5t31 19.5t43 10.5t45.5 3.5t50 0.5h220q33 0 50 -0.5t45.5 -3.5t43 -10.5t31 -19.5t23.5 -32.5t7 -48.5v-160h-460v-80q0 -14 8.5 -21t16.5 -8t25 -1h390v-95h-400q-33 0 -50 0.5t-45.5 3.5t-43 10.5
t-31 19.5t-23.5 32.5t-7 48.5zM220 300h300v55q0 14 -8.5 21t-16.5 8t-25 1h-200q-17 0 -25 -1t-16.5 -8t-8.5 -21v-55z" />
    <glyph glyph-name="eacute" unicode="&#xe9;" 
d="M270 550l100 160h170l-160 -160h-110zM60 115v250q0 28 7 48.5t23.5 32.5t31 19.5t43 10.5t45.5 3.5t50 0.5h220q33 0 50 -0.5t45.5 -3.5t43 -10.5t31 -19.5t23.5 -32.5t7 -48.5v-160h-460v-80q0 -14 8.5 -21t16.5 -8t25 -1h390v-95h-400q-33 0 -50 0.5t-45.5 3.5
t-43 10.5t-31 19.5t-23.5 32.5t-7 48.5zM220 300h300v55q0 14 -8.5 21t-16.5 8t-25 1h-200q-17 0 -25 -1t-16.5 -8t-8.5 -21v-55z" />
    <glyph glyph-name="ecircumflex" unicode="&#xea;" 
d="M160 550l150 160h120l150 -160h-120l-90 90l-90 -90h-120zM60 115v250q0 28 7 48.5t23.5 32.5t31 19.5t43 10.5t45.5 3.5t50 0.5h220q33 0 50 -0.5t45.5 -3.5t43 -10.5t31 -19.5t23.5 -32.5t7 -48.5v-160h-460v-80q0 -14 8.5 -21t16.5 -8t25 -1h390v-95h-400
q-33 0 -50 0.5t-45.5 3.5t-43 10.5t-31 19.5t-23.5 32.5t-7 48.5zM220 300h300v55q0 14 -8.5 21t-16.5 8t-25 1h-200q-17 0 -25 -1t-16.5 -8t-8.5 -21v-55z" />
    <glyph glyph-name="edieresis" unicode="&#xeb;" 
d="M180 575v110h135v-110h-135zM425 575v110h135v-110h-135zM60 115v250q0 28 7 48.5t23.5 32.5t31 19.5t43 10.5t45.5 3.5t50 0.5h220q33 0 50 -0.5t45.5 -3.5t43 -10.5t31 -19.5t23.5 -32.5t7 -48.5v-160h-460v-80q0 -14 8.5 -21t16.5 -8t25 -1h390v-95h-400
q-33 0 -50 0.5t-45.5 3.5t-43 10.5t-31 19.5t-23.5 32.5t-7 48.5zM220 300h300v55q0 14 -8.5 21t-16.5 8t-25 1h-200q-17 0 -25 -1t-16.5 -8t-8.5 -21v-55z" />
    <glyph glyph-name="igrave" unicode="&#xec;" horiz-adv-x="310" 
d="M-10 710h170l100 -160h-110zM75 0v480h160v-480h-160z" />
    <glyph glyph-name="iacute" unicode="&#xed;" horiz-adv-x="310" 
d="M50 550l100 160h170l-160 -160h-110zM75 0v480h160v-480h-160z" />
    <glyph glyph-name="icircumflex" unicode="&#xee;" horiz-adv-x="340" 
d="M-40 550l150 160h120l150 -160h-120l-90 90l-90 -90h-120zM90 0v480h160v-480h-160z" />
    <glyph glyph-name="idieresis" unicode="&#xef;" horiz-adv-x="340" 
d="M-20 575v110h135v-110h-135zM225 575v110h135v-110h-135zM90 0v480h160v-480h-160z" />
    <glyph glyph-name="eth" unicode="&#xf0;" 
d="M60 115v145q0 28 7 48.5t23.5 32.5t31 19.5t43 10.5t45.5 3.5t50 0.5h200q37 0 37 15q0 11 -12 35l-25 50l-110 -55l-35 70l110 55l-60 115h170l25 -45l80 40l35 -70l-80 -40l45 -90q19 -37 28 -81t10.5 -72.5t1.5 -81.5v-105q0 -28 -7 -48.5t-23.5 -32.5t-31 -19.5
t-43 -10.5t-45.5 -3.5t-50 -0.5h-220q-33 0 -50 0.5t-45.5 3.5t-43 10.5t-31 19.5t-23.5 32.5t-7 48.5zM220 105q0 -14 8.5 -21t16.5 -8t25 -1h200q17 0 25 1t16.5 8t8.5 21v165q0 30 -50 30h-200q-17 0 -25 -1t-16.5 -8t-8.5 -21v-165z" />
    <glyph glyph-name="ntilde" unicode="&#xf1;" 
d="M275 700q21 0 37 -4.5t58 -25.5q60 -30 70 -30q9 0 14 2t12 16t14 42h100q-17 -73 -49 -106.5t-66 -33.5q-21 0 -37 4.5t-58 25.5q-60 30 -70 30q-9 0 -14 -2t-12 -16t-14 -42h-100q17 73 49 106.5t66 33.5zM60 0v480h420q33 0 50 -0.5t45.5 -3.5t43 -10.5t31 -19.5
t23.5 -32.5t7 -48.5v-365h-160v355q0 14 -8.5 21t-16.5 8t-25 1h-250v-385h-160z" />
    <glyph glyph-name="ograve" unicode="&#xf2;" 
d="M200 710h170l100 -160h-110zM60 115v250q0 28 7 48.5t23.5 32.5t31 19.5t43 10.5t45.5 3.5t50 0.5h220q33 0 50 -0.5t45.5 -3.5t43 -10.5t31 -19.5t23.5 -32.5t7 -48.5v-250q0 -28 -7 -48.5t-23.5 -32.5t-31 -19.5t-43 -10.5t-45.5 -3.5t-50 -0.5h-220q-33 0 -50 0.5
t-45.5 3.5t-43 10.5t-31 19.5t-23.5 32.5t-7 48.5zM220 125q0 -14 8.5 -21t16.5 -8t25 -1h200q17 0 25 1t16.5 8t8.5 21v230q0 14 -8.5 21t-16.5 8t-25 1h-200q-17 0 -25 -1t-16.5 -8t-8.5 -21v-230z" />
    <glyph glyph-name="oacute" unicode="&#xf3;" 
d="M270 550l100 160h170l-160 -160h-110zM60 115v250q0 28 7 48.5t23.5 32.5t31 19.5t43 10.5t45.5 3.5t50 0.5h220q33 0 50 -0.5t45.5 -3.5t43 -10.5t31 -19.5t23.5 -32.5t7 -48.5v-250q0 -28 -7 -48.5t-23.5 -32.5t-31 -19.5t-43 -10.5t-45.5 -3.5t-50 -0.5h-220
q-33 0 -50 0.5t-45.5 3.5t-43 10.5t-31 19.5t-23.5 32.5t-7 48.5zM220 125q0 -14 8.5 -21t16.5 -8t25 -1h200q17 0 25 1t16.5 8t8.5 21v230q0 14 -8.5 21t-16.5 8t-25 1h-200q-17 0 -25 -1t-16.5 -8t-8.5 -21v-230z" />
    <glyph glyph-name="ocircumflex" unicode="&#xf4;" 
d="M160 550l150 160h120l150 -160h-120l-90 90l-90 -90h-120zM60 115v250q0 28 7 48.5t23.5 32.5t31 19.5t43 10.5t45.5 3.5t50 0.5h220q33 0 50 -0.5t45.5 -3.5t43 -10.5t31 -19.5t23.5 -32.5t7 -48.5v-250q0 -28 -7 -48.5t-23.5 -32.5t-31 -19.5t-43 -10.5t-45.5 -3.5
t-50 -0.5h-220q-33 0 -50 0.5t-45.5 3.5t-43 10.5t-31 19.5t-23.5 32.5t-7 48.5zM220 125q0 -14 8.5 -21t16.5 -8t25 -1h200q17 0 25 1t16.5 8t8.5 21v230q0 14 -8.5 21t-16.5 8t-25 1h-200q-17 0 -25 -1t-16.5 -8t-8.5 -21v-230z" />
    <glyph glyph-name="otilde" unicode="&#xf5;" 
d="M275 700q21 0 37 -4.5t58 -25.5q60 -30 70 -30q9 0 14 2t12 16t14 42h100q-17 -73 -49 -106.5t-66 -33.5q-21 0 -37 4.5t-58 25.5q-60 30 -70 30q-9 0 -14 -2t-12 -16t-14 -42h-100q17 73 49 106.5t66 33.5zM60 115v250q0 28 7 48.5t23.5 32.5t31 19.5t43 10.5t45.5 3.5
t50 0.5h220q33 0 50 -0.5t45.5 -3.5t43 -10.5t31 -19.5t23.5 -32.5t7 -48.5v-250q0 -28 -7 -48.5t-23.5 -32.5t-31 -19.5t-43 -10.5t-45.5 -3.5t-50 -0.5h-220q-33 0 -50 0.5t-45.5 3.5t-43 10.5t-31 19.5t-23.5 32.5t-7 48.5zM220 125q0 -14 8.5 -21t16.5 -8t25 -1h200
q17 0 25 1t16.5 8t8.5 21v230q0 14 -8.5 21t-16.5 8t-25 1h-200q-17 0 -25 -1t-16.5 -8t-8.5 -21v-230z" />
    <glyph glyph-name="odieresis" unicode="&#xf6;" 
d="M180 575v110h135v-110h-135zM425 575v110h135v-110h-135zM60 115v250q0 28 7 48.5t23.5 32.5t31 19.5t43 10.5t45.5 3.5t50 0.5h220q33 0 50 -0.5t45.5 -3.5t43 -10.5t31 -19.5t23.5 -32.5t7 -48.5v-250q0 -28 -7 -48.5t-23.5 -32.5t-31 -19.5t-43 -10.5t-45.5 -3.5
t-50 -0.5h-220q-33 0 -50 0.5t-45.5 3.5t-43 10.5t-31 19.5t-23.5 32.5t-7 48.5zM220 125q0 -14 8.5 -21t16.5 -8t25 -1h200q17 0 25 1t16.5 8t8.5 21v230q0 14 -8.5 21t-16.5 8t-25 1h-200q-17 0 -25 -1t-16.5 -8t-8.5 -21v-230z" />
    <glyph glyph-name="divide" unicode="&#xf7;" horiz-adv-x="720" 
d="M60 180v120h600v-120h-600zM275 0v120h170v-120h-170zM275 360v120h170v-120h-170z" />
    <glyph glyph-name="oslash" unicode="&#xf8;" horiz-adv-x="820" 
d="M20 94v85l80 21v165q0 28 7 48.5t23.5 32.5t31 19.5t43 10.5t45.5 3.5t50 0.5h220q33 0 50 -0.5t45.5 -3.5t43 -10.5t31 -19.5t23.5 -32.5t7 -48.5l80 21v-85l-80 -21v-165q0 -28 -7 -48.5t-23.5 -32.5t-31 -19.5t-43 -10.5t-45.5 -3.5t-50 -0.5h-220q-33 0 -50 0.5
t-45.5 3.5t-43 10.5t-31 19.5t-23.5 32.5t-7 48.5zM260 125q0 -14 8.5 -21t16.5 -8t25 -1h200q17 0 25 1t16.5 8t8.5 21v112l-300 -79v-33zM260 243l300 79v33q0 14 -8.5 21t-16.5 8t-25 1h-200q-17 0 -25 -1t-16.5 -8t-8.5 -21v-112z" />
    <glyph glyph-name="ugrave" unicode="&#xf9;" 
d="M200 710h170l100 -160h-110zM60 115v365h160v-355q0 -14 8.5 -21t16.5 -8t25 -1h200q17 0 25 1t16.5 8t8.5 21v355h160v-365q0 -28 -7 -48.5t-23.5 -32.5t-31 -19.5t-43 -10.5t-45.5 -3.5t-50 -0.5h-220q-33 0 -50 0.5t-45.5 3.5t-43 10.5t-31 19.5t-23.5 32.5t-7 48.5z
" />
    <glyph glyph-name="uacute" unicode="&#xfa;" 
d="M270 550l100 160h170l-160 -160h-110zM60 115v365h160v-355q0 -14 8.5 -21t16.5 -8t25 -1h200q17 0 25 1t16.5 8t8.5 21v355h160v-365q0 -28 -7 -48.5t-23.5 -32.5t-31 -19.5t-43 -10.5t-45.5 -3.5t-50 -0.5h-220q-33 0 -50 0.5t-45.5 3.5t-43 10.5t-31 19.5t-23.5 32.5
t-7 48.5z" />
    <glyph glyph-name="ucircumflex" unicode="&#xfb;" 
d="M160 550l150 160h120l150 -160h-120l-90 90l-90 -90h-120zM60 115v365h160v-355q0 -14 8.5 -21t16.5 -8t25 -1h200q17 0 25 1t16.5 8t8.5 21v355h160v-365q0 -28 -7 -48.5t-23.5 -32.5t-31 -19.5t-43 -10.5t-45.5 -3.5t-50 -0.5h-220q-33 0 -50 0.5t-45.5 3.5t-43 10.5
t-31 19.5t-23.5 32.5t-7 48.5z" />
    <glyph glyph-name="udieresis" unicode="&#xfc;" 
d="M180 575v110h135v-110h-135zM425 575v110h135v-110h-135zM60 115v365h160v-355q0 -14 8.5 -21t16.5 -8t25 -1h200q17 0 25 1t16.5 8t8.5 21v355h160v-365q0 -28 -7 -48.5t-23.5 -32.5t-31 -19.5t-43 -10.5t-45.5 -3.5t-50 -0.5h-220q-33 0 -50 0.5t-45.5 3.5t-43 10.5
t-31 19.5t-23.5 32.5t-7 48.5z" />
    <glyph glyph-name="yacute" unicode="&#xfd;" horiz-adv-x="720" 
d="M260 550l100 160h170l-160 -160h-110zM20 480h170l170 -340l170 340h170l-300 -600q-19 -37 -32 -55.5t-43 -34t-75 -15.5h-170v95h100q32 0 42.5 7.5t22.5 32.5l30 60z" />
    <glyph glyph-name="thorn" unicode="&#xfe;" 
d="M60 -225v885h160v-180h260q33 0 50 -0.5t45.5 -3.5t43 -10.5t31 -19.5t23.5 -32.5t7 -48.5v-250q0 -28 -7 -48.5t-23.5 -32.5t-31 -19.5t-43 -10.5t-45.5 -3.5t-50 -0.5h-260v-225h-160zM220 95h250q17 0 25 1t16.5 8t8.5 21v230q0 14 -8.5 21t-16.5 8t-25 1h-250v-290z
" />
    <glyph glyph-name="ydieresis" unicode="&#xff;" horiz-adv-x="720" 
d="M170 575v110h135v-110h-135zM415 575v110h135v-110h-135zM20 480h170l170 -340l170 340h170l-300 -600q-19 -37 -32 -55.5t-43 -34t-75 -15.5h-170v95h100q32 0 42.5 7.5t22.5 32.5l30 60z" />
    <glyph glyph-name="Amacron" unicode="&#x100;" horiz-adv-x="930" 
d="M285 755v95h360v-95h-360zM20 0l330 660h230l330 -660h-180l-95 190h-340l-95 -190h-180zM350 300h230l-115 230z" />
    <glyph glyph-name="amacron" unicode="&#x101;" 
d="M190 575v95h360v-95h-360zM60 115v70q0 28 7 48.5t23.5 32.5t31 19.5t43 10.5t45.5 3.5t50 0.5h260v55q0 14 -8.5 21t-16.5 8t-25 1h-370v95h380q33 0 50 -0.5t45.5 -3.5t43 -10.5t31 -19.5t23.5 -32.5t7 -48.5v-365h-420q-33 0 -50 0.5t-45.5 3.5t-43 10.5t-31 19.5
t-23.5 32.5t-7 48.5zM220 125q0 -14 8.5 -21t16.5 -8t25 -1h250v110h-250q-17 0 -25 -1t-16.5 -8t-8.5 -21v-50z" />
    <glyph glyph-name="Abreve" unicode="&#x102;" horiz-adv-x="930" 
d="M295 890h95q0 -31 22 -53t53 -22t53 22t22 53h95q0 -66 -50 -113t-120 -47t-120 47t-50 113zM20 0l330 660h230l330 -660h-180l-95 190h-340l-95 -190h-180zM350 300h230l-115 230z" />
    <glyph glyph-name="abreve" unicode="&#x103;" 
d="M200 710h95q0 -31 22 -53t53 -22t53 22t22 53h95q0 -66 -50 -113t-120 -47t-120 47t-50 113zM60 115v70q0 28 7 48.5t23.5 32.5t31 19.5t43 10.5t45.5 3.5t50 0.5h260v55q0 14 -8.5 21t-16.5 8t-25 1h-370v95h380q33 0 50 -0.5t45.5 -3.5t43 -10.5t31 -19.5t23.5 -32.5
t7 -48.5v-365h-420q-33 0 -50 0.5t-45.5 3.5t-43 10.5t-31 19.5t-23.5 32.5t-7 48.5zM220 125q0 -14 8.5 -21t16.5 -8t25 -1h250v110h-250q-17 0 -25 -1t-16.5 -8t-8.5 -21v-50z" />
    <glyph glyph-name="Aogonek" unicode="&#x104;" horiz-adv-x="930" 
d="M640 -135q0 29 17.5 54.5t72.5 80.5h115q-53 -53 -69 -76t-16 -39q0 -40 70 -40h15v-70h-45q-47 0 -78.5 5t-56.5 26t-25 59zM20 0l330 660h230l330 -660h-180l-95 190h-340l-95 -190h-180zM350 300h230l-115 230z" />
    <glyph glyph-name="aogonek" unicode="&#x105;" 
d="M430 -135q0 29 17.5 54.5t72.5 80.5h115q-53 -53 -69 -76t-16 -39q0 -40 70 -40h15v-70h-45q-47 0 -78.5 5t-56.5 26t-25 59zM60 115v70q0 28 7 48.5t23.5 32.5t31 19.5t43 10.5t45.5 3.5t50 0.5h260v55q0 14 -8.5 21t-16.5 8t-25 1h-370v95h380q33 0 50 -0.5t45.5 -3.5
t43 -10.5t31 -19.5t23.5 -32.5t7 -48.5v-365h-420q-33 0 -50 0.5t-45.5 3.5t-43 10.5t-31 19.5t-23.5 32.5t-7 48.5zM220 125q0 -14 8.5 -21t16.5 -8t25 -1h250v110h-250q-17 0 -25 -1t-16.5 -8t-8.5 -21v-50z" />
    <glyph glyph-name="Cacute" unicode="&#x106;" horiz-adv-x="880" 
d="M340 730l100 160h170l-160 -160h-110zM70 135v390q0 22 4.5 40t11.5 31.5t20 23.5t24 17t31 11.5t33 6.5t37.5 3.5t38 1.5h40.5h500v-110h-510q-20 0 -30 -1t-20 -9.5t-10 -24.5v-370q0 -16 10 -24.5t20 -9.5t30 -1h510v-110h-500h-40.5t-38 1.5t-37.5 3.5t-33 6.5
t-31 11.5t-24 17t-20 23.5t-11.5 31.5t-4.5 40z" />
    <glyph glyph-name="cacute" unicode="&#x107;" horiz-adv-x="700" 
d="M250 550l100 160h170l-160 -160h-110zM60 115v250q0 28 7 48.5t23.5 32.5t31 19.5t43 10.5t45.5 3.5t50 0.5h380v-95h-370q-17 0 -25 -1t-16.5 -8t-8.5 -21v-230q0 -14 8.5 -21t16.5 -8t25 -1h370v-95h-380q-33 0 -50 0.5t-45.5 3.5t-43 10.5t-31 19.5t-23.5 32.5
t-7 48.5z" />
    <glyph glyph-name="Ccircumflex" unicode="&#x108;" horiz-adv-x="880" 
d="M230 730l150 160h120l150 -160h-120l-90 90l-90 -90h-120zM70 135v390q0 22 4.5 40t11.5 31.5t20 23.5t24 17t31 11.5t33 6.5t37.5 3.5t38 1.5h40.5h500v-110h-510q-20 0 -30 -1t-20 -9.5t-10 -24.5v-370q0 -16 10 -24.5t20 -9.5t30 -1h510v-110h-500h-40.5t-38 1.5
t-37.5 3.5t-33 6.5t-31 11.5t-24 17t-20 23.5t-11.5 31.5t-4.5 40z" />
    <glyph glyph-name="ccircumflex" unicode="&#x109;" horiz-adv-x="700" 
d="M140 550l150 160h120l150 -160h-120l-90 90l-90 -90h-120zM60 115v250q0 28 7 48.5t23.5 32.5t31 19.5t43 10.5t45.5 3.5t50 0.5h380v-95h-370q-17 0 -25 -1t-16.5 -8t-8.5 -21v-230q0 -14 8.5 -21t16.5 -8t25 -1h370v-95h-380q-33 0 -50 0.5t-45.5 3.5t-43 10.5
t-31 19.5t-23.5 32.5t-7 48.5z" />
    <glyph glyph-name="Cdotaccent" unicode="&#x10a;" horiz-adv-x="880" 
d="M375 755v110h130v-110h-130zM70 135v390q0 22 4.5 40t11.5 31.5t20 23.5t24 17t31 11.5t33 6.5t37.5 3.5t38 1.5h40.5h500v-110h-510q-20 0 -30 -1t-20 -9.5t-10 -24.5v-370q0 -16 10 -24.5t20 -9.5t30 -1h510v-110h-500h-40.5t-38 1.5t-37.5 3.5t-33 6.5t-31 11.5
t-24 17t-20 23.5t-11.5 31.5t-4.5 40z" />
    <glyph glyph-name="cdotaccent" unicode="&#x10b;" horiz-adv-x="700" 
d="M285 575v110h130v-110h-130zM60 115v250q0 28 7 48.5t23.5 32.5t31 19.5t43 10.5t45.5 3.5t50 0.5h380v-95h-370q-17 0 -25 -1t-16.5 -8t-8.5 -21v-230q0 -14 8.5 -21t16.5 -8t25 -1h370v-95h-380q-33 0 -50 0.5t-45.5 3.5t-43 10.5t-31 19.5t-23.5 32.5t-7 48.5z" />
    <glyph glyph-name="Ccaron" unicode="&#x10c;" horiz-adv-x="880" 
d="M230 890h120l90 -90l90 90h120l-150 -160h-120zM70 135v390q0 22 4.5 40t11.5 31.5t20 23.5t24 17t31 11.5t33 6.5t37.5 3.5t38 1.5h40.5h500v-110h-510q-20 0 -30 -1t-20 -9.5t-10 -24.5v-370q0 -16 10 -24.5t20 -9.5t30 -1h510v-110h-500h-40.5t-38 1.5t-37.5 3.5
t-33 6.5t-31 11.5t-24 17t-20 23.5t-11.5 31.5t-4.5 40z" />
    <glyph glyph-name="ccaron" unicode="&#x10d;" horiz-adv-x="700" 
d="M140 710h120l90 -90l90 90h120l-150 -160h-120zM60 115v250q0 28 7 48.5t23.5 32.5t31 19.5t43 10.5t45.5 3.5t50 0.5h380v-95h-370q-17 0 -25 -1t-16.5 -8t-8.5 -21v-230q0 -14 8.5 -21t16.5 -8t25 -1h370v-95h-380q-33 0 -50 0.5t-45.5 3.5t-43 10.5t-31 19.5
t-23.5 32.5t-7 48.5z" />
    <glyph glyph-name="Dcaron" unicode="&#x10e;" horiz-adv-x="930" 
d="M255 890h120l90 -90l90 90h120l-150 -160h-120zM70 0v660h430q71 0 133 -16.5t114 -51t82.5 -95.5t30.5 -142v-45q0 -81 -30.5 -143t-82.5 -97t-114.5 -52.5t-132.5 -17.5h-430zM240 110h210q240 0 240 200v45q0 200 -240 200h-210v-445z" />
    <glyph glyph-name="dcaron" unicode="&#x10f;" horiz-adv-x="920" 
d="M720 460l50 200h130l-80 -200h-100zM60 115v250q0 28 7 48.5t23.5 32.5t31 19.5t43 10.5t45.5 3.5t50 0.5h260v180h160v-660h-420q-33 0 -50 0.5t-45.5 3.5t-43 10.5t-31 19.5t-23.5 32.5t-7 48.5zM220 125q0 -14 8.5 -21t16.5 -8t25 -1h250v290h-250q-17 0 -25 -1
t-16.5 -8t-8.5 -21v-230z" />
    <glyph glyph-name="Dcroat" unicode="&#x110;" horiz-adv-x="960" 
d="M270 110h210q240 0 240 200v45q0 200 -240 200h-210v-145h225v-95h-225v-205zM100 315h-80v95h80v250h430q71 0 133 -16.5t114 -51t82.5 -95.5t30.5 -142v-45q0 -81 -30.5 -143t-82.5 -97t-114.5 -52.5t-132.5 -17.5h-430v315z" />
    <glyph glyph-name="dcroat" unicode="&#x111;" horiz-adv-x="760" 
d="M60 115v250q0 28 7 48.5t23.5 32.5t31 19.5t43 10.5t45.5 3.5t50 0.5h260v55h-150v80h150v45h160v-45h60v-80h-60v-535h-420q-33 0 -50 0.5t-45.5 3.5t-43 10.5t-31 19.5t-23.5 32.5t-7 48.5zM220 125q0 -14 8.5 -21t16.5 -8t25 -1h250v290h-250q-17 0 -25 -1t-16.5 -8
t-8.5 -21v-230z" />
    <glyph glyph-name="Emacron" unicode="&#x112;" horiz-adv-x="880" 
d="M260 755v95h360v-95h-360zM70 0v660h740v-110h-570v-135h520v-110h-520v-195h570v-110h-740z" />
    <glyph glyph-name="emacron" unicode="&#x113;" 
d="M190 575v95h360v-95h-360zM60 115v250q0 28 7 48.5t23.5 32.5t31 19.5t43 10.5t45.5 3.5t50 0.5h220q33 0 50 -0.5t45.5 -3.5t43 -10.5t31 -19.5t23.5 -32.5t7 -48.5v-160h-460v-80q0 -14 8.5 -21t16.5 -8t25 -1h390v-95h-400q-33 0 -50 0.5t-45.5 3.5t-43 10.5t-31 19.5
t-23.5 32.5t-7 48.5zM220 300h300v55q0 14 -8.5 21t-16.5 8t-25 1h-200q-17 0 -25 -1t-16.5 -8t-8.5 -21v-55z" />
    <glyph glyph-name="Ebreve" unicode="&#x114;" horiz-adv-x="880" 
d="M270 890h95q0 -31 22 -53t53 -22t53 22t22 53h95q0 -66 -50 -113t-120 -47t-120 47t-50 113zM70 0v660h740v-110h-570v-135h520v-110h-520v-195h570v-110h-740z" />
    <glyph glyph-name="ebreve" unicode="&#x115;" 
d="M200 710h95q0 -31 22 -53t53 -22t53 22t22 53h95q0 -66 -50 -113t-120 -47t-120 47t-50 113zM60 115v250q0 28 7 48.5t23.5 32.5t31 19.5t43 10.5t45.5 3.5t50 0.5h220q33 0 50 -0.5t45.5 -3.5t43 -10.5t31 -19.5t23.5 -32.5t7 -48.5v-160h-460v-80q0 -14 8.5 -21
t16.5 -8t25 -1h390v-95h-400q-33 0 -50 0.5t-45.5 3.5t-43 10.5t-31 19.5t-23.5 32.5t-7 48.5zM220 300h300v55q0 14 -8.5 21t-16.5 8t-25 1h-200q-17 0 -25 -1t-16.5 -8t-8.5 -21v-55z" />
    <glyph glyph-name="Edotaccent" unicode="&#x116;" horiz-adv-x="880" 
d="M375 755v110h130v-110h-130zM70 0v660h740v-110h-570v-135h520v-110h-520v-195h570v-110h-740z" />
    <glyph glyph-name="edotaccent" unicode="&#x117;" 
d="M305 575v110h130v-110h-130zM60 115v250q0 28 7 48.5t23.5 32.5t31 19.5t43 10.5t45.5 3.5t50 0.5h220q33 0 50 -0.5t45.5 -3.5t43 -10.5t31 -19.5t23.5 -32.5t7 -48.5v-160h-460v-80q0 -14 8.5 -21t16.5 -8t25 -1h390v-95h-400q-33 0 -50 0.5t-45.5 3.5t-43 10.5
t-31 19.5t-23.5 32.5t-7 48.5zM220 300h300v55q0 14 -8.5 21t-16.5 8t-25 1h-200q-17 0 -25 -1t-16.5 -8t-8.5 -21v-55z" />
    <glyph glyph-name="Eogonek" unicode="&#x118;" horiz-adv-x="880" 
d="M605 -135q0 29 17.5 54.5t72.5 80.5h115q-53 -53 -69 -76t-16 -39q0 -40 70 -40h15v-70h-45q-47 0 -78.5 5t-56.5 26t-25 59zM70 0v660h740v-110h-570v-135h520v-110h-520v-195h570v-110h-740z" />
    <glyph glyph-name="eogonek" unicode="&#x119;" 
d="M455 -135q0 29 17.5 54.5t72.5 80.5h115q-53 -53 -69 -76t-16 -39q0 -40 70 -40h15v-70h-45q-47 0 -78.5 5t-56.5 26t-25 59zM60 115v250q0 28 7 48.5t23.5 32.5t31 19.5t43 10.5t45.5 3.5t50 0.5h220q33 0 50 -0.5t45.5 -3.5t43 -10.5t31 -19.5t23.5 -32.5t7 -48.5v-160
h-460v-80q0 -14 8.5 -21t16.5 -8t25 -1h390v-95h-400q-33 0 -50 0.5t-45.5 3.5t-43 10.5t-31 19.5t-23.5 32.5t-7 48.5zM220 300h300v55q0 14 -8.5 21t-16.5 8t-25 1h-200q-17 0 -25 -1t-16.5 -8t-8.5 -21v-55z" />
    <glyph glyph-name="Ecaron" unicode="&#x11a;" horiz-adv-x="880" 
d="M230 890h120l90 -90l90 90h120l-150 -160h-120zM70 0v660h740v-110h-570v-135h520v-110h-520v-195h570v-110h-740z" />
    <glyph glyph-name="ecaron" unicode="&#x11b;" 
d="M160 710h120l90 -90l90 90h120l-150 -160h-120zM60 115v250q0 28 7 48.5t23.5 32.5t31 19.5t43 10.5t45.5 3.5t50 0.5h220q33 0 50 -0.5t45.5 -3.5t43 -10.5t31 -19.5t23.5 -32.5t7 -48.5v-160h-460v-80q0 -14 8.5 -21t16.5 -8t25 -1h390v-95h-400q-33 0 -50 0.5
t-45.5 3.5t-43 10.5t-31 19.5t-23.5 32.5t-7 48.5zM220 300h300v55q0 14 -8.5 21t-16.5 8t-25 1h-200q-17 0 -25 -1t-16.5 -8t-8.5 -21v-55z" />
    <glyph glyph-name="Gcircumflex" unicode="&#x11c;" horiz-adv-x="930" 
d="M255 730l150 160h120l150 -160h-120l-90 90l-90 -90h-120zM70 135v390q0 22 4.5 40t11.5 31.5t20 23.5t24 17t31 11.5t33 6.5t37.5 3.5t38 1.5h40.5h500v-110h-510q-20 0 -30 -1t-20 -9.5t-10 -24.5v-370q0 -16 10 -24.5t20 -9.5t30 -1h330q20 0 30 1t20 9.5t10 24.5v160
h-150v110h320v-280q0 -22 -4.5 -40t-11.5 -31.5t-20 -23.5t-24 -17t-31 -11.5t-33 -6.5t-37.5 -3.5t-38 -1.5h-40.5h-310h-40.5t-38 1.5t-37.5 3.5t-33 6.5t-31 11.5t-24 17t-20 23.5t-11.5 31.5t-4.5 40z" />
    <glyph glyph-name="gcircumflex" unicode="&#x11d;" 
d="M160 550l150 160h120l150 -160h-120l-90 90l-90 -90h-120zM60 115v250q0 28 7 48.5t23.5 32.5t31 19.5t43 10.5t45.5 3.5t50 0.5h420v-605q0 -24 -7 -42t-23.5 -28.5t-31 -17t-43 -9t-45.5 -3t-50 -0.5h-400v95h390q17 0 25 1t16.5 6.5t8.5 17.5v105h-260q-33 0 -50 0.5
t-45.5 3.5t-43 10.5t-31 19.5t-23.5 32.5t-7 48.5zM220 125q0 -14 8.5 -21t16.5 -8t25 -1h250v290h-250q-17 0 -25 -1t-16.5 -8t-8.5 -21v-230z" />
    <glyph glyph-name="Gbreve" unicode="&#x11e;" horiz-adv-x="930" 
d="M295 890h95q0 -31 22 -53t53 -22t53 22t22 53h95q0 -66 -50 -113t-120 -47t-120 47t-50 113zM70 135v390q0 22 4.5 40t11.5 31.5t20 23.5t24 17t31 11.5t33 6.5t37.5 3.5t38 1.5h40.5h500v-110h-510q-20 0 -30 -1t-20 -9.5t-10 -24.5v-370q0 -16 10 -24.5t20 -9.5t30 -1
h330q20 0 30 1t20 9.5t10 24.5v160h-150v110h320v-280q0 -22 -4.5 -40t-11.5 -31.5t-20 -23.5t-24 -17t-31 -11.5t-33 -6.5t-37.5 -3.5t-38 -1.5h-40.5h-310h-40.5t-38 1.5t-37.5 3.5t-33 6.5t-31 11.5t-24 17t-20 23.5t-11.5 31.5t-4.5 40z" />
    <glyph glyph-name="gbreve" unicode="&#x11f;" 
d="M200 710h95q0 -31 22 -53t53 -22t53 22t22 53h95q0 -66 -50 -113t-120 -47t-120 47t-50 113zM60 115v250q0 28 7 48.5t23.5 32.5t31 19.5t43 10.5t45.5 3.5t50 0.5h420v-605q0 -24 -7 -42t-23.5 -28.5t-31 -17t-43 -9t-45.5 -3t-50 -0.5h-400v95h390q17 0 25 1t16.5 6.5
t8.5 17.5v105h-260q-33 0 -50 0.5t-45.5 3.5t-43 10.5t-31 19.5t-23.5 32.5t-7 48.5zM220 125q0 -14 8.5 -21t16.5 -8t25 -1h250v290h-250q-17 0 -25 -1t-16.5 -8t-8.5 -21v-230z" />
    <glyph glyph-name="Gdotaccent" unicode="&#x120;" horiz-adv-x="930" 
d="M400 755v110h130v-110h-130zM70 135v390q0 22 4.5 40t11.5 31.5t20 23.5t24 17t31 11.5t33 6.5t37.5 3.5t38 1.5h40.5h500v-110h-510q-20 0 -30 -1t-20 -9.5t-10 -24.5v-370q0 -16 10 -24.5t20 -9.5t30 -1h330q20 0 30 1t20 9.5t10 24.5v160h-150v110h320v-280
q0 -22 -4.5 -40t-11.5 -31.5t-20 -23.5t-24 -17t-31 -11.5t-33 -6.5t-37.5 -3.5t-38 -1.5h-40.5h-310h-40.5t-38 1.5t-37.5 3.5t-33 6.5t-31 11.5t-24 17t-20 23.5t-11.5 31.5t-4.5 40z" />
    <glyph glyph-name="gdotaccent" unicode="&#x121;" 
d="M305 575v110h130v-110h-130zM60 115v250q0 28 7 48.5t23.5 32.5t31 19.5t43 10.5t45.5 3.5t50 0.5h420v-605q0 -24 -7 -42t-23.5 -28.5t-31 -17t-43 -9t-45.5 -3t-50 -0.5h-400v95h390q17 0 25 1t16.5 6.5t8.5 17.5v105h-260q-33 0 -50 0.5t-45.5 3.5t-43 10.5t-31 19.5
t-23.5 32.5t-7 48.5zM220 125q0 -14 8.5 -21t16.5 -8t25 -1h250v290h-250q-17 0 -25 -1t-16.5 -8t-8.5 -21v-230z" />
    <glyph glyph-name="Gcommaaccent" unicode="&#x122;" horiz-adv-x="930" 
d="M370 -225l40 155h140l-70 -155h-110zM70 135v390q0 22 4.5 40t11.5 31.5t20 23.5t24 17t31 11.5t33 6.5t37.5 3.5t38 1.5h40.5h500v-110h-510q-20 0 -30 -1t-20 -9.5t-10 -24.5v-370q0 -16 10 -24.5t20 -9.5t30 -1h330q20 0 30 1t20 9.5t10 24.5v160h-150v110h320v-280
q0 -22 -4.5 -40t-11.5 -31.5t-20 -23.5t-24 -17t-31 -11.5t-33 -6.5t-37.5 -3.5t-38 -1.5h-40.5h-310h-40.5t-38 1.5t-37.5 3.5t-33 6.5t-31 11.5t-24 17t-20 23.5t-11.5 31.5t-4.5 40z" />
    <glyph glyph-name="gcommaaccent" unicode="&#x123;" 
d="M300 550l100 250h100l-50 -250h-150zM60 115v250q0 28 7 48.5t23.5 32.5t31 19.5t43 10.5t45.5 3.5t50 0.5h420v-605q0 -24 -7 -42t-23.5 -28.5t-31 -17t-43 -9t-45.5 -3t-50 -0.5h-400v95h390q17 0 25 1t16.5 6.5t8.5 17.5v105h-260q-33 0 -50 0.5t-45.5 3.5t-43 10.5
t-31 19.5t-23.5 32.5t-7 48.5zM220 125q0 -14 8.5 -21t16.5 -8t25 -1h250v290h-250q-17 0 -25 -1t-16.5 -8t-8.5 -21v-230z" />
    <glyph glyph-name="Hcircumflex" unicode="&#x124;" horiz-adv-x="930" 
d="M255 730l150 160h120l150 -160h-120l-90 90l-90 -90h-120zM70 0v660h170v-245h450v245h170v-660h-170v305h-450v-305h-170z" />
    <glyph glyph-name="hcircumflex" unicode="&#x125;" 
d="M160 730l150 160h120l150 -160h-120l-90 90l-90 -90h-120zM60 0v660h160v-180h260q33 0 50 -0.5t45.5 -3.5t43 -10.5t31 -19.5t23.5 -32.5t7 -48.5v-365h-160v355q0 14 -8.5 21t-16.5 8t-25 1h-250v-385h-160z" />
    <glyph glyph-name="Hbar" unicode="&#x126;" horiz-adv-x="990" 
d="M20 500v95h80v65h170v-65h450v65h170v-65h80v-95h-80v-500h-170v305h-450v-305h-170v500h-80zM270 415h450v85h-450v-85z" />
    <glyph glyph-name="hbar" unicode="&#x127;" horiz-adv-x="760" 
d="M20 535v80h60v45h160v-45h150v-80h-150v-55h260q33 0 50 -0.5t45.5 -3.5t43 -10.5t31 -19.5t23.5 -32.5t7 -48.5v-365h-160v355q0 14 -8.5 21t-16.5 8t-25 1h-250v-385h-160v535h-60z" />
    <glyph glyph-name="Itilde" unicode="&#x128;" horiz-adv-x="340" 
d="M75 880q21 0 37 -4.5t58 -25.5q60 -30 70 -30q9 0 14 2t12 16t14 42h100q-17 -73 -49 -106.5t-66 -33.5q-21 0 -37 4.5t-58 25.5q-60 30 -70 30q-9 0 -14 -2t-12 -16t-14 -42h-100q17 73 49 106.5t66 33.5zM85 0v660h170v-660h-170z" />
    <glyph glyph-name="itilde" unicode="&#x129;" horiz-adv-x="340" 
d="M75 700q21 0 37 -4.5t58 -25.5q60 -30 70 -30q9 0 14 2t12 16t14 42h100q-17 -73 -49 -106.5t-66 -33.5q-21 0 -37 4.5t-58 25.5q-60 30 -70 30q-9 0 -14 -2t-12 -16t-14 -42h-100q17 73 49 106.5t66 33.5zM90 0v480h160v-480h-160z" />
    <glyph glyph-name="Imacron" unicode="&#x12a;" horiz-adv-x="340" 
d="M-10 755v95h360v-95h-360zM85 0v660h170v-660h-170z" />
    <glyph glyph-name="imacron" unicode="&#x12b;" horiz-adv-x="340" 
d="M-10 575v95h360v-95h-360zM90 0v480h160v-480h-160z" />
    <glyph glyph-name="Ibreve" unicode="&#x12c;" horiz-adv-x="310" 
d="M-15 890h95q0 -31 22 -53t53 -22t53 22t22 53h95q0 -66 -50 -113t-120 -47t-120 47t-50 113zM70 0v660h170v-660h-170z" />
    <glyph glyph-name="ibreve" unicode="&#x12d;" horiz-adv-x="300" 
d="M-20 710h95q0 -31 22 -53t53 -22t53 22t22 53h95q0 -66 -50 -113t-120 -47t-120 47t-50 113zM70 0v480h160v-480h-160z" />
    <glyph glyph-name="Iogonek" unicode="&#x12e;" horiz-adv-x="310" 
d="M35 -135q0 29 17.5 54.5t72.5 80.5h115q-53 -53 -69 -76t-16 -39q0 -40 70 -40h15v-70h-45q-47 0 -78.5 5t-56.5 26t-25 59zM70 0v660h170v-660h-170z" />
    <glyph glyph-name="iogonek" unicode="&#x12f;" horiz-adv-x="280" 
d="M15 -135q0 29 17.5 54.5t72.5 80.5h115q-53 -53 -69 -76t-16 -39q0 -40 70 -40h15v-70h-45q-47 0 -78.5 5t-56.5 26t-25 59zM60 0v480h160v-480h-160zM60 565v95h160v-95h-160z" />
    <glyph glyph-name="Idotaccent" unicode="&#x130;" horiz-adv-x="310" 
d="M90 755v110h130v-110h-130zM70 0v660h170v-660h-170z" />
    <glyph glyph-name="dotlessi" unicode="&#x131;" horiz-adv-x="280" 
d="M60 0v480h160v-480h-160z" />
    <glyph glyph-name="IJ" unicode="&#x132;" horiz-adv-x="1210" 
d="M350 135v120h170v-110q0 -16 10 -24.5t20 -9.5t30 -1h330q20 0 30 1t20 9.5t10 24.5v515h170v-525q0 -22 -4.5 -40t-11.5 -31.5t-20 -23.5t-24 -17t-31 -11.5t-33 -6.5t-37.5 -3.5t-38 -1.5h-40.5h-310h-40.5t-38 1.5t-37.5 3.5t-33 6.5t-31 11.5t-24 17t-20 23.5
t-11.5 31.5t-4.5 40zM70 0v660h170v-660h-170z" />
    <glyph glyph-name="ij" unicode="&#x133;" horiz-adv-x="540" 
d="M210 -130q110 18 110 130v480h160v-480q0 -42 -10.5 -76.5t-26.5 -57t-41.5 -39.5t-47 -26t-52 -15t-49 -8t-43.5 -3v95zM320 565v95h160v-95h-160zM60 0v480h160v-480h-160zM60 565v95h160v-95h-160z" />
    <glyph glyph-name="Jcircumflex" unicode="&#x134;" horiz-adv-x="930" 
d="M565 730l150 160h120l150 -160h-120l-90 90l-90 -90h-120zM70 135v120h170v-110q0 -16 10 -24.5t20 -9.5t30 -1h330q20 0 30 1t20 9.5t10 24.5v515h170v-525q0 -22 -4.5 -40t-11.5 -31.5t-20 -23.5t-24 -17t-31 -11.5t-33 -6.5t-37.5 -3.5t-38 -1.5h-40.5h-310h-40.5
t-38 1.5t-37.5 3.5t-33 6.5t-31 11.5t-24 17t-20 23.5t-11.5 31.5t-4.5 40z" />
    <glyph glyph-name="jcircumflex" unicode="&#x135;" horiz-adv-x="340" 
d="M-40 550l150 160h120l150 -160h-120l-90 90l-90 -90h-120zM-20 -130q110 18 110 130v480h160v-480q0 -42 -10.5 -76.5t-26.5 -57t-41.5 -39.5t-47 -26t-52 -15t-49 -8t-43.5 -3v95z" />
    <glyph glyph-name="Kcommaaccent" unicode="&#x136;" horiz-adv-x="860" 
d="M335 -225l40 155h140l-70 -155h-110zM70 0v660h170v-350l350 350h210l-310 -310l350 -350h-210l-245 245l-145 -145v-100h-170z" />
    <glyph glyph-name="kcommaaccent" unicode="&#x137;" horiz-adv-x="670" 
d="M240 -225l40 155h140l-70 -155h-110zM60 0v660h160v-400l220 220h190l-230 -230l250 -250h-190l-155 155l-85 -85v-70h-160z" />
    <glyph glyph-name="kgreenlandic" unicode="&#x138;" horiz-adv-x="670" 
d="M60 0v480h160v-220l220 220h190l-230 -230l250 -250h-190l-155 155l-85 -85v-70h-160z" />
    <glyph glyph-name="Lacute" unicode="&#x139;" horiz-adv-x="840" 
d="M320 730l100 160h170l-160 -160h-110zM70 0v660h170v-550h570v-110h-740z" />
    <glyph glyph-name="lacute" unicode="&#x13a;" horiz-adv-x="280" 
d="M10 730l100 160h170l-160 -160h-110zM60 0v660h160v-660h-160z" />
    <glyph glyph-name="Lcommaaccent" unicode="&#x13b;" horiz-adv-x="840" 
d="M325 -225l40 155h140l-70 -155h-110zM70 0v660h170v-550h570v-110h-740z" />
    <glyph glyph-name="lcommaaccent" unicode="&#x13c;" horiz-adv-x="280" 
d="M30 -225l40 155h140l-70 -155h-110zM60 0v660h160v-660h-160z" />
    <glyph glyph-name="Lcaron" unicode="&#x13d;" horiz-adv-x="840" 
d="M460 460l50 200h130l-80 -200h-100zM70 0v660h170v-550h570v-110h-740z" />
    <glyph glyph-name="lcaron" unicode="&#x13e;" horiz-adv-x="480" 
d="M280 460l50 200h130l-80 -200h-100zM60 0v660h160v-660h-160z" />
    <glyph glyph-name="Ldot" unicode="&#x13f;" horiz-adv-x="840" 
d="M400 290v140h170v-140h-170zM70 0v660h170v-550h570v-110h-740z" />
    <glyph glyph-name="ldot" unicode="&#x140;" horiz-adv-x="550" 
d="M320 290v140h170v-140h-170zM60 0v660h160v-660h-160z" />
    <glyph glyph-name="Lslash" unicode="&#x141;" horiz-adv-x="890" 
d="M20 210v110l100 50v290h170v-205l200 100v-110l-200 -100v-235h570v-110h-740v260z" />
    <glyph glyph-name="lslash" unicode="&#x142;" horiz-adv-x="400" 
d="M20 220v90l100 50v300h160v-220l100 50v-90l-100 -50v-350h-160v270z" />
    <glyph glyph-name="Nacute" unicode="&#x143;" horiz-adv-x="930" 
d="M365 730l100 160h170l-160 -160h-110zM70 0v660h190l430 -470v470h170v-660h-190l-430 470v-470h-170z" />
    <glyph glyph-name="nacute" unicode="&#x144;" 
d="M270 550l100 160h170l-160 -160h-110zM60 0v480h420q33 0 50 -0.5t45.5 -3.5t43 -10.5t31 -19.5t23.5 -32.5t7 -48.5v-365h-160v355q0 14 -8.5 21t-16.5 8t-25 1h-250v-385h-160z" />
    <glyph glyph-name="Ncommaaccent" unicode="&#x145;" horiz-adv-x="930" 
d="M370 -225l40 155h140l-70 -155h-110zM70 0v660h190l430 -470v470h170v-660h-190l-430 470v-470h-170z" />
    <glyph glyph-name="ncommaaccent" unicode="&#x146;" 
d="M275 -225l40 155h140l-70 -155h-110zM60 0v480h420q33 0 50 -0.5t45.5 -3.5t43 -10.5t31 -19.5t23.5 -32.5t7 -48.5v-365h-160v355q0 14 -8.5 21t-16.5 8t-25 1h-250v-385h-160z" />
    <glyph glyph-name="Ncaron" unicode="&#x147;" horiz-adv-x="930" 
d="M255 890h120l90 -90l90 90h120l-150 -160h-120zM70 0v660h190l430 -470v470h170v-660h-190l-430 470v-470h-170z" />
    <glyph glyph-name="ncaron" unicode="&#x148;" 
d="M160 710h120l90 -90l90 90h120l-150 -160h-120zM60 0v480h420q33 0 50 -0.5t45.5 -3.5t43 -10.5t31 -19.5t23.5 -32.5t7 -48.5v-365h-160v355q0 14 -8.5 21t-16.5 8t-25 1h-250v-385h-160z" />
    <glyph glyph-name="napostrophe" unicode="&#x149;" horiz-adv-x="880" 
d="M200 0v480h420q33 0 50 -0.5t45.5 -3.5t43 -10.5t31 -19.5t23.5 -32.5t7 -48.5v-365h-160v355q0 14 -8.5 21t-16.5 8t-25 1h-250v-385h-160zM20 460l50 200h130l-80 -200h-100z" />
    <glyph glyph-name="Eng" unicode="&#x14a;" horiz-adv-x="930" 
d="M70 0v660h190l430 -470v470h170v-660q0 -77 -44.5 -129t-114 -74t-161.5 -22v110q53 4 91.5 32t38.5 83l-430 470v-470h-170z" />
    <glyph glyph-name="eng" unicode="&#x14b;" 
d="M60 0v480h420q33 0 50 -0.5t45.5 -3.5t43 -10.5t31 -19.5t23.5 -32.5t7 -48.5v-365q0 -42 -10.5 -76.5t-26.5 -57t-41.5 -39.5t-47 -26t-52 -15t-49 -8t-43.5 -3v95q110 18 110 130v355q0 14 -8.5 21t-16.5 8t-25 1h-250v-385h-160z" />
    <glyph glyph-name="Omacron" unicode="&#x14c;" horiz-adv-x="930" 
d="M285 755v95h360v-95h-360zM70 135v390q0 22 4.5 40t11.5 31.5t20 23.5t24 17t31 11.5t33 6.5t37.5 3.5t38 1.5h40.5h310h40.5t38 -1.5t37.5 -3.5t33 -6.5t31 -11.5t24 -17t20 -23.5t11.5 -31.5t4.5 -40v-390q0 -22 -4.5 -40t-11.5 -31.5t-20 -23.5t-24 -17t-31 -11.5
t-33 -6.5t-37.5 -3.5t-38 -1.5h-40.5h-310h-40.5t-38 1.5t-37.5 3.5t-33 6.5t-31 11.5t-24 17t-20 23.5t-11.5 31.5t-4.5 40zM240 145q0 -16 10 -24.5t20 -9.5t30 -1h330q20 0 30 1t20 9.5t10 24.5v370q0 16 -10 24.5t-20 9.5t-30 1h-330q-20 0 -30 -1t-20 -9.5t-10 -24.5
v-370z" />
    <glyph glyph-name="omacron" unicode="&#x14d;" 
d="M190 575v95h360v-95h-360zM60 115v250q0 28 7 48.5t23.5 32.5t31 19.5t43 10.5t45.5 3.5t50 0.5h220q33 0 50 -0.5t45.5 -3.5t43 -10.5t31 -19.5t23.5 -32.5t7 -48.5v-250q0 -28 -7 -48.5t-23.5 -32.5t-31 -19.5t-43 -10.5t-45.5 -3.5t-50 -0.5h-220q-33 0 -50 0.5
t-45.5 3.5t-43 10.5t-31 19.5t-23.5 32.5t-7 48.5zM220 125q0 -14 8.5 -21t16.5 -8t25 -1h200q17 0 25 1t16.5 8t8.5 21v230q0 14 -8.5 21t-16.5 8t-25 1h-200q-17 0 -25 -1t-16.5 -8t-8.5 -21v-230z" />
    <glyph glyph-name="Obreve" unicode="&#x14e;" horiz-adv-x="930" 
d="M295 890h95q0 -31 22 -53t53 -22t53 22t22 53h95q0 -66 -50 -113t-120 -47t-120 47t-50 113zM70 135v390q0 22 4.5 40t11.5 31.5t20 23.5t24 17t31 11.5t33 6.5t37.5 3.5t38 1.5h40.5h310h40.5t38 -1.5t37.5 -3.5t33 -6.5t31 -11.5t24 -17t20 -23.5t11.5 -31.5t4.5 -40
v-390q0 -22 -4.5 -40t-11.5 -31.5t-20 -23.5t-24 -17t-31 -11.5t-33 -6.5t-37.5 -3.5t-38 -1.5h-40.5h-310h-40.5t-38 1.5t-37.5 3.5t-33 6.5t-31 11.5t-24 17t-20 23.5t-11.5 31.5t-4.5 40zM240 145q0 -16 10 -24.5t20 -9.5t30 -1h330q20 0 30 1t20 9.5t10 24.5v370
q0 16 -10 24.5t-20 9.5t-30 1h-330q-20 0 -30 -1t-20 -9.5t-10 -24.5v-370z" />
    <glyph glyph-name="obreve" unicode="&#x14f;" 
d="M200 710h95q0 -31 22 -53t53 -22t53 22t22 53h95q0 -66 -50 -113t-120 -47t-120 47t-50 113zM60 115v250q0 28 7 48.5t23.5 32.5t31 19.5t43 10.5t45.5 3.5t50 0.5h220q33 0 50 -0.5t45.5 -3.5t43 -10.5t31 -19.5t23.5 -32.5t7 -48.5v-250q0 -28 -7 -48.5t-23.5 -32.5
t-31 -19.5t-43 -10.5t-45.5 -3.5t-50 -0.5h-220q-33 0 -50 0.5t-45.5 3.5t-43 10.5t-31 19.5t-23.5 32.5t-7 48.5zM220 125q0 -14 8.5 -21t16.5 -8t25 -1h200q17 0 25 1t16.5 8t8.5 21v230q0 14 -8.5 21t-16.5 8t-25 1h-200q-17 0 -25 -1t-16.5 -8t-8.5 -21v-230z" />
    <glyph glyph-name="Ohungarumlaut" unicode="&#x150;" horiz-adv-x="930" 
d="M265 730l90 160h130l-120 -160h-100zM485 730l90 160h130l-120 -160h-100zM70 135v390q0 22 4.5 40t11.5 31.5t20 23.5t24 17t31 11.5t33 6.5t37.5 3.5t38 1.5h40.5h310h40.5t38 -1.5t37.5 -3.5t33 -6.5t31 -11.5t24 -17t20 -23.5t11.5 -31.5t4.5 -40v-390
q0 -22 -4.5 -40t-11.5 -31.5t-20 -23.5t-24 -17t-31 -11.5t-33 -6.5t-37.5 -3.5t-38 -1.5h-40.5h-310h-40.5t-38 1.5t-37.5 3.5t-33 6.5t-31 11.5t-24 17t-20 23.5t-11.5 31.5t-4.5 40zM240 145q0 -16 10 -24.5t20 -9.5t30 -1h330q20 0 30 1t20 9.5t10 24.5v370
q0 16 -10 24.5t-20 9.5t-30 1h-330q-20 0 -30 -1t-20 -9.5t-10 -24.5v-370z" />
    <glyph glyph-name="ohungarumlaut" unicode="&#x151;" 
d="M170 550l90 160h130l-120 -160h-100zM390 550l90 160h130l-120 -160h-100zM60 115v250q0 28 7 48.5t23.5 32.5t31 19.5t43 10.5t45.5 3.5t50 0.5h220q33 0 50 -0.5t45.5 -3.5t43 -10.5t31 -19.5t23.5 -32.5t7 -48.5v-250q0 -28 -7 -48.5t-23.5 -32.5t-31 -19.5t-43 -10.5
t-45.5 -3.5t-50 -0.5h-220q-33 0 -50 0.5t-45.5 3.5t-43 10.5t-31 19.5t-23.5 32.5t-7 48.5zM220 125q0 -14 8.5 -21t16.5 -8t25 -1h200q17 0 25 1t16.5 8t8.5 21v230q0 14 -8.5 21t-16.5 8t-25 1h-200q-17 0 -25 -1t-16.5 -8t-8.5 -21v-230z" />
    <glyph glyph-name="OE" unicode="&#x152;" horiz-adv-x="1400" 
d="M70 135v390q0 22 4.5 40t11.5 31.5t20 23.5t24 17t31 11.5t33 6.5t37.5 3.5t38 1.5h40.5h1020v-110h-520v-135h470v-110h-470v-195h520v-110h-1020h-40.5t-38 1.5t-37.5 3.5t-33 6.5t-31 11.5t-24 17t-20 23.5t-11.5 31.5t-4.5 40zM240 145q0 -16 10 -24.5t20 -9.5t30 -1
h280q20 0 30 1t20 9.5t10 24.5v370q0 16 -10 24.5t-20 9.5t-30 1h-280q-20 0 -30 -1t-20 -9.5t-10 -24.5v-370z" />
    <glyph glyph-name="oe" unicode="&#x153;" horiz-adv-x="1200" 
d="M60 115v250q0 28 7 48.5t23.5 32.5t31 19.5t43 10.5t45.5 3.5t50 0.5h680q33 0 50 -0.5t45.5 -3.5t43 -10.5t31 -19.5t23.5 -32.5t7 -48.5v-160h-460v-80q0 -14 8.5 -21t16.5 -8t25 -1h390v-95h-860q-33 0 -50 0.5t-45.5 3.5t-43 10.5t-31 19.5t-23.5 32.5t-7 48.5z
M220 125q0 -14 8.5 -21t16.5 -8t25 -1h200q17 0 25 1t16.5 8t8.5 21v230q0 14 -8.5 21t-16.5 8t-25 1h-200q-17 0 -25 -1t-16.5 -8t-8.5 -21v-230zM680 300h300v55q0 14 -8.5 21t-16.5 8t-25 1h-200q-17 0 -25 -1t-16.5 -8t-8.5 -21v-55z" />
    <glyph glyph-name="Racute" unicode="&#x154;" horiz-adv-x="930" 
d="M365 730l100 160h170l-160 -160h-110zM900 0h-210l-270 270h-180v-270h-170v660h550h40.5t38 -1.5t37.5 -3.5t33 -6.5t31 -11.5t24 -17t20 -23.5t11.5 -31.5t4.5 -40v-120q0 -28 -7.5 -50t-18 -36t-31 -24t-36 -14.5t-44.5 -7t-45 -3t-48 -0.5zM240 380h390q20 0 30 1
t20 9.5t10 24.5v100q0 16 -10 24.5t-20 9.5t-30 1h-390v-170z" />
    <glyph glyph-name="racute" unicode="&#x155;" horiz-adv-x="480" 
d="M140 550l100 160h170l-160 -160h-110zM60 0v365q0 28 7 48.5t23.5 32.5t31 19.5t43 10.5t45.5 3.5t50 0.5h160v-95h-150q-17 0 -25 -1t-16.5 -8t-8.5 -21v-355h-160z" />
    <glyph glyph-name="Rcommaaccent" unicode="&#x156;" horiz-adv-x="930" 
d="M370 -225l40 155h140l-70 -155h-110zM900 0h-210l-270 270h-180v-270h-170v660h550h40.5t38 -1.5t37.5 -3.5t33 -6.5t31 -11.5t24 -17t20 -23.5t11.5 -31.5t4.5 -40v-120q0 -28 -7.5 -50t-18 -36t-31 -24t-36 -14.5t-44.5 -7t-45 -3t-48 -0.5zM240 380h390q20 0 30 1
t20 9.5t10 24.5v100q0 16 -10 24.5t-20 9.5t-30 1h-390v-170z" />
    <glyph glyph-name="rcommaaccent" unicode="&#x157;" horiz-adv-x="480" 
d="M30 -225l40 155h140l-70 -155h-110zM60 0v365q0 28 7 48.5t23.5 32.5t31 19.5t43 10.5t45.5 3.5t50 0.5h160v-95h-150q-17 0 -25 -1t-16.5 -8t-8.5 -21v-355h-160z" />
    <glyph glyph-name="Rcaron" unicode="&#x158;" horiz-adv-x="930" 
d="M255 890h120l90 -90l90 90h120l-150 -160h-120zM900 0h-210l-270 270h-180v-270h-170v660h550h40.5t38 -1.5t37.5 -3.5t33 -6.5t31 -11.5t24 -17t20 -23.5t11.5 -31.5t4.5 -40v-120q0 -28 -7.5 -50t-18 -36t-31 -24t-36 -14.5t-44.5 -7t-45 -3t-48 -0.5zM240 380h390
q20 0 30 1t20 9.5t10 24.5v100q0 16 -10 24.5t-20 9.5t-30 1h-390v-170z" />
    <glyph glyph-name="rcaron" unicode="&#x159;" horiz-adv-x="480" 
d="M30 710h120l90 -90l90 90h120l-150 -160h-120zM60 0v365q0 28 7 48.5t23.5 32.5t31 19.5t43 10.5t45.5 3.5t50 0.5h160v-95h-150q-17 0 -25 -1t-16.5 -8t-8.5 -21v-355h-160z" />
    <glyph glyph-name="Sacute" unicode="&#x15a;" horiz-adv-x="930" 
d="M365 730l100 160h170l-160 -160h-110zM70 0v110h560q20 0 30 1t20 9.5t10 24.5v125q0 16 -10 24.5t-20 9.5t-30 1h-320h-40.5t-38 1.5t-37.5 3.5t-33 6.5t-31 11.5t-24 17t-20 23.5t-11.5 31.5t-4.5 40v85q0 22 4.5 40t11.5 31.5t20 23.5t24 17t31 11.5t33 6.5t37.5 3.5
t38 1.5h40.5h500v-110h-510q-20 0 -30 -1t-20 -9.5t-10 -24.5v-65q0 -16 10 -24.5t20 -9.5t30 -1h320h40.5t38 -1.5t37.5 -3.5t33 -6.5t31 -11.5t24 -17t20 -23.5t11.5 -31.5t4.5 -40v-145q0 -22 -4.5 -40t-11.5 -31.5t-20 -23.5t-24 -17t-31 -11.5t-33 -6.5t-37.5 -3.5
t-38 -1.5h-40.5h-550z" />
    <glyph glyph-name="sacute" unicode="&#x15b;" 
d="M270 550l100 160h170l-160 -160h-110zM60 0v95h410q17 0 25 1t16.5 8t8.5 21v50q0 14 -8.5 21t-16.5 8t-25 1h-210q-33 0 -50 0.5t-45.5 3.5t-43 10.5t-31 19.5t-23.5 32.5t-7 48.5v45q0 28 7 48.5t23.5 32.5t31 19.5t43 10.5t45.5 3.5t50 0.5h380v-95h-370q-17 0 -25 -1
t-16.5 -8t-8.5 -21v-25q0 -14 8.5 -21t16.5 -8t25 -1h210q33 0 50 -0.5t45.5 -3.5t43 -10.5t31 -19.5t23.5 -32.5t7 -48.5v-70q0 -28 -7 -48.5t-23.5 -32.5t-31 -19.5t-43 -10.5t-45.5 -3.5t-50 -0.5h-420z" />
    <glyph glyph-name="Scircumflex" unicode="&#x15c;" horiz-adv-x="930" 
d="M255 730l150 160h120l150 -160h-120l-90 90l-90 -90h-120zM70 0v110h560q20 0 30 1t20 9.5t10 24.5v125q0 16 -10 24.5t-20 9.5t-30 1h-320h-40.5t-38 1.5t-37.5 3.5t-33 6.5t-31 11.5t-24 17t-20 23.5t-11.5 31.5t-4.5 40v85q0 22 4.5 40t11.5 31.5t20 23.5t24 17
t31 11.5t33 6.5t37.5 3.5t38 1.5h40.5h500v-110h-510q-20 0 -30 -1t-20 -9.5t-10 -24.5v-65q0 -16 10 -24.5t20 -9.5t30 -1h320h40.5t38 -1.5t37.5 -3.5t33 -6.5t31 -11.5t24 -17t20 -23.5t11.5 -31.5t4.5 -40v-145q0 -22 -4.5 -40t-11.5 -31.5t-20 -23.5t-24 -17t-31 -11.5
t-33 -6.5t-37.5 -3.5t-38 -1.5h-40.5h-550z" />
    <glyph glyph-name="scircumflex" unicode="&#x15d;" 
d="M160 550l150 160h120l150 -160h-120l-90 90l-90 -90h-120zM60 0v95h410q17 0 25 1t16.5 8t8.5 21v50q0 14 -8.5 21t-16.5 8t-25 1h-210q-33 0 -50 0.5t-45.5 3.5t-43 10.5t-31 19.5t-23.5 32.5t-7 48.5v45q0 28 7 48.5t23.5 32.5t31 19.5t43 10.5t45.5 3.5t50 0.5h380
v-95h-370q-17 0 -25 -1t-16.5 -8t-8.5 -21v-25q0 -14 8.5 -21t16.5 -8t25 -1h210q33 0 50 -0.5t45.5 -3.5t43 -10.5t31 -19.5t23.5 -32.5t7 -48.5v-70q0 -28 -7 -48.5t-23.5 -32.5t-31 -19.5t-43 -10.5t-45.5 -3.5t-50 -0.5h-420z" />
    <glyph glyph-name="Scedilla" unicode="&#x15e;" horiz-adv-x="930" 
d="M390 -155h30q70 0 70 40q0 16 -16 39t-69 76h115q55 -55 72.5 -80.5t17.5 -54.5q0 -38 -25 -59t-56.5 -26t-78.5 -5h-60v70zM70 0v110h560q20 0 30 1t20 9.5t10 24.5v125q0 16 -10 24.5t-20 9.5t-30 1h-320h-40.5t-38 1.5t-37.5 3.5t-33 6.5t-31 11.5t-24 17t-20 23.5
t-11.5 31.5t-4.5 40v85q0 22 4.5 40t11.5 31.5t20 23.5t24 17t31 11.5t33 6.5t37.5 3.5t38 1.5h40.5h500v-110h-510q-20 0 -30 -1t-20 -9.5t-10 -24.5v-65q0 -16 10 -24.5t20 -9.5t30 -1h320h40.5t38 -1.5t37.5 -3.5t33 -6.5t31 -11.5t24 -17t20 -23.5t11.5 -31.5t4.5 -40
v-145q0 -22 -4.5 -40t-11.5 -31.5t-20 -23.5t-24 -17t-31 -11.5t-33 -6.5t-37.5 -3.5t-38 -1.5h-40.5h-550z" />
    <glyph glyph-name="scedilla" unicode="&#x15f;" 
d="M280 -155h30q70 0 70 40q0 16 -16 39t-69 76h115q55 -55 72.5 -80.5t17.5 -54.5q0 -38 -25 -59t-56.5 -26t-78.5 -5h-60v70zM60 0v95h410q17 0 25 1t16.5 8t8.5 21v50q0 14 -8.5 21t-16.5 8t-25 1h-210q-33 0 -50 0.5t-45.5 3.5t-43 10.5t-31 19.5t-23.5 32.5t-7 48.5v45
q0 28 7 48.5t23.5 32.5t31 19.5t43 10.5t45.5 3.5t50 0.5h380v-95h-370q-17 0 -25 -1t-16.5 -8t-8.5 -21v-25q0 -14 8.5 -21t16.5 -8t25 -1h210q33 0 50 -0.5t45.5 -3.5t43 -10.5t31 -19.5t23.5 -32.5t7 -48.5v-70q0 -28 -7 -48.5t-23.5 -32.5t-31 -19.5t-43 -10.5
t-45.5 -3.5t-50 -0.5h-420z" />
    <glyph glyph-name="Scaron" unicode="&#x160;" horiz-adv-x="930" 
d="M255 890h120l90 -90l90 90h120l-150 -160h-120zM70 0v110h560q20 0 30 1t20 9.5t10 24.5v125q0 16 -10 24.5t-20 9.5t-30 1h-320h-40.5t-38 1.5t-37.5 3.5t-33 6.5t-31 11.5t-24 17t-20 23.5t-11.5 31.5t-4.5 40v85q0 22 4.5 40t11.5 31.5t20 23.5t24 17t31 11.5t33 6.5
t37.5 3.5t38 1.5h40.5h500v-110h-510q-20 0 -30 -1t-20 -9.5t-10 -24.5v-65q0 -16 10 -24.5t20 -9.5t30 -1h320h40.5t38 -1.5t37.5 -3.5t33 -6.5t31 -11.5t24 -17t20 -23.5t11.5 -31.5t4.5 -40v-145q0 -22 -4.5 -40t-11.5 -31.5t-20 -23.5t-24 -17t-31 -11.5t-33 -6.5
t-37.5 -3.5t-38 -1.5h-40.5h-550z" />
    <glyph glyph-name="scaron" unicode="&#x161;" 
d="M160 710h120l90 -90l90 90h120l-150 -160h-120zM60 0v95h410q17 0 25 1t16.5 8t8.5 21v50q0 14 -8.5 21t-16.5 8t-25 1h-210q-33 0 -50 0.5t-45.5 3.5t-43 10.5t-31 19.5t-23.5 32.5t-7 48.5v45q0 28 7 48.5t23.5 32.5t31 19.5t43 10.5t45.5 3.5t50 0.5h380v-95h-370
q-17 0 -25 -1t-16.5 -8t-8.5 -21v-25q0 -14 8.5 -21t16.5 -8t25 -1h210q33 0 50 -0.5t45.5 -3.5t43 -10.5t31 -19.5t23.5 -32.5t7 -48.5v-70q0 -28 -7 -48.5t-23.5 -32.5t-31 -19.5t-43 -10.5t-45.5 -3.5t-50 -0.5h-420z" />
    <glyph glyph-name="Tcommaaccent" unicode="&#x162;" horiz-adv-x="910" 
d="M355 -155h30q70 0 70 40q0 16 -16 39t-69 76h115q55 -55 72.5 -80.5t17.5 -54.5q0 -38 -25 -59t-56.5 -26t-78.5 -5h-60v70zM30 550v110h850v-110h-340v-550h-170v550h-340z" />
    <glyph glyph-name="tcommaaccent" unicode="&#x163;" horiz-adv-x="480" 
d="M200 -155h30q70 0 70 40q0 16 -16 39t-69 76h115q55 -55 72.5 -80.5t17.5 -54.5q0 -38 -25 -59t-56.5 -26t-78.5 -5h-60v70zM60 115v545h160v-180h200v-95h-200v-260q0 -14 8.5 -21t16.5 -8t25 -1h150v-95h-160q-33 0 -50 0.5t-45.5 3.5t-43 10.5t-31 19.5t-23.5 32.5
t-7 48.5z" />
    <glyph glyph-name="Tcaron" unicode="&#x164;" horiz-adv-x="910" 
d="M245 890h120l90 -90l90 90h120l-150 -160h-120zM30 550v110h850v-110h-340v-550h-170v550h-340z" />
    <glyph glyph-name="tcaron" unicode="&#x165;" horiz-adv-x="680" 
d="M480 460l50 200h130l-80 -200h-100zM60 115v545h160v-180h200v-95h-200v-260q0 -14 8.5 -21t16.5 -8t25 -1h150v-95h-160q-33 0 -50 0.5t-45.5 3.5t-43 10.5t-31 19.5t-23.5 32.5t-7 48.5z" />
    <glyph glyph-name="Tbar" unicode="&#x166;" horiz-adv-x="910" 
d="M30 550v110h850v-110h-340v-145h200v-95h-200v-310h-170v310h-200v95h200v145h-340z" />
    <glyph glyph-name="tbar" unicode="&#x167;" horiz-adv-x="500" 
d="M20 220v80h60v360h160v-180h200v-95h-200v-85h150v-80h-150v-95q0 -14 8.5 -21t16.5 -8t25 -1h150v-95h-160q-33 0 -50 0.5t-45.5 3.5t-43 10.5t-31 19.5t-23.5 32.5t-7 48.5v105h-60z" />
    <glyph glyph-name="Utilde" unicode="&#x168;" horiz-adv-x="930" 
d="M370 880q21 0 37 -4.5t58 -25.5q60 -30 70 -30q9 0 14 2t12 16t14 42h100q-17 -73 -49 -106.5t-66 -33.5q-21 0 -37 4.5t-58 25.5q-60 30 -70 30q-9 0 -14 -2t-12 -16t-14 -42h-100q17 73 49 106.5t66 33.5zM70 135v525h170v-515q0 -16 10 -24.5t20 -9.5t30 -1h330
q20 0 30 1t20 9.5t10 24.5v515h170v-525q0 -22 -4.5 -40t-11.5 -31.5t-20 -23.5t-24 -17t-31 -11.5t-33 -6.5t-37.5 -3.5t-38 -1.5h-40.5h-310h-40.5t-38 1.5t-37.5 3.5t-33 6.5t-31 11.5t-24 17t-20 23.5t-11.5 31.5t-4.5 40z" />
    <glyph glyph-name="utilde" unicode="&#x169;" 
d="M275 700q21 0 37 -4.5t58 -25.5q60 -30 70 -30q9 0 14 2t12 16t14 42h100q-17 -73 -49 -106.5t-66 -33.5q-21 0 -37 4.5t-58 25.5q-60 30 -70 30q-9 0 -14 -2t-12 -16t-14 -42h-100q17 73 49 106.5t66 33.5zM60 115v365h160v-355q0 -14 8.5 -21t16.5 -8t25 -1h200
q17 0 25 1t16.5 8t8.5 21v355h160v-365q0 -28 -7 -48.5t-23.5 -32.5t-31 -19.5t-43 -10.5t-45.5 -3.5t-50 -0.5h-220q-33 0 -50 0.5t-45.5 3.5t-43 10.5t-31 19.5t-23.5 32.5t-7 48.5z" />
    <glyph glyph-name="Umacron" unicode="&#x16a;" horiz-adv-x="930" 
d="M285 755v95h360v-95h-360zM70 135v525h170v-515q0 -16 10 -24.5t20 -9.5t30 -1h330q20 0 30 1t20 9.5t10 24.5v515h170v-525q0 -22 -4.5 -40t-11.5 -31.5t-20 -23.5t-24 -17t-31 -11.5t-33 -6.5t-37.5 -3.5t-38 -1.5h-40.5h-310h-40.5t-38 1.5t-37.5 3.5t-33 6.5
t-31 11.5t-24 17t-20 23.5t-11.5 31.5t-4.5 40z" />
    <glyph glyph-name="umacron" unicode="&#x16b;" 
d="M190 575v95h360v-95h-360zM60 115v365h160v-355q0 -14 8.5 -21t16.5 -8t25 -1h200q17 0 25 1t16.5 8t8.5 21v355h160v-365q0 -28 -7 -48.5t-23.5 -32.5t-31 -19.5t-43 -10.5t-45.5 -3.5t-50 -0.5h-220q-33 0 -50 0.5t-45.5 3.5t-43 10.5t-31 19.5t-23.5 32.5t-7 48.5z
" />
    <glyph glyph-name="Ubreve" unicode="&#x16c;" horiz-adv-x="930" 
d="M295 890h95q0 -31 22 -53t53 -22t53 22t22 53h95q0 -66 -50 -113t-120 -47t-120 47t-50 113zM70 135v525h170v-515q0 -16 10 -24.5t20 -9.5t30 -1h330q20 0 30 1t20 9.5t10 24.5v515h170v-525q0 -22 -4.5 -40t-11.5 -31.5t-20 -23.5t-24 -17t-31 -11.5t-33 -6.5
t-37.5 -3.5t-38 -1.5h-40.5h-310h-40.5t-38 1.5t-37.5 3.5t-33 6.5t-31 11.5t-24 17t-20 23.5t-11.5 31.5t-4.5 40z" />
    <glyph glyph-name="ubreve" unicode="&#x16d;" 
d="M200 710h95q0 -31 22 -53t53 -22t53 22t22 53h95q0 -66 -50 -113t-120 -47t-120 47t-50 113zM60 115v365h160v-355q0 -14 8.5 -21t16.5 -8t25 -1h200q17 0 25 1t16.5 8t8.5 21v355h160v-365q0 -28 -7 -48.5t-23.5 -32.5t-31 -19.5t-43 -10.5t-45.5 -3.5t-50 -0.5h-220
q-33 0 -50 0.5t-45.5 3.5t-43 10.5t-31 19.5t-23.5 32.5t-7 48.5z" />
    <glyph glyph-name="Uring" unicode="&#x16e;" horiz-adv-x="930" 
d="M280 745v60q0 85 120 85h130q120 0 120 -85v-60q0 -85 -120 -85h-130q-120 0 -120 85zM390 745q0 -20 30 -20h90q30 0 30 20v60q0 20 -30 20h-90q-30 0 -30 -20v-60zM70 135v525h170v-515q0 -16 10 -24.5t20 -9.5t30 -1h330q20 0 30 1t20 9.5t10 24.5v515h170v-525
q0 -22 -4.5 -40t-11.5 -31.5t-20 -23.5t-24 -17t-31 -11.5t-33 -6.5t-37.5 -3.5t-38 -1.5h-40.5h-310h-40.5t-38 1.5t-37.5 3.5t-33 6.5t-31 11.5t-24 17t-20 23.5t-11.5 31.5t-4.5 40z" />
    <glyph glyph-name="uring" unicode="&#x16f;" 
d="M185 635v60q0 85 120 85h130q120 0 120 -85v-60q0 -85 -120 -85h-130q-120 0 -120 85zM295 635q0 -20 30 -20h90q30 0 30 20v60q0 20 -30 20h-90q-30 0 -30 -20v-60zM60 115v365h160v-355q0 -14 8.5 -21t16.5 -8t25 -1h200q17 0 25 1t16.5 8t8.5 21v355h160v-365
q0 -28 -7 -48.5t-23.5 -32.5t-31 -19.5t-43 -10.5t-45.5 -3.5t-50 -0.5h-220q-33 0 -50 0.5t-45.5 3.5t-43 10.5t-31 19.5t-23.5 32.5t-7 48.5z" />
    <glyph glyph-name="Uhungarumlaut" unicode="&#x170;" horiz-adv-x="930" 
d="M265 730l90 160h130l-120 -160h-100zM485 730l90 160h130l-120 -160h-100zM70 135v525h170v-515q0 -16 10 -24.5t20 -9.5t30 -1h330q20 0 30 1t20 9.5t10 24.5v515h170v-525q0 -22 -4.5 -40t-11.5 -31.5t-20 -23.5t-24 -17t-31 -11.5t-33 -6.5t-37.5 -3.5t-38 -1.5h-40.5
h-310h-40.5t-38 1.5t-37.5 3.5t-33 6.5t-31 11.5t-24 17t-20 23.5t-11.5 31.5t-4.5 40z" />
    <glyph glyph-name="uhungarumlaut" unicode="&#x171;" 
d="M170 550l90 160h130l-120 -160h-100zM390 550l90 160h130l-120 -160h-100zM60 115v365h160v-355q0 -14 8.5 -21t16.5 -8t25 -1h200q17 0 25 1t16.5 8t8.5 21v355h160v-365q0 -28 -7 -48.5t-23.5 -32.5t-31 -19.5t-43 -10.5t-45.5 -3.5t-50 -0.5h-220q-33 0 -50 0.5
t-45.5 3.5t-43 10.5t-31 19.5t-23.5 32.5t-7 48.5z" />
    <glyph glyph-name="Uogonek" unicode="&#x172;" horiz-adv-x="930" 
d="M415 -135q0 29 17.5 54.5t72.5 80.5h115q-53 -53 -69 -76t-16 -39q0 -40 70 -40h15v-70h-45q-47 0 -78.5 5t-56.5 26t-25 59zM70 135v525h170v-515q0 -16 10 -24.5t20 -9.5t30 -1h330q20 0 30 1t20 9.5t10 24.5v515h170v-525q0 -22 -4.5 -40t-11.5 -31.5t-20 -23.5
t-24 -17t-31 -11.5t-33 -6.5t-37.5 -3.5t-38 -1.5h-40.5h-310h-40.5t-38 1.5t-37.5 3.5t-33 6.5t-31 11.5t-24 17t-20 23.5t-11.5 31.5t-4.5 40z" />
    <glyph glyph-name="uogonek" unicode="&#x173;" 
d="M275 -135q0 29 17.5 54.5t72.5 80.5h115q-53 -53 -69 -76t-16 -39q0 -40 70 -40h15v-70h-45q-47 0 -78.5 5t-56.5 26t-25 59zM60 115v365h160v-355q0 -14 8.5 -21t16.5 -8t25 -1h200q17 0 25 1t16.5 8t8.5 21v355h160v-365q0 -28 -7 -48.5t-23.5 -32.5t-31 -19.5
t-43 -10.5t-45.5 -3.5t-50 -0.5h-220q-33 0 -50 0.5t-45.5 3.5t-43 10.5t-31 19.5t-23.5 32.5t-7 48.5z" />
    <glyph glyph-name="Wcircumflex" unicode="&#x174;" horiz-adv-x="1260" 
d="M420 730l150 160h120l150 -160h-120l-90 90l-90 -90h-120zM20 660h175l165 -495l155 465h230l155 -465l165 495h175l-220 -660h-220l-170 510l-170 -510h-220z" />
    <glyph glyph-name="wcircumflex" unicode="&#x175;" horiz-adv-x="960" 
d="M260 550l150 160h120l150 -160h-120l-90 90l-90 -90h-120zM20 480h160l110 -330l100 300h180l100 -300l110 330h160l-160 -480h-195l-105 315l-105 -315h-195z" />
    <glyph glyph-name="Ycircumflex" unicode="&#x176;" horiz-adv-x="910" 
d="M245 730l150 160h120l150 -160h-120l-90 90l-90 -90h-120zM20 660h210l225 -225l225 225h210l-350 -350v-310h-170v310z" />
    <glyph glyph-name="ycircumflex" unicode="&#x177;" horiz-adv-x="720" 
d="M150 550l150 160h120l150 -160h-120l-90 90l-90 -90h-120zM20 480h170l170 -340l170 340h170l-300 -600q-19 -37 -32 -55.5t-43 -34t-75 -15.5h-170v95h100q32 0 42.5 7.5t22.5 32.5l30 60z" />
    <glyph glyph-name="Ydieresis" unicode="&#x178;" horiz-adv-x="910" 
d="M265 755v110h135v-110h-135zM510 755v110h135v-110h-135zM20 660h210l225 -225l225 225h210l-350 -350v-310h-170v310z" />
    <glyph glyph-name="Zacute" unicode="&#x179;" horiz-adv-x="880" 
d="M340 730l100 160h170l-160 -160h-110zM50 0v110l525 440h-505v110h740v-110l-525 -440h545v-110h-780z" />
    <glyph glyph-name="zacute" unicode="&#x17a;" horiz-adv-x="720" 
d="M250 550l100 160h170l-160 -160h-110zM50 0v105l390 280h-370v95h580v-105l-390 -280h410v-95h-620z" />
    <glyph glyph-name="Zdotaccent" unicode="&#x17b;" horiz-adv-x="880" 
d="M375 755v110h130v-110h-130zM50 0v110l525 440h-505v110h740v-110l-525 -440h545v-110h-780z" />
    <glyph glyph-name="zdotaccent" unicode="&#x17c;" horiz-adv-x="720" 
d="M285 575v110h130v-110h-130zM50 0v105l390 280h-370v95h580v-105l-390 -280h410v-95h-620z" />
    <glyph glyph-name="Zcaron" unicode="&#x17d;" horiz-adv-x="880" 
d="M230 890h120l90 -90l90 90h120l-150 -160h-120zM50 0v110l525 440h-505v110h740v-110l-525 -440h545v-110h-780z" />
    <glyph glyph-name="zcaron" unicode="&#x17e;" horiz-adv-x="720" 
d="M140 710h120l90 -90l90 90h120l-150 -160h-120zM50 0v105l390 280h-370v95h580v-105l-390 -280h410v-95h-620z" />
    <glyph glyph-name="longs" unicode="&#x17f;" horiz-adv-x="580" 
d="M60 385v95h100v65q0 28 7 48.5t23.5 32.5t31 19.5t43 10.5t45.5 3.5t50 0.5h160v-95h-150q-17 0 -25 -1t-16.5 -8t-8.5 -21v-535h-160v385h-100z" />
    <glyph glyph-name="florin" unicode="&#x192;" horiz-adv-x="580" 
d="M20 -130h90q17 0 25 1t16.5 8t8.5 21v485h-100v95h100v65q0 28 7 48.5t23.5 32.5t31 19.5t43 10.5t45.5 3.5t50 0.5h160v-95h-150q-17 0 -25 -1t-16.5 -8t-8.5 -21v-55h200v-95h-200v-495q0 -28 -7 -48.5t-23.5 -32.5t-31 -19.5t-43 -10.5t-45.5 -3.5t-50 -0.5h-100v95z
" />
    <glyph glyph-name="Aringacute" unicode="&#x1fa;" horiz-adv-x="930" 
d="M280 745v60q0 85 120 85h130q120 0 120 -85v-60q0 -85 -120 -85h-130q-120 0 -120 85zM390 745q0 -20 30 -20h90q30 0 30 20v60q0 20 -30 20h-90q-30 0 -30 -20v-60zM20 0l330 660h230l330 -660h-180l-95 190h-340l-95 -190h-180zM350 300h230l-115 230zM670 730l100 160
h170l-160 -160h-110z" />
    <glyph glyph-name="aringacute" unicode="&#x1fb;" horiz-adv-x="805" 
d="M185 635v60q0 85 120 85h130q120 0 120 -85v-60q0 -85 -120 -85h-130q-120 0 -120 85zM295 635q0 -20 30 -20h90q30 0 30 20v60q0 20 -30 20h-90q-30 0 -30 -20v-60zM60 115v70q0 28 7 48.5t23.5 32.5t31 19.5t43 10.5t45.5 3.5t50 0.5h260v55q0 14 -8.5 21t-16.5 8
t-25 1h-370v95h380q33 0 50 -0.5t45.5 -3.5t43 -10.5t31 -19.5t23.5 -32.5t7 -48.5v-365h-420q-33 0 -50 0.5t-45.5 3.5t-43 10.5t-31 19.5t-23.5 32.5t-7 48.5zM220 125q0 -14 8.5 -21t16.5 -8t25 -1h250v110h-250q-17 0 -25 -1t-16.5 -8t-8.5 -21v-50zM575 730l100 160
h170l-160 -160h-110z" />
    <glyph glyph-name="AEacute" unicode="&#x1fc;" horiz-adv-x="1350" 
d="M575 730l100 160h170l-160 -160h-110zM20 0l330 660h930v-110h-520v-135h470v-110h-470v-195h520v-110h-690v190h-305l-95 -190h-170zM340 300h250v250h-125z" />
    <glyph glyph-name="aeacute" unicode="&#x1fd;" horiz-adv-x="1200" 
d="M500 550l100 160h170l-160 -160h-110zM60 115v70q0 28 7 48.5t23.5 32.5t31 19.5t43 10.5t45.5 3.5t50 0.5h260v55q0 14 -8.5 21t-16.5 8t-25 1h-370v95h840q33 0 50 -0.5t45.5 -3.5t43 -10.5t31 -19.5t23.5 -32.5t7 -48.5v-160h-460v-80q0 -14 8.5 -21t16.5 -8t25 -1
h390v-95h-860q-33 0 -50 0.5t-45.5 3.5t-43 10.5t-31 19.5t-23.5 32.5t-7 48.5zM220 125q0 -14 8.5 -21t16.5 -8t25 -1h250v110h-250q-17 0 -25 -1t-16.5 -8t-8.5 -21v-50zM680 300h300v55q0 14 -8.5 21t-16.5 8t-25 1h-200q-17 0 -25 -1t-16.5 -8t-8.5 -21v-55z" />
    <glyph glyph-name="Oslashacute" unicode="&#x1fe;" horiz-adv-x="1030" 
d="M415 730l100 160h170l-160 -160h-110zM20 100v105l100 35v285q0 22 4.5 40t11.5 31.5t20 23.5t24 17t31 11.5t33 6.5t37.5 3.5t38 1.5h40.5h310h40.5t38 -1.5t37.5 -3.5t33 -6.5t31 -11.5t24 -17t20 -23.5t11.5 -31.5t4.5 -40l100 35v-105l-100 -35v-285q0 -22 -4.5 -40
t-11.5 -31.5t-20 -23.5t-24 -17t-31 -11.5t-33 -6.5t-37.5 -3.5t-38 -1.5h-40.5h-310h-40.5t-38 1.5t-37.5 3.5t-33 6.5t-31 11.5t-24 17t-20 23.5t-11.5 31.5t-4.5 40zM290 145q0 -16 10 -24.5t20 -9.5t30 -1h330q20 0 30 1t20 9.5t10 24.5v212l-450 -160v-52zM290 302
l450 160v53q0 16 -10 24.5t-20 9.5t-30 1h-330q-20 0 -30 -1t-20 -9.5t-10 -24.5v-213z" />
    <glyph glyph-name="oslashacute" unicode="&#x1ff;" horiz-adv-x="820" 
d="M310 550l100 160h170l-160 -160h-110zM20 94v85l80 21v165q0 28 7 48.5t23.5 32.5t31 19.5t43 10.5t45.5 3.5t50 0.5h220q33 0 50 -0.5t45.5 -3.5t43 -10.5t31 -19.5t23.5 -32.5t7 -48.5l80 21v-85l-80 -21v-165q0 -28 -7 -48.5t-23.5 -32.5t-31 -19.5t-43 -10.5
t-45.5 -3.5t-50 -0.5h-220q-33 0 -50 0.5t-45.5 3.5t-43 10.5t-31 19.5t-23.5 32.5t-7 48.5zM260 125q0 -14 8.5 -21t16.5 -8t25 -1h200q17 0 25 1t16.5 8t8.5 21v112l-300 -79v-33zM260 243l300 79v33q0 14 -8.5 21t-16.5 8t-25 1h-200q-17 0 -25 -1t-16.5 -8t-8.5 -21
v-112z" />
    <glyph glyph-name="Scommaaccent" unicode="&#x218;" horiz-adv-x="930" 
d="M370 -225l40 155h140l-70 -155h-110zM70 0v110h560q20 0 30 1t20 9.5t10 24.5v125q0 16 -10 24.5t-20 9.5t-30 1h-320h-40.5t-38 1.5t-37.5 3.5t-33 6.5t-31 11.5t-24 17t-20 23.5t-11.5 31.5t-4.5 40v85q0 22 4.5 40t11.5 31.5t20 23.5t24 17t31 11.5t33 6.5t37.5 3.5
t38 1.5h40.5h500v-110h-510q-20 0 -30 -1t-20 -9.5t-10 -24.5v-65q0 -16 10 -24.5t20 -9.5t30 -1h320h40.5t38 -1.5t37.5 -3.5t33 -6.5t31 -11.5t24 -17t20 -23.5t11.5 -31.5t4.5 -40v-145q0 -22 -4.5 -40t-11.5 -31.5t-20 -23.5t-24 -17t-31 -11.5t-33 -6.5t-37.5 -3.5
t-38 -1.5h-40.5h-550z" />
    <glyph glyph-name="scommaaccent" unicode="&#x219;" 
d="M275 -225l40 155h140l-70 -155h-110zM60 0v95h410q17 0 25 1t16.5 8t8.5 21v50q0 14 -8.5 21t-16.5 8t-25 1h-210q-33 0 -50 0.5t-45.5 3.5t-43 10.5t-31 19.5t-23.5 32.5t-7 48.5v45q0 28 7 48.5t23.5 32.5t31 19.5t43 10.5t45.5 3.5t50 0.5h380v-95h-370q-17 0 -25 -1
t-16.5 -8t-8.5 -21v-25q0 -14 8.5 -21t16.5 -8t25 -1h210q33 0 50 -0.5t45.5 -3.5t43 -10.5t31 -19.5t23.5 -32.5t7 -48.5v-70q0 -28 -7 -48.5t-23.5 -32.5t-31 -19.5t-43 -10.5t-45.5 -3.5t-50 -0.5h-420z" />
    <glyph glyph-name="uni021A" unicode="&#x21a;" horiz-adv-x="910" 
d="M345 -225l40 155h140l-70 -155h-110zM30 550v110h850v-110h-340v-550h-170v550h-340z" />
    <glyph glyph-name="uni021B" unicode="&#x21b;" horiz-adv-x="480" 
d="M145 -225l40 155h140l-70 -155h-110zM60 115v545h160v-180h200v-95h-200v-260q0 -14 8.5 -21t16.5 -8t25 -1h150v-95h-160q-33 0 -50 0.5t-45.5 3.5t-43 10.5t-31 19.5t-23.5 32.5t-7 48.5z" />
    <glyph glyph-name="uni0237" unicode="&#x237;" horiz-adv-x="280" 
d="M-50 -130q110 18 110 130v480h160v-480q0 -42 -10.5 -76.5t-26.5 -57t-41.5 -39.5t-47 -26t-52 -15t-49 -8t-43.5 -3v95z" />
    <glyph glyph-name="afii57929" unicode="&#x2bc;" horiz-adv-x="330" 
d="M75 460l50 200h130l-80 -200h-100z" />
    <glyph glyph-name="circumflex" unicode="&#x2c6;" horiz-adv-x="500" 
d="M40 550l150 160h120l150 -160h-120l-90 90l-90 -90h-120z" />
    <glyph glyph-name="caron" unicode="&#x2c7;" horiz-adv-x="500" 
d="M40 710h120l90 -90l90 90h120l-150 -160h-120z" />
    <glyph glyph-name="uni02C9" unicode="&#x2c9;" horiz-adv-x="500" 
d="M70 575v95h360v-95h-360z" />
    <glyph glyph-name="breve" unicode="&#x2d8;" horiz-adv-x="500" 
d="M80 710h95q0 -31 22 -53t53 -22t53 22t22 53h95q0 -66 -50 -113t-120 -47t-120 47t-50 113z" />
    <glyph glyph-name="dotaccent" unicode="&#x2d9;" horiz-adv-x="500" 
d="M185 575v110h130v-110h-130z" />
    <glyph glyph-name="ring" unicode="&#x2da;" horiz-adv-x="500" 
d="M65 635v60q0 85 120 85h130q120 0 120 -85v-60q0 -85 -120 -85h-130q-120 0 -120 85zM175 635q0 -20 30 -20h90q30 0 30 20v60q0 20 -30 20h-90q-30 0 -30 -20v-60z" />
    <glyph glyph-name="ogonek" unicode="&#x2db;" horiz-adv-x="500" 
d="M130 -135q0 29 17.5 54.5t72.5 80.5h115q-53 -53 -69 -76t-16 -39q0 -40 70 -40h15v-70h-45q-47 0 -78.5 5t-56.5 26t-25 59z" />
    <glyph glyph-name="tilde" unicode="&#x2dc;" horiz-adv-x="500" 
d="M155 700q21 0 37 -4.5t58 -25.5q60 -30 70 -30q9 0 14 2t12 16t14 42h100q-17 -73 -49 -106.5t-66 -33.5q-21 0 -37 4.5t-58 25.5q-60 30 -70 30q-9 0 -14 -2t-12 -16t-14 -42h-100q17 73 49 106.5t66 33.5z" />
    <glyph glyph-name="hungarumlaut" unicode="&#x2dd;" horiz-adv-x="500" 
d="M50 550l90 160h130l-120 -160h-100zM270 550l90 160h130l-120 -160h-100z" />
    <glyph glyph-name="uni0312" unicode="&#x312;" horiz-adv-x="0" 
d="M-440 550l100 250h100l-50 -250h-150z" />
    <glyph glyph-name="uni0326" unicode="&#x326;" horiz-adv-x="0" 
d="M-465 -225l40 155h140l-70 -155h-110z" />
    <glyph glyph-name="uni037A" unicode="&#x37a;" horiz-adv-x="500" 
d="M170 -50h110v-85q0 -17 10 -21t30 -4h20v-65q-34 0 -51.5 0.5t-44 5.5t-40 14.5t-24 28.5t-10.5 46v80z" />
    <glyph glyph-name="uni037E" unicode="&#x37e;" horiz-adv-x="350" 
d="M45 -150l60 270h170l-120 -270h-110zM105 340v140h170v-140h-170z" />
    <glyph glyph-name="tonos" unicode="&#x384;" horiz-adv-x="500" 
d="M160 550l70 160h140l-100 -160h-110z" />
    <glyph glyph-name="dieresistonos" unicode="&#x385;" horiz-adv-x="500" 
d="M60 575v110h135v-110h-135zM305 575v110h135v-110h-135zM160 730l70 160h140l-100 -160h-110z" />
    <glyph glyph-name="Alphatonos" unicode="&#x386;" horiz-adv-x="930" 
d="M30 500l70 160h140l-100 -160h-110zM20 0l330 660h230l330 -660h-180l-95 190h-340l-95 -190h-180zM350 300h230l-115 230z" />
    <glyph glyph-name="anoteleia" unicode="&#x387;" horiz-adv-x="320" 
d="M75 180v140h170v-140h-170z" />
    <glyph glyph-name="Epsilontonos" unicode="&#x388;" horiz-adv-x="1090" 
d="M20 500l70 160h140l-100 -160h-110zM280 0v660h740v-110h-570v-135h520v-110h-520v-195h570v-110h-740z" />
    <glyph glyph-name="Etatonos" unicode="&#x389;" horiz-adv-x="1140" 
d="M20 500l70 160h140l-100 -160h-110zM280 0v660h170v-245h450v245h170v-660h-170v305h-450v-305h-170z" />
    <glyph glyph-name="Iotatonos" unicode="&#x38a;" horiz-adv-x="520" 
d="M20 500l70 160h140l-100 -160h-110zM280 0v660h170v-660h-170z" />
    <glyph glyph-name="Omicrontonos" unicode="&#x38c;" horiz-adv-x="1120" 
d="M20 500l70 160h140l-100 -160h-110zM260 135v390q0 22 4.5 40t11.5 31.5t20 23.5t24 17t31 11.5t33 6.5t37.5 3.5t38 1.5h40.5h310h40.5t38 -1.5t37.5 -3.5t33 -6.5t31 -11.5t24 -17t20 -23.5t11.5 -31.5t4.5 -40v-390q0 -22 -4.5 -40t-11.5 -31.5t-20 -23.5t-24 -17
t-31 -11.5t-33 -6.5t-37.5 -3.5t-38 -1.5h-40.5h-310h-40.5t-38 1.5t-37.5 3.5t-33 6.5t-31 11.5t-24 17t-20 23.5t-11.5 31.5t-4.5 40zM430 145q0 -16 10 -24.5t20 -9.5t30 -1h330q20 0 30 1t20 9.5t10 24.5v370q0 16 -10 24.5t-20 9.5t-30 1h-330q-20 0 -30 -1t-20 -9.5
t-10 -24.5v-370z" />
    <glyph glyph-name="Upsilontonos" unicode="&#x38e;" horiz-adv-x="1140" 
d="M20 500l70 160h140l-100 -160h-110zM250 660h210l225 -225l225 225h210l-350 -350v-310h-170v310z" />
    <glyph glyph-name="Omegatonos" unicode="&#x38f;" horiz-adv-x="1060" 
d="M20 500l70 160h140l-100 -160h-110zM180 0v105h95q-75 75 -75 215v40q0 86 26 146t75 92.5t109.5 47t139.5 14.5h90q79 0 139.5 -14.5t109.5 -47t75 -92.5t26 -146v-40q0 -140 -75 -215h95v-105h-365v105q89 0 132 43t43 157v50q0 114 -43 157t-132 43h-100
q-89 0 -132 -43t-43 -157v-50q0 -114 43 -157t132 -43v-105h-365z" />
    <glyph glyph-name="iotadieresistonos" unicode="&#x390;" horiz-adv-x="365" 
d="M65 115v365h160v-355q0 -14 8.5 -21t16.5 -8t25 -1h30v-95h-40q-33 0 -50 0.5t-45.5 3.5t-43 10.5t-31 19.5t-23.5 32.5t-7 48.5zM-40 575v110h135v-110h-135zM205 575v110h135v-110h-135zM60 730l70 160h140l-100 -160h-110z" />
    <glyph glyph-name="Alpha" unicode="&#x391;" horiz-adv-x="930" 
d="M20 0l330 660h230l330 -660h-180l-95 190h-340l-95 -190h-180zM350 300h230l-115 230z" />
    <glyph glyph-name="Beta" unicode="&#x392;" horiz-adv-x="930" 
d="M70 0v660h540h40.5t38 -1.5t37.5 -3.5t33 -6.5t31 -11.5t24 -17t20 -23.5t11.5 -31.5t4.5 -40v-60q0 -42 -23 -66.5t-57 -33.5q39 -10 64.5 -31.5t25.5 -68.5v-130q0 -22 -4.5 -40t-11.5 -31.5t-20 -23.5t-24 -17t-31 -11.5t-33 -6.5t-37.5 -3.5t-38 -1.5h-40.5h-550z
M240 110h390q20 0 30 1t20 9.5t10 24.5v125q0 16 -10 24.5t-20 9.5t-30 1h-390v-195zM240 415h380q20 0 30 1t20 9.5t10 24.5v65q0 16 -10 24.5t-20 9.5t-30 1h-380v-135z" />
    <glyph glyph-name="Gamma" unicode="&#x393;" horiz-adv-x="840" 
d="M70 0v660h740v-110h-570v-550h-170z" />
    <glyph glyph-name="Delta" unicode="&#x394;" horiz-adv-x="930" 
d="M20 0l330 660h230l330 -660h-890zM245 111h440l-220 439z" />
    <glyph glyph-name="Epsilon" unicode="&#x395;" horiz-adv-x="880" 
d="M70 0v660h740v-110h-570v-135h520v-110h-520v-195h570v-110h-740z" />
    <glyph glyph-name="Zeta" unicode="&#x396;" horiz-adv-x="880" 
d="M50 0v110l525 440h-505v110h740v-110l-525 -440h545v-110h-780z" />
    <glyph glyph-name="Eta" unicode="&#x397;" horiz-adv-x="930" 
d="M70 0v660h170v-245h450v245h170v-660h-170v305h-450v-305h-170z" />
    <glyph glyph-name="Theta" unicode="&#x398;" horiz-adv-x="930" 
d="M70 135v390q0 22 4.5 40t11.5 31.5t20 23.5t24 17t31 11.5t33 6.5t37.5 3.5t38 1.5h40.5h310h40.5t38 -1.5t37.5 -3.5t33 -6.5t31 -11.5t24 -17t20 -23.5t11.5 -31.5t4.5 -40v-390q0 -22 -4.5 -40t-11.5 -31.5t-20 -23.5t-24 -17t-31 -11.5t-33 -6.5t-37.5 -3.5t-38 -1.5
h-40.5h-310h-40.5t-38 1.5t-37.5 3.5t-33 6.5t-31 11.5t-24 17t-20 23.5t-11.5 31.5t-4.5 40zM240 145q0 -16 10 -24.5t20 -9.5t30 -1h330q20 0 30 1t20 9.5t10 24.5v370q0 16 -10 24.5t-20 9.5t-30 1h-330q-20 0 -30 -1t-20 -9.5t-10 -24.5v-370zM340 300v110h250v-110
h-250z" />
    <glyph glyph-name="Iota" unicode="&#x399;" horiz-adv-x="310" 
d="M70 0v660h170v-660h-170z" />
    <glyph glyph-name="Kappa" unicode="&#x39a;" horiz-adv-x="860" 
d="M70 0v660h170v-350l350 350h210l-310 -310l350 -350h-210l-245 245l-145 -145v-100h-170z" />
    <glyph glyph-name="Lambda" unicode="&#x39b;" horiz-adv-x="930" 
d="M20 0l330 660h230l330 -660h-170l-275 550l-275 -550h-170z" />
    <glyph glyph-name="Mu" unicode="&#x39c;" horiz-adv-x="1090" 
d="M70 0v660h225l250 -500l250 500h225v-660h-170v450l-225 -450h-160l-225 450v-450h-170z" />
    <glyph glyph-name="Nu" unicode="&#x39d;" horiz-adv-x="930" 
d="M70 0v660h190l430 -470v470h170v-660h-190l-430 470v-470h-170z" />
    <glyph glyph-name="Xi" unicode="&#x39e;" horiz-adv-x="930" 
d="M70 0v220h170v-110h450v110h170v-220h-790zM70 480v180h790v-180h-170v70h-450v-70h-170zM240 300v110h450v-110h-450z" />
    <glyph glyph-name="Omicron" unicode="&#x39f;" horiz-adv-x="930" 
d="M70 135v390q0 22 4.5 40t11.5 31.5t20 23.5t24 17t31 11.5t33 6.5t37.5 3.5t38 1.5h40.5h310h40.5t38 -1.5t37.5 -3.5t33 -6.5t31 -11.5t24 -17t20 -23.5t11.5 -31.5t4.5 -40v-390q0 -22 -4.5 -40t-11.5 -31.5t-20 -23.5t-24 -17t-31 -11.5t-33 -6.5t-37.5 -3.5t-38 -1.5
h-40.5h-310h-40.5t-38 1.5t-37.5 3.5t-33 6.5t-31 11.5t-24 17t-20 23.5t-11.5 31.5t-4.5 40zM240 145q0 -16 10 -24.5t20 -9.5t30 -1h330q20 0 30 1t20 9.5t10 24.5v370q0 16 -10 24.5t-20 9.5t-30 1h-330q-20 0 -30 -1t-20 -9.5t-10 -24.5v-370z" />
    <glyph glyph-name="Pi" unicode="&#x3a0;" horiz-adv-x="930" 
d="M70 0v660h790v-660h-170v550h-450v-550h-170z" />
    <glyph glyph-name="Rho" unicode="&#x3a1;" horiz-adv-x="930" 
d="M70 0v660h550h40.5t38 -1.5t37.5 -3.5t33 -6.5t31 -11.5t24 -17t20 -23.5t11.5 -31.5t4.5 -40v-140q0 -22 -4.5 -40t-11.5 -31.5t-20 -23.5t-24 -17t-31 -11.5t-33 -6.5t-37.5 -3.5t-38 -1.5h-40.5h-380v-250h-170zM240 360h390q20 0 30 1t20 9.5t10 24.5v120
q0 16 -10 24.5t-20 9.5t-30 1h-390v-190z" />
    <glyph glyph-name="Sigma" unicode="&#x3a3;" horiz-adv-x="880" 
d="M70 0v110l220 220l-220 220v110h740v-110h-530l220 -220l-220 -220h530v-110h-740z" />
    <glyph glyph-name="Tau" unicode="&#x3a4;" horiz-adv-x="910" 
d="M30 550v110h850v-110h-340v-550h-170v550h-340z" />
    <glyph glyph-name="Upsilon" unicode="&#x3a5;" horiz-adv-x="910" 
d="M20 660h210l225 -225l225 225h210l-350 -350v-310h-170v310z" />
    <glyph glyph-name="Phi" unicode="&#x3a6;" horiz-adv-x="1050" 
d="M70 210v240q0 22 4.5 40t11.5 31.5t20 23.5t24 17t31 11.5t33 6.5t37.5 3.5t38 1.5h40.5h130v75h170v-75h130h40.5t38 -1.5t37.5 -3.5t33 -6.5t31 -11.5t24 -17t20 -23.5t11.5 -31.5t4.5 -40v-240q0 -22 -4.5 -40t-11.5 -31.5t-20 -23.5t-24 -17t-31 -11.5t-33 -6.5
t-37.5 -3.5t-38 -1.5h-40.5h-130v-75h-170v75h-130h-40.5t-38 1.5t-37.5 3.5t-33 6.5t-31 11.5t-24 17t-20 23.5t-11.5 31.5t-4.5 40zM240 220q0 -16 10 -24.5t20 -9.5t30 -1h140v290h-140q-20 0 -30 -1t-20 -9.5t-10 -24.5v-220zM610 185h140q20 0 30 1t20 9.5t10 24.5v220
q0 16 -10 24.5t-20 9.5t-30 1h-140v-290z" />
    <glyph glyph-name="Chi" unicode="&#x3a7;" horiz-adv-x="910" 
d="M20 0l330 330l-330 330h210l225 -225l225 225h210l-330 -330l330 -330h-210l-225 225l-225 -225h-210z" />
    <glyph glyph-name="Psi" unicode="&#x3a8;" horiz-adv-x="1050" 
d="M70 330v330h170v-320q0 -16 10 -24.5t20 -9.5t30 -1h140v355h170v-355h140q20 0 30 1t20 9.5t10 24.5v320h170v-330q0 -22 -4.5 -40t-11.5 -31.5t-20 -23.5t-24 -17t-31 -11.5t-33 -6.5t-37.5 -3.5t-38 -1.5h-40.5h-130v-195h-170v195h-130h-40.5t-38 1.5t-37.5 3.5
t-33 6.5t-31 11.5t-24 17t-20 23.5t-11.5 31.5t-4.5 40z" />
    <glyph glyph-name="Omega" unicode="&#x3a9;" horiz-adv-x="930" 
d="M50 0v105h95q-75 75 -75 215v40q0 86 26 146t75 92.5t109.5 47t139.5 14.5h90q79 0 139.5 -14.5t109.5 -47t75 -92.5t26 -146v-40q0 -140 -75 -215h95v-105h-365v105q89 0 132 43t43 157v50q0 114 -43 157t-132 43h-100q-89 0 -132 -43t-43 -157v-50q0 -114 43 -157
t132 -43v-105h-365z" />
    <glyph glyph-name="Iotadieresis" unicode="&#x3aa;" horiz-adv-x="310" 
d="M-35 755v110h135v-110h-135zM210 755v110h135v-110h-135zM70 0v660h170v-660h-170z" />
    <glyph glyph-name="Upsilondieresis" unicode="&#x3ab;" horiz-adv-x="910" 
d="M265 755v110h135v-110h-135zM510 755v110h135v-110h-135zM20 660h210l225 -225l225 225h210l-350 -350v-310h-170v310z" />
    <glyph glyph-name="alphatonos" unicode="&#x3ac;" horiz-adv-x="790" 
d="M305 550l70 160h140l-100 -160h-110zM60 115v250q0 28 7 48.5t23.5 32.5t31 19.5t43 10.5t45.5 3.5t50 0.5h105q70 0 120 -18.5t88 -63.5l27 82h150l-75 -240l75 -240h-150l-27 82q-38 -45 -88 -63.5t-120 -18.5h-105q-33 0 -50 0.5t-45.5 3.5t-43 10.5t-31 19.5
t-23.5 32.5t-7 48.5zM220 125q0 -14 8.5 -21t16.5 -8t25 -1h95q55 0 94.5 36t69.5 109q-30 73 -69.5 109t-94.5 36h-95q-17 0 -25 -1t-16.5 -8t-8.5 -21v-230z" />
    <glyph glyph-name="epsilontonos" unicode="&#x3ad;" horiz-adv-x="700" 
d="M260 550l70 160h140l-100 -160h-110zM60 115v60q0 22 7.5 39.5t19 26.5t22.5 15t19 8l7 1q-3 0 -8 1.5t-18 7.5t-23 14.5t-18 26.5t-8 40v10q0 28 7 48.5t23.5 32.5t31 19.5t43 10.5t45.5 3.5t50 0.5h380v-95h-370q-17 0 -25 -1t-16.5 -8t-8.5 -21v-25q0 -14 8.5 -21
t16.5 -8t25 -1h290v-95h-290q-17 0 -25 -1t-16.5 -8t-8.5 -21v-50q0 -14 8.5 -21t16.5 -8t25 -1h370v-95h-380q-33 0 -50 0.5t-45.5 3.5t-43 10.5t-31 19.5t-23.5 32.5t-7 48.5z" />
    <glyph glyph-name="etatonos" unicode="&#x3ae;" 
d="M280 550l70 160h140l-100 -160h-110zM60 0v480h420q33 0 50 -0.5t45.5 -3.5t43 -10.5t31 -19.5t23.5 -32.5t7 -48.5v-590h-160v580q0 14 -8.5 21t-16.5 8t-25 1h-250v-385h-160z" />
    <glyph glyph-name="iotatonos" unicode="&#x3af;" horiz-adv-x="360" 
d="M80 550l70 160h140l-100 -160h-110zM60 115v365h160v-355q0 -14 8.5 -21t16.5 -8t25 -1h30v-95h-40q-33 0 -50 0.5t-45.5 3.5t-43 10.5t-31 19.5t-23.5 32.5t-7 48.5z" />
    <glyph glyph-name="upsilondieresistonos" unicode="&#x3b0;" 
d="M180 575v110h135v-110h-135zM425 575v110h135v-110h-135zM280 730l70 160h140l-100 -160h-110zM60 115v365h160v-355q0 -14 8.5 -21t16.5 -8t25 -1h120q32 0 49 1.5t39 8t32 22.5t10 43v310h160v-300q0 -38 -10.5 -67t-24.5 -47.5t-41.5 -31.5t-49 -19.5t-62 -10
t-63.5 -4t-69 -0.5h-100q-33 0 -50 0.5t-45.5 3.5t-43 10.5t-31 19.5t-23.5 32.5t-7 48.5z" />
    <glyph glyph-name="alpha" unicode="&#x3b1;" horiz-adv-x="790" 
d="M60 115v250q0 28 7 48.5t23.5 32.5t31 19.5t43 10.5t45.5 3.5t50 0.5h105q70 0 120 -18.5t88 -63.5l27 82h150l-75 -240l75 -240h-150l-27 82q-38 -45 -88 -63.5t-120 -18.5h-105q-33 0 -50 0.5t-45.5 3.5t-43 10.5t-31 19.5t-23.5 32.5t-7 48.5zM220 125q0 -14 8.5 -21
t16.5 -8t25 -1h95q55 0 94.5 36t69.5 109q-30 73 -69.5 109t-94.5 36h-95q-17 0 -25 -1t-16.5 -8t-8.5 -21v-230z" />
    <glyph glyph-name="beta" unicode="&#x3b2;" 
d="M60 -225v770q0 28 7 48.5t23.5 32.5t31 19.5t43 10.5t45.5 3.5t50 0.5h180q33 0 50 -0.5t45.5 -3.5t43 -10.5t31 -19.5t23.5 -32.5t7 -48.5v-95q0 -46 -18.5 -66t-51.5 -24q17 -2 27.5 -4t28 -9t28 -17.5t18.5 -29.5t8 -45v-140q0 -28 -7 -48.5t-23.5 -32.5t-31 -19.5
t-43 -10.5t-45.5 -3.5t-50 -0.5h-260v-225h-160zM220 95h250q17 0 25 1t16.5 8t8.5 21v150q0 14 -8.5 21t-16.5 8t-25 1h-170v95h130q17 0 25 1t16.5 8t8.5 21v105q0 14 -8.5 21t-16.5 8t-25 1h-160q-17 0 -25 -1t-16.5 -8t-8.5 -21v-440z" />
    <glyph glyph-name="gamma" unicode="&#x3b3;" horiz-adv-x="720" 
d="M20 480h170l170 -340l170 340h170l-260 -520v-185h-160v185z" />
    <glyph glyph-name="delta" unicode="&#x3b4;" 
d="M60 115v190q0 28 7 48.5t23.5 32.5t31 19.5t43 10.5t45.5 3.5t50 0.5h130l-290 135v105h540v-95h-290l220 -100q36 -16 59.5 -35.5t34 -42t13.5 -40t3 -42.5v-190q0 -28 -7 -48.5t-23.5 -32.5t-31 -19.5t-43 -10.5t-45.5 -3.5t-50 -0.5h-220q-33 0 -50 0.5t-45.5 3.5
t-43 10.5t-31 19.5t-23.5 32.5t-7 48.5zM220 125q0 -14 8.5 -21t16.5 -8t25 -1h200q17 0 25 1t16.5 8t8.5 21v170q0 14 -8.5 21t-16.5 8t-25 1h-200q-17 0 -25 -1t-16.5 -8t-8.5 -21v-170z" />
    <glyph glyph-name="epsilon" unicode="&#x3b5;" horiz-adv-x="700" 
d="M60 115v60q0 22 7.5 39.5t19 26.5t22.5 15t19 8l7 1q-3 0 -8 1.5t-18 7.5t-23 14.5t-18 26.5t-8 40v10q0 28 7 48.5t23.5 32.5t31 19.5t43 10.5t45.5 3.5t50 0.5h380v-95h-370q-17 0 -25 -1t-16.5 -8t-8.5 -21v-25q0 -14 8.5 -21t16.5 -8t25 -1h290v-95h-290
q-17 0 -25 -1t-16.5 -8t-8.5 -21v-50q0 -14 8.5 -21t16.5 -8t25 -1h370v-95h-380q-33 0 -50 0.5t-45.5 3.5t-43 10.5t-31 19.5t-23.5 32.5t-7 48.5z" />
    <glyph glyph-name="zeta" unicode="&#x3b6;" horiz-adv-x="700" 
d="M60 115v120q0 60 13 83.5t77 66.5l270 180h-320v95h510v-105l-330 -220q-45 -30 -52.5 -42.5t-7.5 -57.5v-110q0 -14 8.5 -21t16.5 -8t25 -1h170q33 0 50 -0.5t45.5 -3.5t43 -10.5t31 -19.5t23.5 -32.5t7 -48.5q0 -178 -220 -205v85q100 29 100 105q0 16 -10 24.5
t-20 9.5t-30 1h-200q-33 0 -50 0.5t-45.5 3.5t-43 10.5t-31 19.5t-23.5 32.5t-7 48.5z" />
    <glyph glyph-name="eta" unicode="&#x3b7;" 
d="M60 0v480h420q33 0 50 -0.5t45.5 -3.5t43 -10.5t31 -19.5t23.5 -32.5t7 -48.5v-590h-160v580q0 14 -8.5 21t-16.5 8t-25 1h-250v-385h-160z" />
    <glyph glyph-name="theta" unicode="&#x3b8;" 
d="M60 115v430q0 28 7 48.5t23.5 32.5t31 19.5t43 10.5t45.5 3.5t50 0.5h220q33 0 50 -0.5t45.5 -3.5t43 -10.5t31 -19.5t23.5 -32.5t7 -48.5v-430q0 -28 -7 -48.5t-23.5 -32.5t-31 -19.5t-43 -10.5t-45.5 -3.5t-50 -0.5h-220q-33 0 -50 0.5t-45.5 3.5t-43 10.5t-31 19.5
t-23.5 32.5t-7 48.5zM220 125q0 -14 8.5 -21t16.5 -8t25 -1h200q17 0 25 1t16.5 8t8.5 21v180h-300v-180zM220 400h300v135q0 14 -8.5 21t-16.5 8t-25 1h-200q-17 0 -25 -1t-16.5 -8t-8.5 -21v-135z" />
    <glyph glyph-name="iota" unicode="&#x3b9;" horiz-adv-x="360" 
d="M60 115v365h160v-355q0 -14 8.5 -21t16.5 -8t25 -1h30v-95h-40q-33 0 -50 0.5t-45.5 3.5t-43 10.5t-31 19.5t-23.5 32.5t-7 48.5z" />
    <glyph glyph-name="kappa" unicode="&#x3ba;" horiz-adv-x="670" 
d="M60 0v480h160v-220l220 220h190l-230 -230l250 -250h-190l-155 155l-85 -85v-70h-160z" />
    <glyph glyph-name="lambda" unicode="&#x3bb;" horiz-adv-x="670" 
d="M20 0h170l145 290l145 -290h170l-280 560q-18 36 -31.5 54t-43.5 32t-75 14h-150v-95h80q33 0 43 -6t22 -29l35 -70z" />
    <glyph glyph-name="mu" unicode="&#x3bc;" 
d="M60 -225v705h160v-355q0 -14 8.5 -21t16.5 -8t25 -1h200q17 0 25 1t16.5 8t8.5 21v355h160v-365q0 -28 -7 -48.5t-23.5 -32.5t-31 -19.5t-43 -10.5t-45.5 -3.5t-50 -0.5h-260v-225h-160z" />
    <glyph glyph-name="nu" unicode="&#x3bd;" horiz-adv-x="720" 
d="M20 480h170l170 -340l170 340h170l-240 -480h-200z" />
    <glyph glyph-name="xi" unicode="&#x3be;" horiz-adv-x="700" 
d="M60 115v155q0 71 75 90q-75 19 -75 90v95q0 28 7 48.5t23.5 32.5t31 19.5t43 10.5t45.5 3.5t50 0.5h380v-95h-370q-17 0 -25 -1t-16.5 -8t-8.5 -21v-110q0 -25 60 -25h280v-95h-290q-17 0 -25 -1t-16.5 -6.5t-8.5 -17.5v-155q0 -14 8.5 -21t16.5 -8t25 -1h170
q33 0 50 -0.5t45.5 -3.5t43 -10.5t31 -19.5t23.5 -32.5t7 -48.5q0 -178 -220 -205v85q100 29 100 105q0 16 -10 24.5t-20 9.5t-30 1h-200q-33 0 -50 0.5t-45.5 3.5t-43 10.5t-31 19.5t-23.5 32.5t-7 48.5z" />
    <glyph glyph-name="omicron" unicode="&#x3bf;" 
d="M60 115v250q0 28 7 48.5t23.5 32.5t31 19.5t43 10.5t45.5 3.5t50 0.5h220q33 0 50 -0.5t45.5 -3.5t43 -10.5t31 -19.5t23.5 -32.5t7 -48.5v-250q0 -28 -7 -48.5t-23.5 -32.5t-31 -19.5t-43 -10.5t-45.5 -3.5t-50 -0.5h-220q-33 0 -50 0.5t-45.5 3.5t-43 10.5t-31 19.5
t-23.5 32.5t-7 48.5zM220 125q0 -14 8.5 -21t16.5 -8t25 -1h200q17 0 25 1t16.5 8t8.5 21v230q0 14 -8.5 21t-16.5 8t-25 1h-200q-17 0 -25 -1t-16.5 -8t-8.5 -21v-230z" />
    <glyph glyph-name="pi" unicode="&#x3c0;" horiz-adv-x="860" 
d="M60 385v95h740v-95h-140v-385h-160v385h-140v-385h-160v385h-140z" />
    <glyph glyph-name="rho" unicode="&#x3c1;" 
d="M60 -225v590q0 28 7 48.5t23.5 32.5t31 19.5t43 10.5t45.5 3.5t50 0.5h220q33 0 50 -0.5t45.5 -3.5t43 -10.5t31 -19.5t23.5 -32.5t7 -48.5v-250q0 -28 -7 -48.5t-23.5 -32.5t-31 -19.5t-43 -10.5t-45.5 -3.5t-50 -0.5h-260v-225h-160zM220 95h250q17 0 25 1t16.5 8
t8.5 21v230q0 14 -8.5 21t-16.5 8t-25 1h-200q-17 0 -25 -1t-16.5 -8t-8.5 -21v-260z" />
    <glyph glyph-name="sigma1" unicode="&#x3c2;" horiz-adv-x="700" 
d="M60 115v250q0 28 7 48.5t23.5 32.5t31 19.5t43 10.5t45.5 3.5t50 0.5h380v-95h-370q-17 0 -25 -1t-16.5 -8t-8.5 -21v-230q0 -14 8.5 -21t16.5 -8t25 -1h170q33 0 50 -0.5t45.5 -3.5t43 -10.5t31 -19.5t23.5 -32.5t7 -48.5q0 -178 -220 -205v85q100 29 100 105
q0 16 -10 24.5t-20 9.5t-30 1h-200q-33 0 -50 0.5t-45.5 3.5t-43 10.5t-31 19.5t-23.5 32.5t-7 48.5z" />
    <glyph glyph-name="sigma" unicode="&#x3c3;" horiz-adv-x="880" 
d="M60 115v250q0 28 7 48.5t23.5 32.5t31 19.5t43 10.5t45.5 3.5t50 0.5h560v-95h-140v-270q0 -28 -7 -48.5t-23.5 -32.5t-31 -19.5t-43 -10.5t-45.5 -3.5t-50 -0.5h-220q-33 0 -50 0.5t-45.5 3.5t-43 10.5t-31 19.5t-23.5 32.5t-7 48.5zM220 125q0 -14 8.5 -21t16.5 -8
t25 -1h200q17 0 25 1t16.5 8t8.5 21v230q0 14 -8.5 21t-16.5 8t-25 1h-200q-17 0 -25 -1t-16.5 -8t-8.5 -21v-230z" />
    <glyph glyph-name="tau" unicode="&#x3c4;" horiz-adv-x="720" 
d="M520 0h-40q-33 0 -50 0.5t-45.5 3.5t-43 10.5t-31 19.5t-23.5 32.5t-7 48.5v270h-220v95h600v-95h-220v-260q0 -14 8.5 -21t16.5 -8t25 -1h30v-95z" />
    <glyph glyph-name="upsilon" unicode="&#x3c5;" 
d="M60 115v365h160v-355q0 -14 8.5 -21t16.5 -8t25 -1h120q32 0 49 1.5t39 8t32 22.5t10 43v310h160v-300q0 -38 -10.5 -67t-24.5 -47.5t-41.5 -31.5t-49 -19.5t-62 -10t-63.5 -4t-69 -0.5h-100q-33 0 -50 0.5t-45.5 3.5t-43 10.5t-31 19.5t-23.5 32.5t-7 48.5z" />
    <glyph glyph-name="phi" unicode="&#x3c6;" horiz-adv-x="960" 
d="M60 115v345h160v-335q0 -14 8.5 -21t16.5 -8t25 -1h130v270q0 28 7 48.5t23.5 32.5t31 19.5t43 10.5t45.5 3.5t50 0.5h100q33 0 50 -0.5t45.5 -3.5t43 -10.5t31 -19.5t23.5 -32.5t7 -48.5v-250q0 -28 -7 -48.5t-23.5 -32.5t-31 -19.5t-43 -10.5t-45.5 -3.5t-50 -0.5h-140
v-225h-160v225h-140q-33 0 -50 0.5t-45.5 3.5t-43 10.5t-31 19.5t-23.5 32.5t-7 48.5zM560 95h130q17 0 25 1t16.5 8t8.5 21v230q0 14 -8.5 21t-16.5 8t-25 1h-80q-17 0 -25 -1t-16.5 -8t-8.5 -21v-260z" />
    <glyph glyph-name="chi" unicode="&#x3c7;" horiz-adv-x="690" 
d="M20 -225l235 353l-235 352h180l145 -218l145 218h180l-235 -352l235 -353h-180l-145 218l-145 -218h-180z" />
    <glyph glyph-name="psi" unicode="&#x3c8;" horiz-adv-x="960" 
d="M60 115v365h160v-355q0 -14 8.5 -21t16.5 -8t25 -1h130v385h160v-385h130q17 0 25 1t16.5 8t8.5 21v355h160v-365q0 -28 -7 -48.5t-23.5 -32.5t-31 -19.5t-43 -10.5t-45.5 -3.5t-50 -0.5h-140v-225h-160v225h-140q-33 0 -50 0.5t-45.5 3.5t-43 10.5t-31 19.5t-23.5 32.5
t-7 48.5z" />
    <glyph glyph-name="omega" unicode="&#x3c9;" horiz-adv-x="1000" 
d="M60 115v140q0 42 10.5 76.5t26.5 57t41.5 39.5t47 26t52 15t49 8t43.5 3v-95q-110 -18 -110 -130v-130q0 -14 8.5 -21t16.5 -8t25 -1h100q17 0 25 1t16.5 8t8.5 21v175h160v-175q0 -14 8.5 -21t16.5 -8t25 -1h100q17 0 25 1t16.5 8t8.5 21v130q0 112 -110 130v95
q25 -1 43.5 -3t49 -8t52 -15t47 -26t41.5 -39.5t26.5 -57t10.5 -76.5v-140q0 -28 -7 -48.5t-23.5 -32.5t-31 -19.5t-43 -10.5t-45.5 -3.5t-50 -0.5h-480q-33 0 -50 0.5t-45.5 3.5t-43 10.5t-31 19.5t-23.5 32.5t-7 48.5z" />
    <glyph glyph-name="iotadieresis" unicode="&#x3ca;" horiz-adv-x="370" 
d="M-35 575v110h135v-110h-135zM210 575v110h135v-110h-135zM70 115v365h160v-355q0 -14 8.5 -21t16.5 -8t25 -1h30v-95h-40q-33 0 -50 0.5t-45.5 3.5t-43 10.5t-31 19.5t-23.5 32.5t-7 48.5z" />
    <glyph glyph-name="upsilondieresis" unicode="&#x3cb;" 
d="M180 575v110h135v-110h-135zM425 575v110h135v-110h-135zM60 115v365h160v-355q0 -14 8.5 -21t16.5 -8t25 -1h120q32 0 49 1.5t39 8t32 22.5t10 43v310h160v-300q0 -38 -10.5 -67t-24.5 -47.5t-41.5 -31.5t-49 -19.5t-62 -10t-63.5 -4t-69 -0.5h-100q-33 0 -50 0.5
t-45.5 3.5t-43 10.5t-31 19.5t-23.5 32.5t-7 48.5z" />
    <glyph glyph-name="omicrontonos" unicode="&#x3cc;" 
d="M280 550l70 160h140l-100 -160h-110zM60 115v250q0 28 7 48.5t23.5 32.5t31 19.5t43 10.5t45.5 3.5t50 0.5h220q33 0 50 -0.5t45.5 -3.5t43 -10.5t31 -19.5t23.5 -32.5t7 -48.5v-250q0 -28 -7 -48.5t-23.5 -32.5t-31 -19.5t-43 -10.5t-45.5 -3.5t-50 -0.5h-220
q-33 0 -50 0.5t-45.5 3.5t-43 10.5t-31 19.5t-23.5 32.5t-7 48.5zM220 125q0 -14 8.5 -21t16.5 -8t25 -1h200q17 0 25 1t16.5 8t8.5 21v230q0 14 -8.5 21t-16.5 8t-25 1h-200q-17 0 -25 -1t-16.5 -8t-8.5 -21v-230z" />
    <glyph glyph-name="upsilontonos" unicode="&#x3cd;" 
d="M280 550l70 160h140l-100 -160h-110zM60 115v365h160v-355q0 -14 8.5 -21t16.5 -8t25 -1h120q32 0 49 1.5t39 8t32 22.5t10 43v310h160v-300q0 -38 -10.5 -67t-24.5 -47.5t-41.5 -31.5t-49 -19.5t-62 -10t-63.5 -4t-69 -0.5h-100q-33 0 -50 0.5t-45.5 3.5t-43 10.5
t-31 19.5t-23.5 32.5t-7 48.5z" />
    <glyph glyph-name="omegatonos" unicode="&#x3ce;" horiz-adv-x="1000" 
d="M410 550l70 160h140l-100 -160h-110zM60 115v140q0 42 10.5 76.5t26.5 57t41.5 39.5t47 26t52 15t49 8t43.5 3v-95q-110 -18 -110 -130v-130q0 -14 8.5 -21t16.5 -8t25 -1h100q17 0 25 1t16.5 8t8.5 21v175h160v-175q0 -14 8.5 -21t16.5 -8t25 -1h100q17 0 25 1t16.5 8
t8.5 21v130q0 112 -110 130v95q25 -1 43.5 -3t49 -8t52 -15t47 -26t41.5 -39.5t26.5 -57t10.5 -76.5v-140q0 -28 -7 -48.5t-23.5 -32.5t-31 -19.5t-43 -10.5t-45.5 -3.5t-50 -0.5h-480q-33 0 -50 0.5t-45.5 3.5t-43 10.5t-31 19.5t-23.5 32.5t-7 48.5z" />
    <glyph glyph-name="uni0400" unicode="&#x400;" horiz-adv-x="880" 
d="M270 890h170l100 -160h-110zM70 0v660h740v-110h-570v-135h520v-110h-520v-195h570v-110h-740z" />
    <glyph glyph-name="afii10023" unicode="&#x401;" horiz-adv-x="880" 
d="M250 755v110h135v-110h-135zM495 755v110h135v-110h-135zM70 0v660h740v-110h-570v-135h520v-110h-520v-195h570v-110h-740z" />
    <glyph glyph-name="afii10051" unicode="&#x402;" horiz-adv-x="1180" 
d="M30 550v110h850v-110h-340v-135h330h40.5t38 -1.5t37.5 -3.5t33 -6.5t31 -11.5t24 -17t20 -23.5t11.5 -31.5t4.5 -40v-220q0 -55 -13 -99t-32 -72.5t-50 -50t-56.5 -32.5t-62 -18.5t-57 -9.5t-49.5 -3v110q30 5 52 12.5t46.5 25.5t38 52.5t13.5 84.5v210q0 16 -10 24.5
t-20 9.5t-30 1h-340v-305h-170v550h-340z" />
    <glyph glyph-name="afii10052" unicode="&#x403;" horiz-adv-x="840" 
d="M320 730l100 160h170l-160 -160h-110zM70 0v660h740v-110h-570v-550h-170z" />
    <glyph glyph-name="afii10053" unicode="&#x404;" horiz-adv-x="930" 
d="M70 180v300q0 38 10.5 67t24.5 47.5t41.5 31.5t49 19.5t62 10t63.5 4t69 0.5h150q46 0 69 -0.5t63.5 -4t62 -10t49 -19.5t41.5 -31.5t24.5 -47.5t10.5 -67h-170q-2 25 -12 40t-31.5 21t-38 7.5t-48.5 1.5h-190q-32 0 -49 -1.5t-39 -8t-32 -22.5t-10 -43v-60h375v-110
h-375v-120q0 -27 10 -43t32 -22.5t39 -8t49 -1.5h190q32 0 48.5 1.5t38 7.5t31.5 21t12 40h170q0 -38 -10.5 -67t-24.5 -47.5t-41.5 -31.5t-49 -19.5t-62 -10t-63.5 -4t-69 -0.5h-150q-46 0 -69 0.5t-63.5 4t-62 10t-49 19.5t-41.5 31.5t-24.5 47.5t-10.5 67z" />
    <glyph glyph-name="afii10054" unicode="&#x405;" horiz-adv-x="930" 
d="M70 0v110h560q20 0 30 1t20 9.5t10 24.5v125q0 16 -10 24.5t-20 9.5t-30 1h-320h-40.5t-38 1.5t-37.5 3.5t-33 6.5t-31 11.5t-24 17t-20 23.5t-11.5 31.5t-4.5 40v85q0 22 4.5 40t11.5 31.5t20 23.5t24 17t31 11.5t33 6.5t37.5 3.5t38 1.5h40.5h500v-110h-510
q-20 0 -30 -1t-20 -9.5t-10 -24.5v-65q0 -16 10 -24.5t20 -9.5t30 -1h320h40.5t38 -1.5t37.5 -3.5t33 -6.5t31 -11.5t24 -17t20 -23.5t11.5 -31.5t4.5 -40v-145q0 -22 -4.5 -40t-11.5 -31.5t-20 -23.5t-24 -17t-31 -11.5t-33 -6.5t-37.5 -3.5t-38 -1.5h-40.5h-550z" />
    <glyph glyph-name="afii10055" unicode="&#x406;" horiz-adv-x="310" 
d="M70 0v660h170v-660h-170z" />
    <glyph glyph-name="afii10056" unicode="&#x407;" horiz-adv-x="340" 
d="M-20 755v110h135v-110h-135zM225 755v110h135v-110h-135zM85 0v660h170v-660h-170z" />
    <glyph glyph-name="afii10057" unicode="&#x408;" horiz-adv-x="930" 
d="M70 135v120h170v-110q0 -16 10 -24.5t20 -9.5t30 -1h330q20 0 30 1t20 9.5t10 24.5v515h170v-525q0 -22 -4.5 -40t-11.5 -31.5t-20 -23.5t-24 -17t-31 -11.5t-33 -6.5t-37.5 -3.5t-38 -1.5h-40.5h-310h-40.5t-38 1.5t-37.5 3.5t-33 6.5t-31 11.5t-24 17t-20 23.5
t-11.5 31.5t-4.5 40z" />
    <glyph glyph-name="afii10058" unicode="&#x409;" horiz-adv-x="1370" 
d="M40 0v110q30 5 52 12.5t46.5 25.5t38 52.5t13.5 84.5v375h540v-250h330h40.5t38 -1.5t37.5 -3.5t33 -6.5t31 -11.5t24 -17t20 -23.5t11.5 -31.5t4.5 -40v-140q0 -22 -4.5 -40t-11.5 -31.5t-20 -23.5t-24 -17t-31 -11.5t-33 -6.5t-37.5 -3.5t-38 -1.5h-40.5h-500v550h-200
v-265q0 -55 -13 -99t-32 -72.5t-50 -50t-56.5 -32.5t-62 -18.5t-57 -9.5t-49.5 -3zM730 110h340q20 0 30 1t20 9.5t10 24.5v120q0 16 -10 24.5t-20 9.5t-30 1h-340v-190z" />
    <glyph glyph-name="afii10059" unicode="&#x40a;" horiz-adv-x="1450" 
d="M70 0v660h170v-245h400v245h170v-245h330h40.5t38 -1.5t37.5 -3.5t33 -6.5t31 -11.5t24 -17t20 -23.5t11.5 -31.5t4.5 -40v-145q0 -22 -4.5 -40t-11.5 -31.5t-20 -23.5t-24 -17t-31 -11.5t-33 -6.5t-37.5 -3.5t-38 -1.5h-40.5h-500v305h-400v-305h-170zM810 110h340
q20 0 30 1t20 9.5t10 24.5v125q0 16 -10 24.5t-20 9.5t-30 1h-340v-195z" />
    <glyph glyph-name="afii10060" unicode="&#x40b;" horiz-adv-x="1180" 
d="M30 550v110h850v-110h-340v-135h330h40.5t38 -1.5t37.5 -3.5t33 -6.5t31 -11.5t24 -17t20 -23.5t11.5 -31.5t4.5 -40v-280h-170v270q0 16 -10 24.5t-20 9.5t-30 1h-340v-305h-170v550h-340z" />
    <glyph glyph-name="afii10061" unicode="&#x40c;" horiz-adv-x="860" 
d="M330 730l100 160h170l-160 -160h-110zM70 0v660h170v-350l350 350h210l-310 -310l350 -350h-210l-245 245l-145 -145v-100h-170z" />
    <glyph glyph-name="uni040D" unicode="&#x40d;" horiz-adv-x="930" 
d="M295 890h170l100 -160h-110zM70 0v660h170v-470l430 470h190v-660h-170v470l-430 -470h-190z" />
    <glyph glyph-name="afii10062" unicode="&#x40e;" horiz-adv-x="840" 
d="M250 890h95q0 -31 22 -53t53 -22t53 22t22 53h95q0 -66 -50 -113t-120 -47t-120 47t-50 113zM20 660h190l210 -315l210 315h190l-380 -570q-24 -37 -37.5 -52t-41.5 -26.5t-71 -11.5h-170v110h105q25 0 38.5 10t36.5 45l26 39z" />
    <glyph glyph-name="afii10145" unicode="&#x40f;" horiz-adv-x="930" 
d="M70 0v660h170v-550h450v550h170v-660h-320v-150h-150v150h-320z" />
    <glyph glyph-name="afii10017" unicode="&#x410;" horiz-adv-x="930" 
d="M20 0l330 660h230l330 -660h-180l-95 190h-340l-95 -190h-180zM350 300h230l-115 230z" />
    <glyph glyph-name="afii10018" unicode="&#x411;" horiz-adv-x="930" 
d="M70 0v660h740v-110h-570v-135h380h40.5t38 -1.5t37.5 -3.5t33 -6.5t31 -11.5t24 -17t20 -23.5t11.5 -31.5t4.5 -40v-145q0 -22 -4.5 -40t-11.5 -31.5t-20 -23.5t-24 -17t-31 -11.5t-33 -6.5t-37.5 -3.5t-38 -1.5h-40.5h-550zM240 110h390q20 0 30 1t20 9.5t10 24.5v120
q0 16 -10 24.5t-20 9.5t-30 1h-390v-190z" />
    <glyph glyph-name="afii10019" unicode="&#x412;" horiz-adv-x="930" 
d="M70 0v660h540h40.5t38 -1.5t37.5 -3.5t33 -6.5t31 -11.5t24 -17t20 -23.5t11.5 -31.5t4.5 -40v-60q0 -42 -23 -66.5t-57 -33.5q39 -10 64.5 -31.5t25.5 -68.5v-130q0 -22 -4.5 -40t-11.5 -31.5t-20 -23.5t-24 -17t-31 -11.5t-33 -6.5t-37.5 -3.5t-38 -1.5h-40.5h-550z
M240 110h390q20 0 30 1t20 9.5t10 24.5v125q0 16 -10 24.5t-20 9.5t-30 1h-390v-195zM240 415h380q20 0 30 1t20 9.5t10 24.5v65q0 16 -10 24.5t-20 9.5t-30 1h-380v-135z" />
    <glyph glyph-name="afii10020" unicode="&#x413;" horiz-adv-x="840" 
d="M70 0v660h740v-110h-570v-550h-170z" />
    <glyph glyph-name="afii10021" unicode="&#x414;" horiz-adv-x="1060" 
d="M40 110q114 0 167 38.5t53 136.5v375h640v-550h120v-260h-150v150h-680v-150h-150v260zM380 110h350v440h-300v-265q0 -100 -50 -175z" />
    <glyph glyph-name="afii10022" unicode="&#x415;" horiz-adv-x="880" 
d="M70 0v660h740v-110h-570v-135h520v-110h-520v-195h570v-110h-740z" />
    <glyph glyph-name="afii10024" unicode="&#x416;" horiz-adv-x="1230" 
d="M20 0l350 350l-310 310h210l260 -260v260h170v-260l260 260h210l-310 -310l350 -350h-210l-245 245l-55 -55v-190h-170v190l-55 55l-245 -245h-210z" />
    <glyph glyph-name="afii10025" unicode="&#x417;" horiz-adv-x="880" 
d="M70 0v110h510q20 0 30 1t20 9.5t10 24.5v125q0 16 -10 24.5t-20 9.5t-30 1h-420v110h420q20 0 30 1t20 9.5t10 24.5v65q0 16 -10 24.5t-20 9.5t-30 1h-510v110h500h40.5t38 -1.5t37.5 -3.5t33 -6.5t31 -11.5t24 -17t20 -23.5t11.5 -31.5t4.5 -40v-60q0 -42 -23 -66.5
t-57 -33.5q34 -9 57 -33.5t23 -66.5v-130q0 -22 -4.5 -40t-11.5 -31.5t-20 -23.5t-24 -17t-31 -11.5t-33 -6.5t-37.5 -3.5t-38 -1.5h-40.5h-500z" />
    <glyph glyph-name="afii10026" unicode="&#x418;" horiz-adv-x="930" 
d="M70 0v660h170v-470l430 470h190v-660h-170v470l-430 -470h-190z" />
    <glyph glyph-name="afii10027" unicode="&#x419;" horiz-adv-x="930" 
d="M295 890h95q0 -31 22 -53t53 -22t53 22t22 53h95q0 -66 -50 -113t-120 -47t-120 47t-50 113zM70 0v660h170v-470l430 470h190v-660h-170v470l-430 -470h-190z" />
    <glyph glyph-name="afii10028" unicode="&#x41a;" horiz-adv-x="860" 
d="M70 0v660h170v-350l350 350h210l-310 -310l350 -350h-210l-245 245l-145 -145v-100h-170z" />
    <glyph glyph-name="afii10029" unicode="&#x41b;" horiz-adv-x="950" 
d="M40 0v110q30 5 52 12.5t46.5 25.5t38 52.5t13.5 84.5v375h690v-660h-170v550h-350v-265q0 -55 -13 -99t-32 -72.5t-50 -50t-56.5 -32.5t-62 -18.5t-57 -9.5t-49.5 -3z" />
    <glyph glyph-name="afii10030" unicode="&#x41c;" horiz-adv-x="1090" 
d="M70 0v660h225l250 -500l250 500h225v-660h-170v450l-225 -450h-160l-225 450v-450h-170z" />
    <glyph glyph-name="afii10031" unicode="&#x41d;" horiz-adv-x="930" 
d="M70 0v660h170v-245h450v245h170v-660h-170v305h-450v-305h-170z" />
    <glyph glyph-name="afii10032" unicode="&#x41e;" horiz-adv-x="930" 
d="M70 135v390q0 22 4.5 40t11.5 31.5t20 23.5t24 17t31 11.5t33 6.5t37.5 3.5t38 1.5h40.5h310h40.5t38 -1.5t37.5 -3.5t33 -6.5t31 -11.5t24 -17t20 -23.5t11.5 -31.5t4.5 -40v-390q0 -22 -4.5 -40t-11.5 -31.5t-20 -23.5t-24 -17t-31 -11.5t-33 -6.5t-37.5 -3.5t-38 -1.5
h-40.5h-310h-40.5t-38 1.5t-37.5 3.5t-33 6.5t-31 11.5t-24 17t-20 23.5t-11.5 31.5t-4.5 40zM240 145q0 -16 10 -24.5t20 -9.5t30 -1h330q20 0 30 1t20 9.5t10 24.5v370q0 16 -10 24.5t-20 9.5t-30 1h-330q-20 0 -30 -1t-20 -9.5t-10 -24.5v-370z" />
    <glyph glyph-name="afii10033" unicode="&#x41f;" horiz-adv-x="930" 
d="M70 0v660h790v-660h-170v550h-450v-550h-170z" />
    <glyph glyph-name="afii10034" unicode="&#x420;" horiz-adv-x="930" 
d="M70 0v660h550h40.5t38 -1.5t37.5 -3.5t33 -6.5t31 -11.5t24 -17t20 -23.5t11.5 -31.5t4.5 -40v-140q0 -22 -4.5 -40t-11.5 -31.5t-20 -23.5t-24 -17t-31 -11.5t-33 -6.5t-37.5 -3.5t-38 -1.5h-40.5h-380v-250h-170zM240 360h390q20 0 30 1t20 9.5t10 24.5v120
q0 16 -10 24.5t-20 9.5t-30 1h-390v-190z" />
    <glyph glyph-name="afii10035" unicode="&#x421;" horiz-adv-x="880" 
d="M70 135v390q0 22 4.5 40t11.5 31.5t20 23.5t24 17t31 11.5t33 6.5t37.5 3.5t38 1.5h40.5h500v-110h-510q-20 0 -30 -1t-20 -9.5t-10 -24.5v-370q0 -16 10 -24.5t20 -9.5t30 -1h510v-110h-500h-40.5t-38 1.5t-37.5 3.5t-33 6.5t-31 11.5t-24 17t-20 23.5t-11.5 31.5
t-4.5 40z" />
    <glyph glyph-name="afii10036" unicode="&#x422;" horiz-adv-x="910" 
d="M30 550v110h850v-110h-340v-550h-170v550h-340z" />
    <glyph glyph-name="afii10037" unicode="&#x423;" horiz-adv-x="840" 
d="M20 660h190l210 -315l210 315h190l-380 -570q-24 -37 -37.5 -52t-41.5 -26.5t-71 -11.5h-170v110h105q25 0 38.5 10t36.5 45l26 39z" />
    <glyph glyph-name="afii10038" unicode="&#x424;" horiz-adv-x="1050" 
d="M70 210v240q0 22 4.5 40t11.5 31.5t20 23.5t24 17t31 11.5t33 6.5t37.5 3.5t38 1.5h40.5h130v75h170v-75h130h40.5t38 -1.5t37.5 -3.5t33 -6.5t31 -11.5t24 -17t20 -23.5t11.5 -31.5t4.5 -40v-240q0 -22 -4.5 -40t-11.5 -31.5t-20 -23.5t-24 -17t-31 -11.5t-33 -6.5
t-37.5 -3.5t-38 -1.5h-40.5h-130v-75h-170v75h-130h-40.5t-38 1.5t-37.5 3.5t-33 6.5t-31 11.5t-24 17t-20 23.5t-11.5 31.5t-4.5 40zM240 220q0 -16 10 -24.5t20 -9.5t30 -1h140v290h-140q-20 0 -30 -1t-20 -9.5t-10 -24.5v-220zM610 185h140q20 0 30 1t20 9.5t10 24.5v220
q0 16 -10 24.5t-20 9.5t-30 1h-140v-290z" />
    <glyph glyph-name="afii10039" unicode="&#x425;" horiz-adv-x="910" 
d="M20 0l330 330l-330 330h210l225 -225l225 225h210l-330 -330l330 -330h-210l-225 225l-225 -225h-210z" />
    <glyph glyph-name="afii10040" unicode="&#x426;" horiz-adv-x="1020" 
d="M70 0v660h170v-550h450v550h170v-550h120v-260h-150v150h-760z" />
    <glyph glyph-name="afii10041" unicode="&#x427;" horiz-adv-x="930" 
d="M70 385v275h170v-265q0 -16 10 -24.5t20 -9.5t30 -1h390v300h170v-660h-170v250h-380h-40.5t-38 1.5t-37.5 3.5t-33 6.5t-31 11.5t-24 17t-20 23.5t-11.5 31.5t-4.5 40z" />
    <glyph glyph-name="afii10042" unicode="&#x428;" horiz-adv-x="1150" 
d="M70 0v660h170v-550h250v550h170v-550h250v550h170v-660h-1010z" />
    <glyph glyph-name="afii10043" unicode="&#x429;" horiz-adv-x="1240" 
d="M70 0v660h170v-550h250v550h170v-550h250v550h170v-550h120v-260h-150v150h-980z" />
    <glyph glyph-name="afii10044" unicode="&#x42a;" horiz-adv-x="1080" 
d="M30 550v110h410v-245h330h40.5t38 -1.5t37.5 -3.5t33 -6.5t31 -11.5t24 -17t20 -23.5t11.5 -31.5t4.5 -40v-145q0 -22 -4.5 -40t-11.5 -31.5t-20 -23.5t-24 -17t-31 -11.5t-33 -6.5t-37.5 -3.5t-38 -1.5h-40.5h-500v550h-240zM440 110h340q20 0 30 1t20 9.5t10 24.5v125
q0 16 -10 24.5t-20 9.5t-30 1h-340v-195z" />
    <glyph glyph-name="afii10045" unicode="&#x42b;" horiz-adv-x="1150" 
d="M70 0v660h170v-245h330h40.5t38 -1.5t37.5 -3.5t33 -6.5t31 -11.5t24 -17t20 -23.5t11.5 -31.5t4.5 -40v-145q0 -22 -4.5 -40t-11.5 -31.5t-20 -23.5t-24 -17t-31 -11.5t-33 -6.5t-37.5 -3.5t-38 -1.5h-40.5h-500zM240 110h340q20 0 30 1t20 9.5t10 24.5v125
q0 16 -10 24.5t-20 9.5t-30 1h-340v-195zM910 0v660h170v-660h-170z" />
    <glyph glyph-name="afii10046" unicode="&#x42c;" horiz-adv-x="880" 
d="M70 0v660h170v-245h330h40.5t38 -1.5t37.5 -3.5t33 -6.5t31 -11.5t24 -17t20 -23.5t11.5 -31.5t4.5 -40v-145q0 -22 -4.5 -40t-11.5 -31.5t-20 -23.5t-24 -17t-31 -11.5t-33 -6.5t-37.5 -3.5t-38 -1.5h-40.5h-500zM240 110h340q20 0 30 1t20 9.5t10 24.5v125
q0 16 -10 24.5t-20 9.5t-30 1h-340v-195z" />
    <glyph glyph-name="afii10047" unicode="&#x42d;" horiz-adv-x="930" 
d="M70 180h170q2 -25 12 -40t31.5 -21t38 -7.5t48.5 -1.5h190q32 0 49 1.5t39 8t32 22.5t10 43v120h-375v110h375v60q0 27 -10 43t-32 22.5t-39 8t-49 1.5h-190q-32 0 -48.5 -1.5t-38 -7.5t-31.5 -21t-12 -40h-170q0 38 10.5 67t24.5 47.5t41.5 31.5t49 19.5t62 10t63.5 4
t69 0.5h150q46 0 69 -0.5t63.5 -4t62 -10t49 -19.5t41.5 -31.5t24.5 -47.5t10.5 -67v-300q0 -38 -10.5 -67t-24.5 -47.5t-41.5 -31.5t-49 -19.5t-62 -10t-63.5 -4t-69 -0.5h-150q-46 0 -69 0.5t-63.5 4t-62 10t-49 19.5t-41.5 31.5t-24.5 47.5t-10.5 67z" />
    <glyph glyph-name="afii10048" unicode="&#x42e;" horiz-adv-x="1250" 
d="M70 0v660h170v-275h150v140q0 22 4.5 40t11.5 31.5t20 23.5t24 17t31 11.5t33 6.5t37.5 3.5t38 1.5h40.5h310h40.5t38 -1.5t37.5 -3.5t33 -6.5t31 -11.5t24 -17t20 -23.5t11.5 -31.5t4.5 -40v-390q0 -22 -4.5 -40t-11.5 -31.5t-20 -23.5t-24 -17t-31 -11.5t-33 -6.5
t-37.5 -3.5t-38 -1.5h-40.5h-310h-40.5t-38 1.5t-37.5 3.5t-33 6.5t-31 11.5t-24 17t-20 23.5t-11.5 31.5t-4.5 40v140h-150v-275h-170zM560 145q0 -16 10 -24.5t20 -9.5t30 -1h330q20 0 30 1t20 9.5t10 24.5v370q0 16 -10 24.5t-20 9.5t-30 1h-330q-20 0 -30 -1t-20 -9.5
t-10 -24.5v-370z" />
    <glyph glyph-name="afii10049" unicode="&#x42f;" horiz-adv-x="930" 
d="M30 0l270 270q-32 0 -48 0.5t-45 3t-44.5 7t-36 14.5t-31 24t-18 36t-7.5 50v120q0 22 4.5 40t11.5 31.5t20 23.5t24 17t31 11.5t33 6.5t37.5 3.5t38 1.5h40.5h550v-660h-170v270h-180l-270 -270h-210zM240 415q0 -16 10 -24.5t20 -9.5t30 -1h390v170h-390q-20 0 -30 -1
t-20 -9.5t-10 -24.5v-100z" />
    <glyph glyph-name="afii10065" unicode="&#x430;" 
d="M60 115v70q0 28 7 48.5t23.5 32.5t31 19.5t43 10.5t45.5 3.5t50 0.5h260v55q0 14 -8.5 21t-16.5 8t-25 1h-370v95h380q33 0 50 -0.5t45.5 -3.5t43 -10.5t31 -19.5t23.5 -32.5t7 -48.5v-365h-420q-33 0 -50 0.5t-45.5 3.5t-43 10.5t-31 19.5t-23.5 32.5t-7 48.5zM220 125
q0 -14 8.5 -21t16.5 -8t25 -1h250v110h-250q-17 0 -25 -1t-16.5 -8t-8.5 -21v-50z" />
    <glyph glyph-name="afii10066" unicode="&#x431;" 
d="M60 115v310q0 62 14 100t48 66.5t103.5 42.5t165.5 20t249 6v-80q-200 0 -310 -22t-110 -78h260q33 0 50 -0.5t45.5 -3.5t43 -10.5t31 -19.5t23.5 -32.5t7 -48.5v-250q0 -28 -7 -48.5t-23.5 -32.5t-31 -19.5t-43 -10.5t-45.5 -3.5t-50 -0.5h-220q-33 0 -50 0.5t-45.5 3.5
t-43 10.5t-31 19.5t-23.5 32.5t-7 48.5zM220 125q0 -14 8.5 -21t16.5 -8t25 -1h200q17 0 25 1t16.5 8t8.5 21v230q0 14 -8.5 21t-16.5 8t-25 1h-200q-17 0 -25 -1t-16.5 -8t-8.5 -21v-230z" />
    <glyph glyph-name="afii10067" unicode="&#x432;" 
d="M60 0v480h410q33 0 50 -0.5t45.5 -3t43 -9t31 -17t23.5 -28.5t7 -42v-35q0 -74 -65 -90q75 -19 75 -90v-65q0 -24 -7 -42t-23.5 -28.5t-31 -17t-43 -9t-45.5 -3t-50 -0.5h-420zM220 95h250q17 0 25 1t16.5 6.5t8.5 17.5v60q0 17 -12.5 21t-37.5 4h-250v-110zM220 300h240
q17 0 25 1t16.5 6.5t8.5 17.5v35q0 17 -12.5 21t-37.5 4h-240v-85z" />
    <glyph glyph-name="afii10068" unicode="&#x433;" horiz-adv-x="700" 
d="M60 0v480h580v-95h-420v-385h-160z" />
    <glyph glyph-name="afii10069" unicode="&#x434;" horiz-adv-x="870" 
d="M30 95q108 0 154 26t46 104v255h520v-385h90v-220h-130v125h-550v-125h-130v220zM353 95h237v290h-200v-160q0 -79 -37 -130z" />
    <glyph glyph-name="afii10070" unicode="&#x435;" 
d="M60 115v250q0 28 7 48.5t23.5 32.5t31 19.5t43 10.5t45.5 3.5t50 0.5h220q33 0 50 -0.5t45.5 -3.5t43 -10.5t31 -19.5t23.5 -32.5t7 -48.5v-160h-460v-80q0 -14 8.5 -21t16.5 -8t25 -1h390v-95h-400q-33 0 -50 0.5t-45.5 3.5t-43 10.5t-31 19.5t-23.5 32.5t-7 48.5z
M220 300h300v55q0 14 -8.5 21t-16.5 8t-25 1h-200q-17 0 -25 -1t-16.5 -8t-8.5 -21v-55z" />
    <glyph glyph-name="afii10072" unicode="&#x436;" horiz-adv-x="980" 
d="M20 0l250 250l-230 230h190l180 -180v180h160v-180l180 180h190l-230 -230l250 -250h-190l-155 155l-45 -45v-110h-160v110l-45 45l-155 -155h-190z" />
    <glyph glyph-name="afii10073" unicode="&#x437;" horiz-adv-x="700" 
d="M60 0v95h370q17 0 25 1t16.5 8t8.5 21v50q0 14 -8.5 21t-16.5 8t-25 1h-290v95h290q17 0 25 1t16.5 8t8.5 21v25q0 14 -8.5 21t-16.5 8t-25 1h-370v95h380q33 0 50 -0.5t45.5 -3.5t43 -10.5t31 -19.5t23.5 -32.5t7 -48.5v-15q0 -71 -75 -90q75 -19 75 -90v-55
q0 -28 -7 -48.5t-23.5 -32.5t-31 -19.5t-43 -10.5t-45.5 -3.5t-50 -0.5h-380z" />
    <glyph glyph-name="afii10074" unicode="&#x438;" 
d="M60 0v480h160v-305l280 305h180v-480h-160v305l-280 -305h-180z" />
    <glyph glyph-name="afii10075" unicode="&#x439;" 
d="M200 710h95q0 -31 22 -53t53 -22t53 22t22 53h95q0 -66 -50 -113t-120 -47t-120 47t-50 113zM60 0v480h160v-305l280 305h180v-480h-160v305l-280 -305h-180z" />
    <glyph glyph-name="afii10076" unicode="&#x43a;" horiz-adv-x="670" 
d="M60 0v480h160v-220l220 220h190l-230 -230l250 -250h-190l-155 155l-85 -85v-70h-160z" />
    <glyph glyph-name="afii10077" unicode="&#x43b;" horiz-adv-x="720" 
d="M30 0v95q110 18 110 130v255h520v-480h-160v385h-200v-160q0 -42 -10.5 -76.5t-26.5 -57t-41.5 -39.5t-47 -26t-52 -15t-49 -8t-43.5 -3z" />
    <glyph glyph-name="afii10078" unicode="&#x43c;" horiz-adv-x="910" 
d="M60 0v480h225l170 -340l170 340h225v-480h-160v320l-160 -320h-150l-160 320v-320h-160z" />
    <glyph glyph-name="afii10079" unicode="&#x43d;" 
d="M60 0v480h160v-180h300v180h160v-480h-160v205h-300v-205h-160z" />
    <glyph glyph-name="afii10080" unicode="&#x43e;" 
d="M60 115v250q0 28 7 48.5t23.5 32.5t31 19.5t43 10.5t45.5 3.5t50 0.5h220q33 0 50 -0.5t45.5 -3.5t43 -10.5t31 -19.5t23.5 -32.5t7 -48.5v-250q0 -28 -7 -48.5t-23.5 -32.5t-31 -19.5t-43 -10.5t-45.5 -3.5t-50 -0.5h-220q-33 0 -50 0.5t-45.5 3.5t-43 10.5t-31 19.5
t-23.5 32.5t-7 48.5zM220 125q0 -14 8.5 -21t16.5 -8t25 -1h200q17 0 25 1t16.5 8t8.5 21v230q0 14 -8.5 21t-16.5 8t-25 1h-200q-17 0 -25 -1t-16.5 -8t-8.5 -21v-230z" />
    <glyph glyph-name="afii10081" unicode="&#x43f;" 
d="M60 0v480h620v-480h-160v385h-300v-385h-160z" />
    <glyph glyph-name="afii10082" unicode="&#x440;" 
d="M60 -225v705h420q33 0 50 -0.5t45.5 -3.5t43 -10.5t31 -19.5t23.5 -32.5t7 -48.5v-250q0 -28 -7 -48.5t-23.5 -32.5t-31 -19.5t-43 -10.5t-45.5 -3.5t-50 -0.5h-260v-225h-160zM220 95h250q17 0 25 1t16.5 8t8.5 21v230q0 14 -8.5 21t-16.5 8t-25 1h-250v-290z" />
    <glyph glyph-name="afii10083" unicode="&#x441;" horiz-adv-x="700" 
d="M60 115v250q0 28 7 48.5t23.5 32.5t31 19.5t43 10.5t45.5 3.5t50 0.5h380v-95h-370q-17 0 -25 -1t-16.5 -8t-8.5 -21v-230q0 -14 8.5 -21t16.5 -8t25 -1h370v-95h-380q-33 0 -50 0.5t-45.5 3.5t-43 10.5t-31 19.5t-23.5 32.5t-7 48.5z" />
    <glyph glyph-name="afii10084" unicode="&#x442;" horiz-adv-x="720" 
d="M60 385v95h600v-95h-220v-385h-160v385h-220z" />
    <glyph glyph-name="afii10085" unicode="&#x443;" horiz-adv-x="720" 
d="M20 480h170l170 -340l170 340h170l-300 -600q-19 -37 -32 -55.5t-43 -34t-75 -15.5h-170v95h100q32 0 42.5 7.5t22.5 32.5l30 60z" />
    <glyph glyph-name="afii10086" unicode="&#x444;" horiz-adv-x="1000" 
d="M60 115v250q0 28 7 48.5t23.5 32.5t31 19.5t43 10.5t45.5 3.5t50 0.5h160v180h160v-180h160q33 0 50 -0.5t45.5 -3.5t43 -10.5t31 -19.5t23.5 -32.5t7 -48.5v-250q0 -28 -7 -48.5t-23.5 -32.5t-31 -19.5t-43 -10.5t-45.5 -3.5t-50 -0.5h-160v-225h-160v225h-160
q-33 0 -50 0.5t-45.5 3.5t-43 10.5t-31 19.5t-23.5 32.5t-7 48.5zM220 125q0 -14 8.5 -21t16.5 -8t25 -1h150v290h-150q-17 0 -25 -1t-16.5 -8t-8.5 -21v-230zM580 95h150q17 0 25 1t16.5 8t8.5 21v230q0 14 -8.5 21t-16.5 8t-25 1h-150v-290z" />
    <glyph glyph-name="afii10087" unicode="&#x445;" horiz-adv-x="710" 
d="M690 0h-190l-145 145l-145 -145h-190l240 240l-240 240h190l145 -145l145 145h190l-240 -240z" />
    <glyph glyph-name="afii10088" unicode="&#x446;" horiz-adv-x="800" 
d="M60 0v480h160v-385h300v385h160v-385h90v-220h-130v125h-580z" />
    <glyph glyph-name="afii10089" unicode="&#x447;" 
d="M60 290v190h160v-180q0 -14 8.5 -21t16.5 -8t25 -1h250v210h160v-480h-160v175h-260q-33 0 -50 0.5t-45.5 3.5t-43 10.5t-31 19.5t-23.5 32.5t-7 48.5z" />
    <glyph glyph-name="afii10090" unicode="&#x448;" horiz-adv-x="960" 
d="M60 0v480h160v-385h180v385h160v-385h180v385h160v-480h-840z" />
    <glyph glyph-name="afii10091" unicode="&#x449;" horiz-adv-x="1020" 
d="M60 0v480h160v-385h180v385h160v-385h180v385h160v-385h90v-220h-130v125h-800z" />
    <glyph glyph-name="afii10092" unicode="&#x44a;" horiz-adv-x="860" 
d="M60 385v95h320v-180h220q33 0 50 -0.5t45.5 -3.5t43 -10.5t31 -19.5t23.5 -32.5t7 -48.5v-70q0 -28 -7 -48.5t-23.5 -32.5t-31 -19.5t-43 -10.5t-45.5 -3.5t-50 -0.5h-380v385h-160zM380 95h210q17 0 25 1t16.5 8t8.5 21v50q0 14 -8.5 21t-16.5 8t-25 1h-210v-110z" />
    <glyph glyph-name="afii10093" unicode="&#x44b;" horiz-adv-x="960" 
d="M60 0v480h160v-180h220q33 0 50 -0.5t45.5 -3.5t43 -10.5t31 -19.5t23.5 -32.5t7 -48.5v-70q0 -28 -7 -48.5t-23.5 -32.5t-31 -19.5t-43 -10.5t-45.5 -3.5t-50 -0.5h-380zM220 95h210q17 0 25 1t16.5 8t8.5 21v50q0 14 -8.5 21t-16.5 8t-25 1h-210v-110zM740 0v480h160
v-480h-160z" />
    <glyph glyph-name="afii10094" unicode="&#x44c;" horiz-adv-x="700" 
d="M60 0v480h160v-180h220q33 0 50 -0.5t45.5 -3.5t43 -10.5t31 -19.5t23.5 -32.5t7 -48.5v-70q0 -28 -7 -48.5t-23.5 -32.5t-31 -19.5t-43 -10.5t-45.5 -3.5t-50 -0.5h-380zM220 95h210q17 0 25 1t16.5 8t8.5 21v50q0 14 -8.5 21t-16.5 8t-25 1h-210v-110z" />
    <glyph glyph-name="afii10095" unicode="&#x44d;" 
d="M60 150h160q0 -16 6 -27t14 -16.5t24 -8t26 -3t30 -0.5h100q20 0 30 0.5t26 3t24 8t14 16.5t6 27v55h-230v95h230v30q0 16 -6 27t-14 16.5t-24 8t-26 3t-30 0.5h-100q-20 0 -30 -0.5t-26 -3t-24 -8t-14 -16.5t-6 -27h-160q1 31 10.5 55.5t22 40t36.5 26.5t42.5 16.5
t53.5 8t55 3t60 0.5h60h48t45 -1.5t44.5 -4.5t38.5 -8.5t35.5 -13t27.5 -20t22.5 -28t13 -37t5.5 -47.5v-160q0 -29 -5.5 -52.5t-19 -40t-26.5 -28.5t-37 -19t-41 -11.5t-48.5 -6t-49.5 -2t-53 -0.5h-60q-40 0 -60 0.5t-55 3t-53.5 8t-42.5 16.5t-36.5 26.5t-22 40
t-10.5 55.5z" />
    <glyph glyph-name="afii10096" unicode="&#x44e;" horiz-adv-x="1040" 
d="M60 0v480h160v-200h140v85q0 28 7 48.5t23.5 32.5t31 19.5t43 10.5t45.5 3.5t50 0.5h220q33 0 50 -0.5t45.5 -3.5t43 -10.5t31 -19.5t23.5 -32.5t7 -48.5v-250q0 -28 -7 -48.5t-23.5 -32.5t-31 -19.5t-43 -10.5t-45.5 -3.5t-50 -0.5h-220q-33 0 -50 0.5t-45.5 3.5
t-43 10.5t-31 19.5t-23.5 32.5t-7 48.5v70h-140v-185h-160zM520 105q0 -14 8.5 -21t16.5 -8t25 -1h200q17 0 25 1t16.5 8t8.5 21v270q0 14 -8.5 21t-16.5 8t-25 1h-200q-17 0 -25 -1t-16.5 -8t-8.5 -21v-270z" />
    <glyph glyph-name="afii10097" unicode="&#x44f;" 
d="M40 0l195 195q-31 0 -53 2t-47 8.5t-40 18.5t-25 34t-10 52v55q0 28 7 48.5t23.5 32.5t31 19.5t43 10.5t45.5 3.5t50 0.5h420v-480h-160v195h-95l-195 -195h-190zM220 320q0 -14 8.5 -21t16.5 -8t25 -1h250v95h-250q-17 0 -25 -1t-16.5 -8t-8.5 -21v-35z" />
    <glyph glyph-name="uni0450" unicode="&#x450;" 
d="M200 710h170l100 -160h-110zM60 115v250q0 28 7 48.5t23.5 32.5t31 19.5t43 10.5t45.5 3.5t50 0.5h220q33 0 50 -0.5t45.5 -3.5t43 -10.5t31 -19.5t23.5 -32.5t7 -48.5v-160h-460v-80q0 -14 8.5 -21t16.5 -8t25 -1h390v-95h-400q-33 0 -50 0.5t-45.5 3.5t-43 10.5
t-31 19.5t-23.5 32.5t-7 48.5zM220 300h300v55q0 14 -8.5 21t-16.5 8t-25 1h-200q-17 0 -25 -1t-16.5 -8t-8.5 -21v-55z" />
    <glyph glyph-name="afii10071" unicode="&#x451;" 
d="M180 575v110h135v-110h-135zM425 575v110h135v-110h-135zM60 115v250q0 28 7 48.5t23.5 32.5t31 19.5t43 10.5t45.5 3.5t50 0.5h220q33 0 50 -0.5t45.5 -3.5t43 -10.5t31 -19.5t23.5 -32.5t7 -48.5v-160h-460v-80q0 -14 8.5 -21t16.5 -8t25 -1h390v-95h-400
q-33 0 -50 0.5t-45.5 3.5t-43 10.5t-31 19.5t-23.5 32.5t-7 48.5zM220 300h300v55q0 14 -8.5 21t-16.5 8t-25 1h-200q-17 0 -25 -1t-16.5 -8t-8.5 -21v-55z" />
    <glyph glyph-name="afii10099" unicode="&#x452;" horiz-adv-x="780" 
d="M20 505v80h80v75h160v-75h220v-80h-220v-100h260q33 0 50 -0.5t45.5 -3t43 -9t31 -17t23.5 -28.5t7 -42v-305q0 -42 -10.5 -76.5t-26.5 -57t-41.5 -39.5t-47 -26t-52 -15t-49 -8t-43.5 -3v95q110 18 110 130v285q0 17 -12.5 21t-37.5 4h-250v-310h-160v505h-80z" />
    <glyph glyph-name="afii10100" unicode="&#x453;" horiz-adv-x="700" 
d="M250 550l100 160h170l-160 -160h-110zM60 0v480h580v-95h-420v-385h-160z" />
    <glyph glyph-name="afii10101" unicode="&#x454;" 
d="M60 160v160q0 26 5.5 47.5t13 37t22.5 28t27.5 20t35.5 13t38.5 8.5t44.5 4.5t45 1.5h48h60q40 0 60 -0.5t55 -3t53.5 -8t42.5 -16.5t36.5 -26.5t22 -40t10.5 -55.5h-160q0 16 -6 27t-14 16.5t-24 8t-26 3t-30 0.5h-100q-20 0 -30 -0.5t-26 -3t-24 -8t-14 -16.5t-6 -27
v-30h230v-95h-230v-55q0 -16 6 -27t14 -16.5t24 -8t26 -3t30 -0.5h100q20 0 30 0.5t26 3t24 8t14 16.5t6 27h160q-1 -31 -10.5 -55.5t-22 -40t-36.5 -26.5t-42.5 -16.5t-53.5 -8t-55 -3t-60 -0.5h-60q-35 0 -53 0.5t-49.5 2t-48.5 6t-41 11.5t-37 19t-26.5 28.5t-19 40
t-5.5 52.5z" />
    <glyph glyph-name="afii10102" unicode="&#x455;" 
d="M60 0v95h410q17 0 25 1t16.5 8t8.5 21v50q0 14 -8.5 21t-16.5 8t-25 1h-210q-33 0 -50 0.5t-45.5 3.5t-43 10.5t-31 19.5t-23.5 32.5t-7 48.5v45q0 28 7 48.5t23.5 32.5t31 19.5t43 10.5t45.5 3.5t50 0.5h380v-95h-370q-17 0 -25 -1t-16.5 -8t-8.5 -21v-25q0 -14 8.5 -21
t16.5 -8t25 -1h210q33 0 50 -0.5t45.5 -3.5t43 -10.5t31 -19.5t23.5 -32.5t7 -48.5v-70q0 -28 -7 -48.5t-23.5 -32.5t-31 -19.5t-43 -10.5t-45.5 -3.5t-50 -0.5h-420z" />
    <glyph glyph-name="afii10103" unicode="&#x456;" horiz-adv-x="280" 
d="M60 0v480h160v-480h-160zM60 565v95h160v-95h-160z" />
    <glyph glyph-name="afii10104" unicode="&#x457;" horiz-adv-x="340" 
d="M-20 575v110h135v-110h-135zM225 575v110h135v-110h-135zM90 0v480h160v-480h-160z" />
    <glyph glyph-name="afii10105" unicode="&#x458;" horiz-adv-x="280" 
d="M-50 -130q110 18 110 130v480h160v-480q0 -42 -10.5 -76.5t-26.5 -57t-41.5 -39.5t-47 -26t-52 -15t-49 -8t-43.5 -3v95zM60 565v95h160v-95h-160z" />
    <glyph glyph-name="afii10106" unicode="&#x459;" horiz-adv-x="1080" 
d="M30 0v95q110 18 110 130v255h460v-180h220q33 0 50 -0.5t45.5 -3.5t43 -10.5t31 -19.5t23.5 -32.5t7 -48.5v-70q0 -28 -7 -48.5t-23.5 -32.5t-31 -19.5t-43 -10.5t-45.5 -3.5t-50 -0.5h-380v385h-140v-160q0 -42 -10.5 -76.5t-26.5 -57t-41.5 -39.5t-47 -26t-52 -15
t-49 -8t-43.5 -3zM600 95h210q17 0 25 1t16.5 8t8.5 21v50q0 14 -8.5 21t-16.5 8t-25 1h-210v-110z" />
    <glyph glyph-name="afii10107" unicode="&#x45a;" horiz-adv-x="1120" 
d="M60 0v480h160v-180h260v180h160v-180h220q33 0 50 -0.5t45.5 -3.5t43 -10.5t31 -19.5t23.5 -32.5t7 -48.5v-70q0 -28 -7 -48.5t-23.5 -32.5t-31 -19.5t-43 -10.5t-45.5 -3.5t-50 -0.5h-380v205h-260v-205h-160zM640 95h210q17 0 25 1t16.5 8t8.5 21v50q0 14 -8.5 21
t-16.5 8t-25 1h-210v-110z" />
    <glyph glyph-name="afii10108" unicode="&#x45b;" horiz-adv-x="780" 
d="M20 500v80h80v80h160v-80h220v-80h-220v-95h260q33 0 50 -0.5t45.5 -3.5t43 -10.5t31 -19.5t23.5 -32.5t7 -48.5v-290h-160v280q0 14 -8.5 21t-16.5 8t-25 1h-250v-310h-160v500h-80z" />
    <glyph glyph-name="afii10109" unicode="&#x45c;" horiz-adv-x="670" 
d="M235 550l100 160h170l-160 -160h-110zM60 0v480h160v-220l220 220h190l-230 -230l250 -250h-190l-155 155l-85 -85v-70h-160z" />
    <glyph glyph-name="uni045D" unicode="&#x45d;" 
d="M200 710h170l100 -160h-110zM60 0v480h160v-305l280 305h180v-480h-160v305l-280 -305h-180z" />
    <glyph glyph-name="afii10110" unicode="&#x45e;" horiz-adv-x="720" 
d="M190 710h95q0 -31 22 -53t53 -22t53 22t22 53h95q0 -66 -50 -113t-120 -47t-120 47t-50 113zM20 480h170l170 -340l170 340h170l-300 -600q-19 -37 -32 -55.5t-43 -34t-75 -15.5h-170v95h100q32 0 42.5 7.5t22.5 32.5l30 60z" />
    <glyph glyph-name="afii10193" unicode="&#x45f;" 
d="M60 0v480h160v-405h300v405h160v-480h-245v-125h-130v125h-245z" />
    <glyph glyph-name="afii10146" unicode="&#x462;" horiz-adv-x="960" 
d="M20 500v95h80v65h170v-65h225v-95h-225v-85h380h40.5t38 -1.5t37.5 -3.5t33 -6.5t31 -11.5t24 -17t20 -23.5t11.5 -31.5t4.5 -40v-145q0 -22 -4.5 -40t-11.5 -31.5t-20 -23.5t-24 -17t-31 -11.5t-33 -6.5t-37.5 -3.5t-38 -1.5h-40.5h-550v500h-80zM270 110h390q20 0 30 1
t20 9.5t10 24.5v125q0 16 -10 24.5t-20 9.5t-30 1h-390v-195z" />
    <glyph glyph-name="afii10194" unicode="&#x463;" horiz-adv-x="760" 
d="M20 355v80h60v45h160v-45h150v-80h-150v-55h260q33 0 50 -0.5t45.5 -3.5t43 -10.5t31 -19.5t23.5 -32.5t7 -48.5v-70q0 -28 -7 -48.5t-23.5 -32.5t-31 -19.5t-43 -10.5t-45.5 -3.5t-50 -0.5h-420v355h-60zM240 95h250q17 0 25 1t16.5 8t8.5 21v50q0 14 -8.5 21t-16.5 8
t-25 1h-250v-110z" />
    <glyph glyph-name="afii10147" unicode="&#x472;" horiz-adv-x="930" 
d="M70 135v390q0 22 4.5 40t11.5 31.5t20 23.5t24 17t31 11.5t33 6.5t37.5 3.5t38 1.5h40.5h310h40.5t38 -1.5t37.5 -3.5t33 -6.5t31 -11.5t24 -17t20 -23.5t11.5 -31.5t4.5 -40v-390q0 -22 -4.5 -40t-11.5 -31.5t-20 -23.5t-24 -17t-31 -11.5t-33 -6.5t-37.5 -3.5t-38 -1.5
h-40.5h-310h-40.5t-38 1.5t-37.5 3.5t-33 6.5t-31 11.5t-24 17t-20 23.5t-11.5 31.5t-4.5 40zM240 145q0 -16 10 -24.5t20 -9.5t30 -1h330q20 0 30 1t20 9.5t10 24.5v160h-450v-160zM240 415h450v100q0 16 -10 24.5t-20 9.5t-30 1h-330q-20 0 -30 -1t-20 -9.5t-10 -24.5
v-100z" />
    <glyph glyph-name="afii10195" unicode="&#x473;" 
d="M60 115v250q0 28 7 48.5t23.5 32.5t31 19.5t43 10.5t45.5 3.5t50 0.5h220q33 0 50 -0.5t45.5 -3.5t43 -10.5t31 -19.5t23.5 -32.5t7 -48.5v-250q0 -28 -7 -48.5t-23.5 -32.5t-31 -19.5t-43 -10.5t-45.5 -3.5t-50 -0.5h-220q-33 0 -50 0.5t-45.5 3.5t-43 10.5t-31 19.5
t-23.5 32.5t-7 48.5zM220 125q0 -14 8.5 -21t16.5 -8t25 -1h200q17 0 25 1t16.5 8t8.5 21v80h-300v-80zM220 300h300v55q0 14 -8.5 21t-16.5 8t-25 1h-200q-17 0 -25 -1t-16.5 -8t-8.5 -21v-55z" />
    <glyph glyph-name="afii10148" unicode="&#x474;" horiz-adv-x="1010" 
d="M20 660h180l265 -530l205 410q14 29 24 44t29.5 36t48.5 30.5t68 9.5h140v-110h-75q-35 0 -48 -11t-30 -45l-247 -494h-230z" />
    <glyph glyph-name="afii10196" unicode="&#x475;" horiz-adv-x="820" 
d="M20 480h170l170 -340l118 236q18 37 31.5 55.5t43.5 33.5t75 15h132v-95h-62q-32 0 -42.5 -7t-22.5 -32l-173 -346h-200z" />
    <glyph glyph-name="uni048C" unicode="&#x48c;" horiz-adv-x="960" 
d="M20 500v95h80v65h170v-65h225v-95h-225v-85h380h40.5t38 -1.5t37.5 -3.5t33 -6.5t31 -11.5t24 -17t20 -23.5t11.5 -31.5t4.5 -40v-145q0 -22 -4.5 -40t-11.5 -31.5t-20 -23.5t-24 -17t-31 -11.5t-33 -6.5t-37.5 -3.5t-38 -1.5h-40.5h-550v500h-80zM270 110h390q20 0 30 1
t20 9.5t10 24.5v125q0 16 -10 24.5t-20 9.5t-30 1h-390v-195z" />
    <glyph glyph-name="uni048D" unicode="&#x48d;" horiz-adv-x="760" 
d="M20 355v80h60v45h160v-45h150v-80h-150v-55h260q33 0 50 -0.5t45.5 -3.5t43 -10.5t31 -19.5t23.5 -32.5t7 -48.5v-70q0 -28 -7 -48.5t-23.5 -32.5t-31 -19.5t-43 -10.5t-45.5 -3.5t-50 -0.5h-420v355h-60zM240 95h250q17 0 25 1t16.5 8t8.5 21v50q0 14 -8.5 21t-16.5 8
t-25 1h-250v-110z" />
    <glyph glyph-name="uni048E" unicode="&#x48e;" horiz-adv-x="930" 
d="M70 0v660h550h40.5t38 -1.5t37.5 -3.5t33 -6.5t31 -11.5t24 -17t20 -23.5t11.5 -31.5t4.5 -40v-140q0 -22 -4.5 -40t-11.5 -31.5t-20 -23.5t-24 -17t-31 -11.5t-33 -6.5t-37.5 -3.5t-38 -1.5h-40.5l50 -50l-70 -70l-120 120h-240v-250h-170zM240 360h130l-50 50l70 70
l120 -120h120q20 0 30 1t20 9.5t10 24.5v120q0 16 -10 24.5t-20 9.5t-30 1h-390v-190z" />
    <glyph glyph-name="uni048F" unicode="&#x48f;" 
d="M60 -225v705h420q33 0 50 -0.5t45.5 -3.5t43 -10.5t31 -19.5t23.5 -32.5t7 -48.5v-250q0 -61 -35 -86t-110 -29l50 -50l-60 -60l-110 110h-195v-225h-160zM220 95h100l-50 50l60 60l110 -110h30q17 0 25 1t16.5 8t8.5 21v230q0 14 -8.5 21t-16.5 8t-25 1h-250v-290z" />
    <glyph glyph-name="afii10050" unicode="&#x490;" horiz-adv-x="840" 
d="M70 0v660h590v150h150v-260h-570v-550h-170z" />
    <glyph glyph-name="afii10098" unicode="&#x491;" horiz-adv-x="700" 
d="M60 0v480h450v125h130v-220h-420v-385h-160z" />
    <glyph glyph-name="uni0492" unicode="&#x492;" horiz-adv-x="870" 
d="M20 310v95h80v255h740v-110h-570v-145h225v-95h-225v-310h-170v310h-80z" />
    <glyph glyph-name="uni0493" unicode="&#x493;" horiz-adv-x="720" 
d="M20 200v85h60v195h580v-95h-420v-100h150v-85h-150v-200h-160v200h-60z" />
    <glyph glyph-name="uni0494" unicode="&#x494;" horiz-adv-x="930" 
d="M70 0v660h720v-110h-550v-135h380h40.5t38 -1.5t37.5 -3.5t33 -6.5t31 -11.5t24 -17t20 -23.5t11.5 -31.5t4.5 -40v-220q0 -55 -13 -99t-32 -72.5t-50 -50t-56.5 -32.5t-62 -18.5t-57 -9.5t-49.5 -3v110q30 5 52 12.5t46.5 25.5t38 52.5t13.5 84.5v210q0 16 -10 24.5
t-20 9.5t-30 1h-390v-305h-170z" />
    <glyph glyph-name="uni0495" unicode="&#x495;" 
d="M60 0v480h580v-95h-420v-85h260q33 0 50 -0.5t45.5 -3t43 -9t31 -17t23.5 -28.5t7 -42v-200q0 -42 -10.5 -76.5t-26.5 -57t-41.5 -39.5t-47 -26t-52 -15t-49 -8t-43.5 -3v95q110 18 110 130v180q0 17 -12.5 21t-37.5 4h-250v-205h-160z" />
    <glyph glyph-name="uni0496" unicode="&#x496;" horiz-adv-x="1270" 
d="M20 0l350 350l-310 310h210l260 -260v260h170v-260l260 260h210l-310 -310l265 -265h105v-235h-150v150h-80l-245 245l-55 -55v-190h-170v190l-55 55l-245 -245h-210z" />
    <glyph glyph-name="uni0497" unicode="&#x497;" horiz-adv-x="1000" 
d="M20 0l250 250l-230 230h190l180 -180v180h160v-180l180 180h190l-230 -230l175 -175h85v-200h-130v125h-70l-155 155l-45 -45v-110h-160v110l-45 45l-155 -155h-190z" />
    <glyph glyph-name="uni0498" unicode="&#x498;" horiz-adv-x="880" 
d="M350 -155h30q70 0 70 40q0 16 -16 39t-69 76h115q55 -55 72.5 -80.5t17.5 -54.5q0 -38 -25 -59t-56.5 -26t-78.5 -5h-60v70zM70 0v110h510q20 0 30 1t20 9.5t10 24.5v125q0 16 -10 24.5t-20 9.5t-30 1h-420v110h420q20 0 30 1t20 9.5t10 24.5v65q0 16 -10 24.5t-20 9.5
t-30 1h-510v110h500h40.5t38 -1.5t37.5 -3.5t33 -6.5t31 -11.5t24 -17t20 -23.5t11.5 -31.5t4.5 -40v-60q0 -42 -23 -66.5t-57 -33.5q34 -9 57 -33.5t23 -66.5v-130q0 -22 -4.5 -40t-11.5 -31.5t-20 -23.5t-24 -17t-31 -11.5t-33 -6.5t-37.5 -3.5t-38 -1.5h-40.5h-500z" />
    <glyph glyph-name="uni0499" unicode="&#x499;" horiz-adv-x="700" 
d="M240 -155h30q70 0 70 40q0 16 -16 39t-69 76h115q55 -55 72.5 -80.5t17.5 -54.5q0 -38 -25 -59t-56.5 -26t-78.5 -5h-60v70zM60 0v95h370q17 0 25 1t16.5 8t8.5 21v50q0 14 -8.5 21t-16.5 8t-25 1h-290v95h290q17 0 25 1t16.5 8t8.5 21v25q0 14 -8.5 21t-16.5 8t-25 1
h-370v95h380q33 0 50 -0.5t45.5 -3.5t43 -10.5t31 -19.5t23.5 -32.5t7 -48.5v-15q0 -71 -75 -90q75 -19 75 -90v-55q0 -28 -7 -48.5t-23.5 -32.5t-31 -19.5t-43 -10.5t-45.5 -3.5t-50 -0.5h-380z" />
    <glyph glyph-name="uni049A" unicode="&#x49a;" horiz-adv-x="900" 
d="M70 0v660h170v-350l350 350h210l-310 -310l265 -265h105v-235h-150v150h-80l-245 245l-145 -145v-100h-170z" />
    <glyph glyph-name="uni049B" unicode="&#x49b;" horiz-adv-x="690" 
d="M60 0v480h160v-220l220 220h190l-230 -230l175 -175h85v-200h-130v125h-70l-155 155l-85 -85v-70h-160z" />
    <glyph glyph-name="uni049C" unicode="&#x49c;" horiz-adv-x="860" 
d="M70 0v660h170v-350l65 65v205h95v-110l190 190h210l-310 -310l350 -350h-210l-230 230v-175h-95v110l-65 -65v-100h-170z" />
    <glyph glyph-name="uni049D" unicode="&#x49d;" horiz-adv-x="690" 
d="M60 0v480h160v-240l50 50v150h80v-70l110 110h190l-230 -230l250 -250h-190l-130 130v-100h-80v70l-50 -50v-50h-160z" />
    <glyph glyph-name="uni049E" unicode="&#x49e;" horiz-adv-x="890" 
d="M20 485v95h80v80h170v-80h80v-95h-80v-175l350 350h210l-310 -310l350 -350h-210l-245 245l-145 -145v-100h-170v485h-80z" />
    <glyph glyph-name="uni049F" unicode="&#x49f;" horiz-adv-x="710" 
d="M20 340v80h60v60h160v-60h60v-80h-60v-100l240 240h190l-230 -230l250 -250h-190l-155 155l-105 -105v-50h-160v340h-60z" />
    <glyph glyph-name="uni04A0" unicode="&#x4a0;" horiz-adv-x="1060" 
d="M30 550v110h410v-350l350 350h210l-310 -310l350 -350h-210l-245 245l-145 -145v-100h-170v550h-240z" />
    <glyph glyph-name="uni04A1" unicode="&#x4a1;" horiz-adv-x="830" 
d="M60 385v95h320v-220l220 220h190l-230 -230l250 -250h-190l-155 155l-85 -85v-70h-160v385h-160z" />
    <glyph glyph-name="uni04A2" unicode="&#x4a2;" horiz-adv-x="1020" 
d="M70 0v660h170v-245h450v245h170v-575h120v-235h-150v150h-140v305h-450v-305h-170z" />
    <glyph glyph-name="uni04A3" unicode="&#x4a3;" horiz-adv-x="800" 
d="M60 0v480h160v-180h300v180h160v-385h90v-220h-130v125h-120v205h-300v-205h-160z" />
    <glyph glyph-name="uni04A4" unicode="&#x4a4;" horiz-adv-x="1290" 
d="M70 0v660h170v-245h450v245h570v-110h-400v-550h-170v305h-450v-305h-170z" />
    <glyph glyph-name="uni04A5" unicode="&#x4a5;" horiz-adv-x="1000" 
d="M60 0v480h160v-180h300v180h420v-95h-260v-385h-160v205h-300v-205h-160z" />
    <glyph glyph-name="uni04A6" unicode="&#x4a6;" horiz-adv-x="1450" 
d="M70 0v660h740v-245h330h40.5t38 -1.5t37.5 -3.5t33 -6.5t31 -11.5t24 -17t20 -23.5t11.5 -31.5t4.5 -40v-220q0 -55 -13 -99t-32 -72.5t-50 -50t-56.5 -32.5t-62 -18.5t-57 -9.5t-49.5 -3v110q30 5 52 12.5t46.5 25.5t38 52.5t13.5 84.5v210q0 16 -10 24.5t-20 9.5t-30 1
h-340v-305h-170v550h-400v-550h-170z" />
    <glyph glyph-name="uni04A7" unicode="&#x4a7;" horiz-adv-x="1120" 
d="M60 0v480h580v-180h220q33 0 50 -0.5t45.5 -3.5t43 -10.5t31 -19.5t23.5 -32.5t7 -48.5v-185q0 -42 -10.5 -76.5t-26.5 -57t-41.5 -39.5t-47 -26t-52 -15t-49 -8t-43.5 -3v95q110 18 110 130v175q0 14 -8.5 21t-16.5 8t-25 1h-210v-205h-160v385h-260v-385h-160z" />
    <glyph glyph-name="uni04A8" unicode="&#x4a8;" horiz-adv-x="1180" 
d="M70 180v300q0 38 10.5 67t24.5 47.5t41.5 31.5t49 19.5t62 10t63.5 4t69 0.5h150v-110h-170q-32 0 -49 -1.5t-39 -8t-32 -22.5t-10 -43v-290q0 -27 10 -43t32 -22.5t39 -8t49 -1.5h40q-20 30 -20 85v105q0 38 10.5 67t24.5 47.5t41.5 31.5t49 19.5t62 10t63.5 4t69 0.5
t69 -0.5t63.5 -4t62 -10t49 -19.5t41.5 -31.5t24.5 -47.5t10.5 -67v-105q0 -55 -20 -85h100v-110h-720q-46 0 -69 0.5t-63.5 4t-62 10t-49 19.5t-41.5 31.5t-24.5 47.5t-10.5 67zM560 185q0 -22 8.5 -36.5t19 -22t34 -11.5t39.5 -4.5t49 -0.5t49 0.5t39.5 4.5t34 11.5t19 22
t8.5 36.5v110q0 22 -8.5 36.5t-19 22t-34 11.5t-39.5 4.5t-49 0.5t-49 -0.5t-39.5 -4.5t-34 -11.5t-19 -22t-8.5 -36.5v-110z" />
    <glyph glyph-name="uni04A9" unicode="&#x4a9;" horiz-adv-x="1020" 
d="M60 160v160q0 29 5.5 52.5t19 40t26.5 28.5t37 19t41 11.5t48.5 6t49.5 2t53 0.5h160v-95h-180q-20 0 -30 -0.5t-26 -3t-24 -8t-14 -16.5t-6 -27v-180q0 -16 6 -27t14 -16.5t24 -8t26 -3t30 -0.5h55q-15 30 -15 70v10q0 25 5.5 46t13.5 36t23.5 27t28.5 19.5t35.5 13
t37.5 8t42 4t41.5 1.5h42.5h42.5t41.5 -1.5t42 -4t37.5 -8t35.5 -13t28.5 -19.5t23.5 -27t13.5 -36t5.5 -46v-10q0 -40 -15 -70h75v-95h-620q-35 0 -53 0.5t-49.5 2t-48.5 6t-41 11.5t-37 19t-26.5 28.5t-19 40t-5.5 52.5zM520 150q0 -16 6.5 -27t14.5 -16.5t25 -8t28.5 -3
t35.5 -0.5t35.5 0.5t28.5 3t25 8t14.5 16.5t6.5 27v30q0 16 -6.5 27t-14.5 16.5t-25 8t-28.5 3t-35.5 0.5t-35.5 -0.5t-28.5 -3t-25 -8t-14.5 -16.5t-6.5 -27v-30z" />
    <glyph glyph-name="uni04AA" unicode="&#x4aa;" horiz-adv-x="880" 
d="M380 -155h30q70 0 70 40q0 16 -16 39t-69 76h115q55 -55 72.5 -80.5t17.5 -54.5q0 -38 -25 -59t-56.5 -26t-78.5 -5h-60v70zM70 135v390q0 22 4.5 40t11.5 31.5t20 23.5t24 17t31 11.5t33 6.5t37.5 3.5t38 1.5h40.5h500v-110h-510q-20 0 -30 -1t-20 -9.5t-10 -24.5v-370
q0 -16 10 -24.5t20 -9.5t30 -1h510v-110h-500h-40.5t-38 1.5t-37.5 3.5t-33 6.5t-31 11.5t-24 17t-20 23.5t-11.5 31.5t-4.5 40z" />
    <glyph glyph-name="uni04AB" unicode="&#x4ab;" horiz-adv-x="700" 
d="M290 -155h30q70 0 70 40q0 16 -16 39t-69 76h115q55 -55 72.5 -80.5t17.5 -54.5q0 -38 -25 -59t-56.5 -26t-78.5 -5h-60v70zM60 115v250q0 28 7 48.5t23.5 32.5t31 19.5t43 10.5t45.5 3.5t50 0.5h380v-95h-370q-17 0 -25 -1t-16.5 -8t-8.5 -21v-230q0 -14 8.5 -21
t16.5 -8t25 -1h370v-95h-380q-33 0 -50 0.5t-45.5 3.5t-43 10.5t-31 19.5t-23.5 32.5t-7 48.5z" />
    <glyph glyph-name="uni04AC" unicode="&#x4ac;" horiz-adv-x="910" 
d="M30 550v110h850v-110h-340v-440h120v-260h-150v150h-140v550h-340z" />
    <glyph glyph-name="uni04AD" unicode="&#x4ad;" horiz-adv-x="720" 
d="M60 385v95h600v-95h-220v-310h90v-200h-130v125h-120v385h-220z" />
    <glyph glyph-name="uni04AE" unicode="&#x4ae;" horiz-adv-x="910" 
d="M20 660h210l225 -225l225 225h210l-350 -350v-310h-170v310z" />
    <glyph glyph-name="uni04AF" unicode="&#x4af;" horiz-adv-x="720" 
d="M20 480h170l170 -340l170 340h170l-260 -520v-185h-160v185z" />
    <glyph glyph-name="uni04B0" unicode="&#x4b0;" horiz-adv-x="910" 
d="M20 660h210l225 -225l225 225h210l-350 -350v-90h175v-95h-175v-125h-170v125h-175v95h175v90z" />
    <glyph glyph-name="uni04B1" unicode="&#x4b1;" horiz-adv-x="720" 
d="M20 480h170l170 -340l170 340h170l-260 -520v-45h125v-80h-125v-60h-160v60h-125v80h125v45z" />
    <glyph glyph-name="uni04B2" unicode="&#x4b2;" horiz-adv-x="950" 
d="M910 110v-260h-150v150h-80l-225 225l-225 -225h-210l330 330l-330 330h210l225 -225l225 225h210l-330 -330l220 -220h130z" />
    <glyph glyph-name="uni04B3" unicode="&#x4b3;" horiz-adv-x="730" 
d="M20 0l240 240l-240 240h190l145 -145l145 145h190l-240 -240l145 -145h105v-220h-130v125h-70l-145 145l-145 -145h-190z" />
    <glyph glyph-name="uni04B4" unicode="&#x4b4;" horiz-adv-x="1320" 
d="M30 550v110h850v-110h-340v-440h450v550h170v-550h120v-260h-150v150h-760v550h-340z" />
    <glyph glyph-name="uni04B5" unicode="&#x4b5;" horiz-adv-x="1020" 
d="M60 385v95h600v-95h-220v-290h300v385h160v-385h90v-220h-130v125h-580v385h-220z" />
    <glyph glyph-name="uni04B6" unicode="&#x4b6;" horiz-adv-x="1020" 
d="M70 385v275h170v-265q0 -16 10 -24.5t20 -9.5t30 -1h390v300h170v-575h120v-235h-150v150h-140v250h-380h-40.5t-38 1.5t-37.5 3.5t-33 6.5t-31 11.5t-24 17t-20 23.5t-11.5 31.5t-4.5 40z" />
    <glyph glyph-name="uni04B7" unicode="&#x4b7;" horiz-adv-x="800" 
d="M60 290v190h160v-180q0 -14 8.5 -21t16.5 -8t25 -1h250v210h160v-385h90v-220h-130v125h-120v175h-260q-33 0 -50 0.5t-45.5 3.5t-43 10.5t-31 19.5t-23.5 32.5t-7 48.5z" />
    <glyph glyph-name="uni04B8" unicode="&#x4b8;" horiz-adv-x="930" 
d="M70 385v275h170v-265q0 -16 10 -24.5t20 -9.5t30 -1h120v135h95v-135h175v300h170v-660h-170v250h-175v-135h-95v135h-110h-40.5t-38 1.5t-37.5 3.5t-33 6.5t-31 11.5t-24 17t-20 23.5t-11.5 31.5t-4.5 40z" />
    <glyph glyph-name="uni04B9" unicode="&#x4b9;" 
d="M60 290v190h160v-180q0 -14 8.5 -21t16.5 -8t25 -1h60v100h80v-100h110v210h160v-480h-160v175h-110v-100h-80v100h-70q-33 0 -50 0.5t-45.5 3.5t-43 10.5t-31 19.5t-23.5 32.5t-7 48.5z" />
    <glyph glyph-name="uni04BA" unicode="&#x4ba;" horiz-adv-x="930" 
d="M70 0v660h170v-245h380h40.5t38 -1.5t37.5 -3.5t33 -6.5t31 -11.5t24 -17t20 -23.5t11.5 -31.5t4.5 -40v-280h-170v270q0 16 -10 24.5t-20 9.5t-30 1h-390v-305h-170z" />
    <glyph glyph-name="uni04BB" unicode="&#x4bb;" 
d="M60 0v480h160v-180h260q33 0 50 -0.5t45.5 -3.5t43 -10.5t31 -19.5t23.5 -32.5t7 -48.5v-185h-160v175q0 14 -8.5 21t-16.5 8t-25 1h-250v-205h-160z" />
    <glyph glyph-name="uni04BC" unicode="&#x4bc;" horiz-adv-x="1140" 
d="M40 440v70h150v-60q0 -16 10 -24.5t20 -9.5t30 -1h30v65q0 38 10.5 67t24.5 47.5t41.5 31.5t49 19.5t62 10t63.5 4t69 0.5h150q46 0 69 -0.5t63.5 -4t62 -10t49 -19.5t41.5 -31.5t24.5 -47.5t10.5 -67v-175h-620v-120q0 -27 10 -43t32 -22.5t39 -8t49 -1.5h190
q32 0 48.5 1.5t38 7.5t31.5 21t12 40h170q0 -38 -10.5 -67t-24.5 -47.5t-41.5 -31.5t-49 -19.5t-62 -10t-63.5 -4t-69 -0.5h-150q-46 0 -69 0.5t-63.5 4t-62 10t-49 19.5t-41.5 31.5t-24.5 47.5t-10.5 67v125h-40.5t-38 1.5t-37.5 3.5t-33 6.5t-31 11.5t-24 17t-20 23.5
t-11.5 31.5t-4.5 40zM450 415h450v60q0 27 -10 43t-32 22.5t-39 8t-49 1.5h-190q-32 0 -49 -1.5t-39 -8t-32 -22.5t-10 -43v-60z" />
    <glyph glyph-name="uni04BD" unicode="&#x4bd;" horiz-adv-x="940" 
d="M40 320v70h140v-60q0 -14 8.5 -21t16.5 -8t25 -1h30v20q0 29 5.5 52.5t19 40t26.5 28.5t37 19t41 11.5t48.5 6t49.5 2t53 0.5h60q35 0 53 -0.5t49.5 -2t48.5 -6t41 -11.5t37 -19t26.5 -28.5t19 -40t5.5 -52.5v-115h-460v-55q0 -16 6 -27t14 -16.5t24 -8t26 -3t30 -0.5
h100q20 0 30 0.5t26 3t24 8t14 16.5t6 27h160q-1 -31 -10.5 -55.5t-22 -40t-36.5 -26.5t-42.5 -16.5t-53.5 -8t-55 -3t-60 -0.5h-60q-35 0 -53 0.5t-49.5 2t-48.5 6t-41 11.5t-37 19t-26.5 28.5t-19 40t-5.5 52.5v45h-20q-33 0 -50 0.5t-45.5 3.5t-43 10.5t-31 19.5
t-23.5 32.5t-7 48.5zM420 300h300v30q0 16 -6 27t-14 16.5t-24 8t-26 3t-30 0.5h-100q-20 0 -30 -0.5t-26 -3t-24 -8t-14 -16.5t-6 -27v-30z" />
    <glyph glyph-name="uni04BE" unicode="&#x4be;" horiz-adv-x="1140" 
d="M450 415h450v60q0 27 -10 43t-32 22.5t-39 8t-49 1.5h-190q-32 0 -49 -1.5t-39 -8t-32 -22.5t-10 -43v-60zM40 440v70h150v-60q0 -16 10 -24.5t20 -9.5t30 -1h30v65q0 38 10.5 67t24.5 47.5t41.5 31.5t49 19.5t62 10t63.5 4t69 0.5h150q46 0 69 -0.5t63.5 -4t62 -10
t49 -19.5t41.5 -31.5t24.5 -47.5t10.5 -67v-175h-620v-120q0 -27 10 -43t32 -22.5t39 -8t49 -1.5h190q32 0 48.5 1.5t38 7.5t31.5 21t12 40h170q0 -38 -10.5 -67t-24.5 -47.5t-41.5 -31.5t-49 -19.5t-62 -10t-63.5 -4t-69 -0.5v-150h-150v150q-46 0 -69 0.5t-63.5 4t-62 10
t-49 19.5t-41.5 31.5t-24.5 47.5t-10.5 67v125h-40.5t-38 1.5t-37.5 3.5t-33 6.5t-31 11.5t-24 17t-20 23.5t-11.5 31.5t-4.5 40z" />
    <glyph glyph-name="uni04BF" unicode="&#x4bf;" horiz-adv-x="940" 
d="M40 320v70h140v-60q0 -14 8.5 -21t16.5 -8t25 -1h30v20q0 29 5.5 52.5t19 40t26.5 28.5t37 19t41 11.5t48.5 6t49.5 2t53 0.5h60q35 0 53 -0.5t49.5 -2t48.5 -6t41 -11.5t37 -19t26.5 -28.5t19 -40t5.5 -52.5v-115h-460v-55q0 -16 6 -27t14 -16.5t24 -8t26 -3t30 -0.5
h100q20 0 30 0.5t26 3t24 8t14 16.5t6 27h160q-1 -31 -10.5 -55.5t-22 -40t-35 -26.5t-40 -16.5t-47 -8t-45.5 -3t-45 -0.5v-125h-130v125q-40 0 -63 1t-62.5 9.5t-62 24t-40 47.5t-17.5 78v45h-20q-33 0 -50 0.5t-45.5 3.5t-43 10.5t-31 19.5t-23.5 32.5t-7 48.5zM420 300
h300v30q0 16 -6 27t-14 16.5t-24 8t-26 3t-30 0.5h-100q-20 0 -30 -0.5t-26 -3t-24 -8t-14 -16.5t-6 -27v-30z" />
    <glyph glyph-name="uni04C0" unicode="&#x4c0;" horiz-adv-x="310" 
d="M70 0v660h170v-660h-170z" />
    <glyph glyph-name="uni04C1" unicode="&#x4c1;" horiz-adv-x="1230" 
d="M445 890h95q0 -31 22 -53t53 -22t53 22t22 53h95q0 -66 -50 -113t-120 -47t-120 47t-50 113zM20 0l350 350l-310 310h210l260 -260v260h170v-260l260 260h210l-310 -310l350 -350h-210l-245 245l-55 -55v-190h-170v190l-55 55l-245 -245h-210z" />
    <glyph glyph-name="uni04C2" unicode="&#x4c2;" horiz-adv-x="980" 
d="M320 710h95q0 -31 22 -53t53 -22t53 22t22 53h95q0 -66 -50 -113t-120 -47t-120 47t-50 113zM20 0l250 250l-230 230h190l180 -180v180h160v-180l180 180h190l-230 -230l250 -250h-190l-155 155l-45 -45v-110h-160v110l-45 45l-155 -155h-190z" />
    <glyph glyph-name="uni04C3" unicode="&#x4c3;" horiz-adv-x="820" 
d="M70 0v660h170v-245h95l245 245h210l-245 -245q45 0 79 -5t64 -17.5t46 -37t16 -60.5v-235q0 -55 -13 -99t-32 -72.5t-50 -50t-56.5 -32.5t-62 -18.5t-57 -9.5t-49.5 -3v110q30 5 52 12.5t46.5 25.5t38 52.5t13.5 84.5v215q0 14 -10 21t-20 8t-30 1h-280v-305h-170z" />
    <glyph glyph-name="uni04C4" unicode="&#x4c4;" horiz-adv-x="680" 
d="M60 0v480h160v-180h50l180 180h190l-180 -180q76 0 118 -23.5t42 -91.5v-185q0 -42 -10.5 -76.5t-26.5 -57t-41.5 -39.5t-47 -26t-52 -15t-49 -8t-43.5 -3v95q110 18 110 130v175q0 14 -8.5 21t-16.5 8t-25 1h-190v-205h-160z" />
    <glyph glyph-name="uni04C7" unicode="&#x4c7;" horiz-adv-x="930" 
d="M70 0v660h170v-245h450v245h170v-600q0 -55 -13 -99t-32 -72.5t-50 -50t-56.5 -32.5t-62 -18.5t-57 -9.5t-49.5 -3v110q30 5 52 12.5t46.5 25.5t38 52.5t13.5 84.5v245h-450v-305h-170z" />
    <glyph glyph-name="uni04C8" unicode="&#x4c8;" 
d="M60 0v480h160v-180h300v180h160v-480q0 -42 -10.5 -76.5t-26.5 -57t-41.5 -39.5t-47 -26t-52 -15t-49 -8t-43.5 -3v95q110 18 110 130v205h-300v-205h-160z" />
    <glyph glyph-name="uni04CB" unicode="&#x4cb;" horiz-adv-x="930" 
d="M70 385v275h170v-265q0 -16 10 -24.5t20 -9.5t30 -1h390v300h170v-660h-140v-150h-150v260h120v140h-380h-40.5t-38 1.5t-37.5 3.5t-33 6.5t-31 11.5t-24 17t-20 23.5t-11.5 31.5t-4.5 40z" />
    <glyph glyph-name="uni04CC" unicode="&#x4cc;" 
d="M60 290v190h160v-180q0 -14 8.5 -21t16.5 -8t25 -1h250v210h160v-480h-120v-125h-130v210h90v90h-260q-33 0 -50 0.5t-45.5 3.5t-43 10.5t-31 19.5t-23.5 32.5t-7 48.5z" />
    <glyph glyph-name="uni04D0" unicode="&#x4d0;" horiz-adv-x="930" 
d="M295 890h95q0 -31 22 -53t53 -22t53 22t22 53h95q0 -66 -50 -113t-120 -47t-120 47t-50 113zM20 0l330 660h230l330 -660h-180l-95 190h-340l-95 -190h-180zM350 300h230l-115 230z" />
    <glyph glyph-name="uni04D1" unicode="&#x4d1;" 
d="M200 710h95q0 -31 22 -53t53 -22t53 22t22 53h95q0 -66 -50 -113t-120 -47t-120 47t-50 113zM60 115v70q0 28 7 48.5t23.5 32.5t31 19.5t43 10.5t45.5 3.5t50 0.5h260v55q0 14 -8.5 21t-16.5 8t-25 1h-370v95h380q33 0 50 -0.5t45.5 -3.5t43 -10.5t31 -19.5t23.5 -32.5
t7 -48.5v-365h-420q-33 0 -50 0.5t-45.5 3.5t-43 10.5t-31 19.5t-23.5 32.5t-7 48.5zM220 125q0 -14 8.5 -21t16.5 -8t25 -1h250v110h-250q-17 0 -25 -1t-16.5 -8t-8.5 -21v-50z" />
    <glyph glyph-name="uni04D2" unicode="&#x4d2;" horiz-adv-x="930" 
d="M275 755v110h135v-110h-135zM520 755v110h135v-110h-135zM20 0l330 660h230l330 -660h-180l-95 190h-340l-95 -190h-180zM350 300h230l-115 230z" />
    <glyph glyph-name="uni04D3" unicode="&#x4d3;" 
d="M180 575v110h135v-110h-135zM425 575v110h135v-110h-135zM60 115v70q0 28 7 48.5t23.5 32.5t31 19.5t43 10.5t45.5 3.5t50 0.5h260v55q0 14 -8.5 21t-16.5 8t-25 1h-370v95h380q33 0 50 -0.5t45.5 -3.5t43 -10.5t31 -19.5t23.5 -32.5t7 -48.5v-365h-420q-33 0 -50 0.5
t-45.5 3.5t-43 10.5t-31 19.5t-23.5 32.5t-7 48.5zM220 125q0 -14 8.5 -21t16.5 -8t25 -1h250v110h-250q-17 0 -25 -1t-16.5 -8t-8.5 -21v-50z" />
    <glyph glyph-name="uni04D4" unicode="&#x4d4;" horiz-adv-x="1350" 
d="M20 0l330 660h930v-110h-520v-135h470v-110h-470v-195h520v-110h-690v190h-305l-95 -190h-170zM340 300h250v250h-125z" />
    <glyph glyph-name="uni04D5" unicode="&#x4d5;" horiz-adv-x="1200" 
d="M60 115v70q0 28 7 48.5t23.5 32.5t31 19.5t43 10.5t45.5 3.5t50 0.5h260v55q0 14 -8.5 21t-16.5 8t-25 1h-370v95h840q33 0 50 -0.5t45.5 -3.5t43 -10.5t31 -19.5t23.5 -32.5t7 -48.5v-160h-460v-80q0 -14 8.5 -21t16.5 -8t25 -1h390v-95h-860q-33 0 -50 0.5t-45.5 3.5
t-43 10.5t-31 19.5t-23.5 32.5t-7 48.5zM220 125q0 -14 8.5 -21t16.5 -8t25 -1h250v110h-250q-17 0 -25 -1t-16.5 -8t-8.5 -21v-50zM680 300h300v55q0 14 -8.5 21t-16.5 8t-25 1h-200q-17 0 -25 -1t-16.5 -8t-8.5 -21v-55z" />
    <glyph glyph-name="uni04D6" unicode="&#x4d6;" horiz-adv-x="880" 
d="M270 890h95q0 -31 22 -53t53 -22t53 22t22 53h95q0 -66 -50 -113t-120 -47t-120 47t-50 113zM70 0v660h740v-110h-570v-135h520v-110h-520v-195h570v-110h-740z" />
    <glyph glyph-name="uni04D7" unicode="&#x4d7;" 
d="M200 710h95q0 -31 22 -53t53 -22t53 22t22 53h95q0 -66 -50 -113t-120 -47t-120 47t-50 113zM60 115v250q0 28 7 48.5t23.5 32.5t31 19.5t43 10.5t45.5 3.5t50 0.5h220q33 0 50 -0.5t45.5 -3.5t43 -10.5t31 -19.5t23.5 -32.5t7 -48.5v-160h-460v-80q0 -14 8.5 -21
t16.5 -8t25 -1h390v-95h-400q-33 0 -50 0.5t-45.5 3.5t-43 10.5t-31 19.5t-23.5 32.5t-7 48.5zM220 300h300v55q0 14 -8.5 21t-16.5 8t-25 1h-200q-17 0 -25 -1t-16.5 -8t-8.5 -21v-55z" />
    <glyph glyph-name="uni04D8" unicode="&#x4d8;" horiz-adv-x="930" 
d="M70 180v175h620v120q0 27 -10 43t-32 22.5t-39 8t-49 1.5h-190q-32 0 -48.5 -1.5t-38 -7.5t-31.5 -21t-12 -40h-170q0 38 10.5 67t24.5 47.5t41.5 31.5t49 19.5t62 10t63.5 4t69 0.5h150q46 0 69 -0.5t63.5 -4t62 -10t49 -19.5t41.5 -31.5t24.5 -47.5t10.5 -67v-300
q0 -38 -10.5 -67t-24.5 -47.5t-41.5 -31.5t-49 -19.5t-62 -10t-63.5 -4t-69 -0.5h-150q-46 0 -69 0.5t-63.5 4t-62 10t-49 19.5t-41.5 31.5t-24.5 47.5t-10.5 67zM240 185q0 -27 10 -43t32 -22.5t39 -8t49 -1.5h190q32 0 49 1.5t39 8t32 22.5t10 43v60h-450v-60z" />
    <glyph glyph-name="afii10846" unicode="&#x4d9;" 
d="M60 160v115h460v55q0 16 -6 27t-14 16.5t-24 8t-26 3t-30 0.5h-100q-20 0 -30 -0.5t-26 -3t-24 -8t-14 -16.5t-6 -27h-160q1 31 10.5 55.5t22 40t36.5 26.5t42.5 16.5t53.5 8t55 3t60 0.5h60q35 0 53 -0.5t49.5 -2t48.5 -6t41 -11.5t37 -19t26.5 -28.5t19 -40t5.5 -52.5
v-160q0 -29 -5.5 -52.5t-19 -40t-26.5 -28.5t-37 -19t-41 -11.5t-48.5 -6t-49.5 -2t-53 -0.5h-60q-35 0 -53 0.5t-49.5 2t-48.5 6t-41 11.5t-37 19t-26.5 28.5t-19 40t-5.5 52.5zM220 150q0 -16 6 -27t14 -16.5t24 -8t26 -3t30 -0.5h100q20 0 30 0.5t26 3t24 8t14 16.5t6 27
v30h-300v-30z" />
    <glyph glyph-name="uni04DA" unicode="&#x4da;" horiz-adv-x="930" 
d="M275 755v110h135v-110h-135zM520 755v110h135v-110h-135zM70 180v175h620v120q0 27 -10 43t-32 22.5t-39 8t-49 1.5h-190q-32 0 -48.5 -1.5t-38 -7.5t-31.5 -21t-12 -40h-170q0 38 10.5 67t24.5 47.5t41.5 31.5t49 19.5t62 10t63.5 4t69 0.5h150q46 0 69 -0.5t63.5 -4
t62 -10t49 -19.5t41.5 -31.5t24.5 -47.5t10.5 -67v-300q0 -38 -10.5 -67t-24.5 -47.5t-41.5 -31.5t-49 -19.5t-62 -10t-63.5 -4t-69 -0.5h-150q-46 0 -69 0.5t-63.5 4t-62 10t-49 19.5t-41.5 31.5t-24.5 47.5t-10.5 67zM240 185q0 -27 10 -43t32 -22.5t39 -8t49 -1.5h190
q32 0 49 1.5t39 8t32 22.5t10 43v60h-450v-60z" />
    <glyph glyph-name="uni04DB" unicode="&#x4db;" 
d="M180 575v110h135v-110h-135zM425 575v110h135v-110h-135zM60 160v115h460v55q0 16 -6 27t-14 16.5t-24 8t-26 3t-30 0.5h-100q-20 0 -30 -0.5t-26 -3t-24 -8t-14 -16.5t-6 -27h-160q1 31 10.5 55.5t22 40t36.5 26.5t42.5 16.5t53.5 8t55 3t60 0.5h60q35 0 53 -0.5
t49.5 -2t48.5 -6t41 -11.5t37 -19t26.5 -28.5t19 -40t5.5 -52.5v-160q0 -29 -5.5 -52.5t-19 -40t-26.5 -28.5t-37 -19t-41 -11.5t-48.5 -6t-49.5 -2t-53 -0.5h-60q-35 0 -53 0.5t-49.5 2t-48.5 6t-41 11.5t-37 19t-26.5 28.5t-19 40t-5.5 52.5zM220 150q0 -16 6 -27
t14 -16.5t24 -8t26 -3t30 -0.5h100q20 0 30 0.5t26 3t24 8t14 16.5t6 27v30h-300v-30z" />
    <glyph glyph-name="uni04DC" unicode="&#x4dc;" horiz-adv-x="1230" 
d="M425 755v110h135v-110h-135zM670 755v110h135v-110h-135zM20 0l350 350l-310 310h210l260 -260v260h170v-260l260 260h210l-310 -310l350 -350h-210l-245 245l-55 -55v-190h-170v190l-55 55l-245 -245h-210z" />
    <glyph glyph-name="uni04DD" unicode="&#x4dd;" horiz-adv-x="980" 
d="M300 575v110h135v-110h-135zM545 575v110h135v-110h-135zM20 0l250 250l-230 230h190l180 -180v180h160v-180l180 180h190l-230 -230l250 -250h-190l-155 155l-45 -45v-110h-160v110l-45 45l-155 -155h-190z" />
    <glyph glyph-name="uni04DE" unicode="&#x4de;" horiz-adv-x="880" 
d="M250 755v110h135v-110h-135zM495 755v110h135v-110h-135zM70 0v110h510q20 0 30 1t20 9.5t10 24.5v125q0 16 -10 24.5t-20 9.5t-30 1h-420v110h420q20 0 30 1t20 9.5t10 24.5v65q0 16 -10 24.5t-20 9.5t-30 1h-510v110h500h40.5t38 -1.5t37.5 -3.5t33 -6.5t31 -11.5
t24 -17t20 -23.5t11.5 -31.5t4.5 -40v-60q0 -42 -23 -66.5t-57 -33.5q34 -9 57 -33.5t23 -66.5v-130q0 -22 -4.5 -40t-11.5 -31.5t-20 -23.5t-24 -17t-31 -11.5t-33 -6.5t-37.5 -3.5t-38 -1.5h-40.5h-500z" />
    <glyph glyph-name="uni04DF" unicode="&#x4df;" horiz-adv-x="700" 
d="M160 575v110h135v-110h-135zM405 575v110h135v-110h-135zM60 0v95h370q17 0 25 1t16.5 8t8.5 21v50q0 14 -8.5 21t-16.5 8t-25 1h-290v95h290q17 0 25 1t16.5 8t8.5 21v25q0 14 -8.5 21t-16.5 8t-25 1h-370v95h380q33 0 50 -0.5t45.5 -3.5t43 -10.5t31 -19.5t23.5 -32.5
t7 -48.5v-15q0 -71 -75 -90q75 -19 75 -90v-55q0 -28 -7 -48.5t-23.5 -32.5t-31 -19.5t-43 -10.5t-45.5 -3.5t-50 -0.5h-380z" />
    <glyph glyph-name="uni04E0" unicode="&#x4e0;" horiz-adv-x="880" 
d="M70 0v105h510q20 0 30 1t20 9.5t10 24.5v130q0 16 -10 24.5t-20 9.5t-30 1h-205v110l205 140h-510v105h740v-105l-205 -140q37 0 64 -2.5t55 -10.5t46 -22.5t29 -39.5t11 -60v-145q0 -22 -4.5 -40t-11.5 -31.5t-20 -23.5t-24 -17t-31 -11.5t-33 -6.5t-37.5 -3.5t-38 -1.5
h-40.5h-500z" />
    <glyph glyph-name="uni04E1" unicode="&#x4e1;" horiz-adv-x="700" 
d="M60 0v95h370q17 0 25 1t16.5 8t8.5 21v50q0 14 -8.5 21t-16.5 8t-25 1h-125v95l135 85h-380v95h580v-95l-135 -85q61 0 98 -27.5t37 -87.5v-70q0 -28 -7 -48.5t-23.5 -32.5t-31 -19.5t-43 -10.5t-45.5 -3.5t-50 -0.5h-380z" />
    <glyph glyph-name="uni04E2" unicode="&#x4e2;" horiz-adv-x="930" 
d="M285 755v95h360v-95h-360zM70 0v660h170v-470l430 470h190v-660h-170v470l-430 -470h-190z" />
    <glyph glyph-name="uni04E3" unicode="&#x4e3;" 
d="M190 575v95h360v-95h-360zM60 0v480h160v-305l280 305h180v-480h-160v305l-280 -305h-180z" />
    <glyph glyph-name="uni04E4" unicode="&#x4e4;" horiz-adv-x="930" 
d="M275 755v110h135v-110h-135zM520 755v110h135v-110h-135zM70 0v660h170v-470l430 470h190v-660h-170v470l-430 -470h-190z" />
    <glyph glyph-name="uni04E5" unicode="&#x4e5;" 
d="M180 575v110h135v-110h-135zM425 575v110h135v-110h-135zM60 0v480h160v-305l280 305h180v-480h-160v305l-280 -305h-180z" />
    <glyph glyph-name="uni04E6" unicode="&#x4e6;" horiz-adv-x="930" 
d="M275 755v110h135v-110h-135zM520 755v110h135v-110h-135zM70 135v390q0 22 4.5 40t11.5 31.5t20 23.5t24 17t31 11.5t33 6.5t37.5 3.5t38 1.5h40.5h310h40.5t38 -1.5t37.5 -3.5t33 -6.5t31 -11.5t24 -17t20 -23.5t11.5 -31.5t4.5 -40v-390q0 -22 -4.5 -40t-11.5 -31.5
t-20 -23.5t-24 -17t-31 -11.5t-33 -6.5t-37.5 -3.5t-38 -1.5h-40.5h-310h-40.5t-38 1.5t-37.5 3.5t-33 6.5t-31 11.5t-24 17t-20 23.5t-11.5 31.5t-4.5 40zM240 145q0 -16 10 -24.5t20 -9.5t30 -1h330q20 0 30 1t20 9.5t10 24.5v370q0 16 -10 24.5t-20 9.5t-30 1h-330
q-20 0 -30 -1t-20 -9.5t-10 -24.5v-370z" />
    <glyph glyph-name="uni04E7" unicode="&#x4e7;" 
d="M180 575v110h135v-110h-135zM425 575v110h135v-110h-135zM60 115v250q0 28 7 48.5t23.5 32.5t31 19.5t43 10.5t45.5 3.5t50 0.5h220q33 0 50 -0.5t45.5 -3.5t43 -10.5t31 -19.5t23.5 -32.5t7 -48.5v-250q0 -28 -7 -48.5t-23.5 -32.5t-31 -19.5t-43 -10.5t-45.5 -3.5
t-50 -0.5h-220q-33 0 -50 0.5t-45.5 3.5t-43 10.5t-31 19.5t-23.5 32.5t-7 48.5zM220 125q0 -14 8.5 -21t16.5 -8t25 -1h200q17 0 25 1t16.5 8t8.5 21v230q0 14 -8.5 21t-16.5 8t-25 1h-200q-17 0 -25 -1t-16.5 -8t-8.5 -21v-230z" />
    <glyph glyph-name="uni04E8" unicode="&#x4e8;" horiz-adv-x="930" 
d="M70 135v390q0 22 4.5 40t11.5 31.5t20 23.5t24 17t31 11.5t33 6.5t37.5 3.5t38 1.5h40.5h310h40.5t38 -1.5t37.5 -3.5t33 -6.5t31 -11.5t24 -17t20 -23.5t11.5 -31.5t4.5 -40v-390q0 -22 -4.5 -40t-11.5 -31.5t-20 -23.5t-24 -17t-31 -11.5t-33 -6.5t-37.5 -3.5t-38 -1.5
h-40.5h-310h-40.5t-38 1.5t-37.5 3.5t-33 6.5t-31 11.5t-24 17t-20 23.5t-11.5 31.5t-4.5 40zM240 145q0 -16 10 -24.5t20 -9.5t30 -1h330q20 0 30 1t20 9.5t10 24.5v160h-450v-160zM240 415h450v100q0 16 -10 24.5t-20 9.5t-30 1h-330q-20 0 -30 -1t-20 -9.5t-10 -24.5
v-100z" />
    <glyph glyph-name="uni04E9" unicode="&#x4e9;" 
d="M60 115v250q0 28 7 48.5t23.5 32.5t31 19.5t43 10.5t45.5 3.5t50 0.5h220q33 0 50 -0.5t45.5 -3.5t43 -10.5t31 -19.5t23.5 -32.5t7 -48.5v-250q0 -28 -7 -48.5t-23.5 -32.5t-31 -19.5t-43 -10.5t-45.5 -3.5t-50 -0.5h-220q-33 0 -50 0.5t-45.5 3.5t-43 10.5t-31 19.5
t-23.5 32.5t-7 48.5zM220 125q0 -14 8.5 -21t16.5 -8t25 -1h200q17 0 25 1t16.5 8t8.5 21v80h-300v-80zM220 300h300v55q0 14 -8.5 21t-16.5 8t-25 1h-200q-17 0 -25 -1t-16.5 -8t-8.5 -21v-55z" />
    <glyph glyph-name="uni04EA" unicode="&#x4ea;" horiz-adv-x="930" 
d="M275 755v110h135v-110h-135zM520 755v110h135v-110h-135zM70 135v390q0 22 4.5 40t11.5 31.5t20 23.5t24 17t31 11.5t33 6.5t37.5 3.5t38 1.5h40.5h310h40.5t38 -1.5t37.5 -3.5t33 -6.5t31 -11.5t24 -17t20 -23.5t11.5 -31.5t4.5 -40v-390q0 -22 -4.5 -40t-11.5 -31.5
t-20 -23.5t-24 -17t-31 -11.5t-33 -6.5t-37.5 -3.5t-38 -1.5h-40.5h-310h-40.5t-38 1.5t-37.5 3.5t-33 6.5t-31 11.5t-24 17t-20 23.5t-11.5 31.5t-4.5 40zM240 145q0 -16 10 -24.5t20 -9.5t30 -1h330q20 0 30 1t20 9.5t10 24.5v160h-450v-160zM240 415h450v100
q0 16 -10 24.5t-20 9.5t-30 1h-330q-20 0 -30 -1t-20 -9.5t-10 -24.5v-100z" />
    <glyph glyph-name="uni04EB" unicode="&#x4eb;" 
d="M180 575v110h135v-110h-135zM425 575v110h135v-110h-135zM60 115v250q0 28 7 48.5t23.5 32.5t31 19.5t43 10.5t45.5 3.5t50 0.5h220q33 0 50 -0.5t45.5 -3.5t43 -10.5t31 -19.5t23.5 -32.5t7 -48.5v-250q0 -28 -7 -48.5t-23.5 -32.5t-31 -19.5t-43 -10.5t-45.5 -3.5
t-50 -0.5h-220q-33 0 -50 0.5t-45.5 3.5t-43 10.5t-31 19.5t-23.5 32.5t-7 48.5zM220 125q0 -14 8.5 -21t16.5 -8t25 -1h200q17 0 25 1t16.5 8t8.5 21v80h-300v-80zM220 300h300v55q0 14 -8.5 21t-16.5 8t-25 1h-200q-17 0 -25 -1t-16.5 -8t-8.5 -21v-55z" />
    <glyph glyph-name="uni04EC" unicode="&#x4ec;" horiz-adv-x="930" 
d="M275 755v110h135v-110h-135zM520 755v110h135v-110h-135zM70 180h170q2 -25 12 -40t31.5 -21t38 -7.5t48.5 -1.5h190q32 0 49 1.5t39 8t32 22.5t10 43v120h-375v110h375v60q0 27 -10 43t-32 22.5t-39 8t-49 1.5h-190q-32 0 -48.5 -1.5t-38 -7.5t-31.5 -21t-12 -40h-170
q0 38 10.5 67t24.5 47.5t41.5 31.5t49 19.5t62 10t63.5 4t69 0.5h150q46 0 69 -0.5t63.5 -4t62 -10t49 -19.5t41.5 -31.5t24.5 -47.5t10.5 -67v-300q0 -38 -10.5 -67t-24.5 -47.5t-41.5 -31.5t-49 -19.5t-62 -10t-63.5 -4t-69 -0.5h-150q-46 0 -69 0.5t-63.5 4t-62 10
t-49 19.5t-41.5 31.5t-24.5 47.5t-10.5 67z" />
    <glyph glyph-name="uni04ED" unicode="&#x4ed;" 
d="M180 575v110h135v-110h-135zM425 575v110h135v-110h-135zM60 150h160q0 -16 6 -27t14 -16.5t24 -8t26 -3t30 -0.5h100q20 0 30 0.5t26 3t24 8t14 16.5t6 27v55h-230v95h230v30q0 16 -6 27t-14 16.5t-24 8t-26 3t-30 0.5h-100q-20 0 -30 -0.5t-26 -3t-24 -8t-14 -16.5
t-6 -27h-160q1 31 10.5 55.5t22 40t36.5 26.5t42.5 16.5t53.5 8t55 3t60 0.5h60h48t45 -1.5t44.5 -4.5t38.5 -8.5t35.5 -13t27.5 -20t22.5 -28t13 -37t5.5 -47.5v-160q0 -29 -5.5 -52.5t-19 -40t-26.5 -28.5t-37 -19t-41 -11.5t-48.5 -6t-49.5 -2t-53 -0.5h-60
q-40 0 -60 0.5t-55 3t-53.5 8t-42.5 16.5t-36.5 26.5t-22 40t-10.5 55.5z" />
    <glyph glyph-name="uni04EE" unicode="&#x4ee;" horiz-adv-x="840" 
d="M240 755v95h360v-95h-360zM20 660h190l210 -315l210 315h190l-380 -570q-24 -37 -37.5 -52t-41.5 -26.5t-71 -11.5h-170v110h105q25 0 38.5 10t36.5 45l26 39z" />
    <glyph glyph-name="uni04EF" unicode="&#x4ef;" horiz-adv-x="720" 
d="M180 575v95h360v-95h-360zM20 480h170l170 -340l170 340h170l-300 -600q-19 -37 -32 -55.5t-43 -34t-75 -15.5h-170v95h100q32 0 42.5 7.5t22.5 32.5l30 60z" />
    <glyph glyph-name="uni04F0" unicode="&#x4f0;" horiz-adv-x="840" 
d="M230 755v110h135v-110h-135zM475 755v110h135v-110h-135zM20 660h190l210 -315l210 315h190l-380 -570q-24 -37 -37.5 -52t-41.5 -26.5t-71 -11.5h-170v110h105q25 0 38.5 10t36.5 45l26 39z" />
    <glyph glyph-name="uni04F1" unicode="&#x4f1;" horiz-adv-x="720" 
d="M170 575v110h135v-110h-135zM415 575v110h135v-110h-135zM20 480h170l170 -340l170 340h170l-300 -600q-19 -37 -32 -55.5t-43 -34t-75 -15.5h-170v95h100q32 0 42.5 7.5t22.5 32.5l30 60z" />
    <glyph glyph-name="uni04F2" unicode="&#x4f2;" horiz-adv-x="840" 
d="M220 730l90 160h130l-120 -160h-100zM440 730l90 160h130l-120 -160h-100zM20 660h190l210 -315l210 315h190l-380 -570q-24 -37 -37.5 -52t-41.5 -26.5t-71 -11.5h-170v110h105q25 0 38.5 10t36.5 45l26 39z" />
    <glyph glyph-name="uni04F3" unicode="&#x4f3;" horiz-adv-x="720" 
d="M160 550l90 160h130l-120 -160h-100zM380 550l90 160h130l-120 -160h-100zM20 480h170l170 -340l170 340h170l-300 -600q-19 -37 -32 -55.5t-43 -34t-75 -15.5h-170v95h100q32 0 42.5 7.5t22.5 32.5l30 60z" />
    <glyph glyph-name="uni04F4" unicode="&#x4f4;" horiz-adv-x="930" 
d="M275 755v110h135v-110h-135zM520 755v110h135v-110h-135zM70 385v275h170v-265q0 -16 10 -24.5t20 -9.5t30 -1h390v300h170v-660h-170v250h-380h-40.5t-38 1.5t-37.5 3.5t-33 6.5t-31 11.5t-24 17t-20 23.5t-11.5 31.5t-4.5 40z" />
    <glyph glyph-name="uni04F5" unicode="&#x4f5;" 
d="M180 575v110h135v-110h-135zM425 575v110h135v-110h-135zM60 290v190h160v-180q0 -14 8.5 -21t16.5 -8t25 -1h250v210h160v-480h-160v175h-260q-33 0 -50 0.5t-45.5 3.5t-43 10.5t-31 19.5t-23.5 32.5t-7 48.5z" />
    <glyph glyph-name="uni04F8" unicode="&#x4f8;" horiz-adv-x="1150" 
d="M385 755v110h135v-110h-135zM630 755v110h135v-110h-135zM70 0v660h170v-245h330h40.5t38 -1.5t37.5 -3.5t33 -6.5t31 -11.5t24 -17t20 -23.5t11.5 -31.5t4.5 -40v-145q0 -22 -4.5 -40t-11.5 -31.5t-20 -23.5t-24 -17t-31 -11.5t-33 -6.5t-37.5 -3.5t-38 -1.5h-40.5h-500
zM240 110h340q20 0 30 1t20 9.5t10 24.5v125q0 16 -10 24.5t-20 9.5t-30 1h-340v-195zM910 0v660h170v-660h-170z" />
    <glyph glyph-name="uni04F9" unicode="&#x4f9;" horiz-adv-x="960" 
d="M290 575v110h135v-110h-135zM535 575v110h135v-110h-135zM60 0v480h160v-180h220q33 0 50 -0.5t45.5 -3.5t43 -10.5t31 -19.5t23.5 -32.5t7 -48.5v-70q0 -28 -7 -48.5t-23.5 -32.5t-31 -19.5t-43 -10.5t-45.5 -3.5t-50 -0.5h-380zM220 95h210q17 0 25 1t16.5 8t8.5 21v50
q0 14 -8.5 21t-16.5 8t-25 1h-210v-110zM740 0v480h160v-480h-160z" />
    <glyph glyph-name="uni1E02" unicode="&#x1e02;" horiz-adv-x="930" 
d="M400 755v110h130v-110h-130zM70 0v660h540h40.5t38 -1.5t37.5 -3.5t33 -6.5t31 -11.5t24 -17t20 -23.5t11.5 -31.5t4.5 -40v-60q0 -42 -23 -66.5t-57 -33.5q39 -10 64.5 -31.5t25.5 -68.5v-130q0 -22 -4.5 -40t-11.5 -31.5t-20 -23.5t-24 -17t-31 -11.5t-33 -6.5
t-37.5 -3.5t-38 -1.5h-40.5h-550zM240 110h390q20 0 30 1t20 9.5t10 24.5v125q0 16 -10 24.5t-20 9.5t-30 1h-390v-195zM240 415h380q20 0 30 1t20 9.5t10 24.5v65q0 16 -10 24.5t-20 9.5t-30 1h-380v-135z" />
    <glyph glyph-name="uni1E03" unicode="&#x1e03;" 
d="M75 755v110h130v-110h-130zM60 0v660h160v-180h260q33 0 50 -0.5t45.5 -3.5t43 -10.5t31 -19.5t23.5 -32.5t7 -48.5v-250q0 -28 -7 -48.5t-23.5 -32.5t-31 -19.5t-43 -10.5t-45.5 -3.5t-50 -0.5h-420zM220 95h250q17 0 25 1t16.5 8t8.5 21v230q0 14 -8.5 21t-16.5 8
t-25 1h-250v-290z" />
    <glyph glyph-name="uni1E0A" unicode="&#x1e0a;" horiz-adv-x="930" 
d="M400 755v110h130v-110h-130zM70 0v660h430q71 0 133 -16.5t114 -51t82.5 -95.5t30.5 -142v-45q0 -81 -30.5 -143t-82.5 -97t-114.5 -52.5t-132.5 -17.5h-430zM240 110h210q240 0 240 200v45q0 200 -240 200h-210v-445z" />
    <glyph glyph-name="uni1E0B" unicode="&#x1e0b;" 
d="M535 755v110h130v-110h-130zM60 115v250q0 28 7 48.5t23.5 32.5t31 19.5t43 10.5t45.5 3.5t50 0.5h260v180h160v-660h-420q-33 0 -50 0.5t-45.5 3.5t-43 10.5t-31 19.5t-23.5 32.5t-7 48.5zM220 125q0 -14 8.5 -21t16.5 -8t25 -1h250v290h-250q-17 0 -25 -1t-16.5 -8
t-8.5 -21v-230z" />
    <glyph glyph-name="uni1E1E" unicode="&#x1e1e;" horiz-adv-x="860" 
d="M365 755v110h130v-110h-130zM70 0v660h740v-110h-570v-135h510v-110h-510v-305h-170z" />
    <glyph glyph-name="uni1E1F" unicode="&#x1e1f;" horiz-adv-x="480" 
d="M175 755v110h130v-110h-130zM60 0v545q0 28 7 48.5t23.5 32.5t31 19.5t43 10.5t45.5 3.5t50 0.5h160v-95h-150q-17 0 -25 -1t-16.5 -8t-8.5 -21v-55h200v-95h-200v-385h-160z" />
    <glyph glyph-name="uni1E40" unicode="&#x1e40;" horiz-adv-x="1090" 
d="M480 755v110h130v-110h-130zM70 0v660h225l250 -500l250 500h225v-660h-170v450l-225 -450h-160l-225 450v-450h-170z" />
    <glyph glyph-name="uni1E41" unicode="&#x1e41;" horiz-adv-x="960" 
d="M415 575v110h130v-110h-130zM60 0v480h640q33 0 50 -0.5t45.5 -3.5t43 -10.5t31 -19.5t23.5 -32.5t7 -48.5v-365h-160v355q0 14 -8.5 21t-16.5 8t-25 1h-130v-385h-160v355q0 14 -8.5 21t-16.5 8t-25 1h-130v-385h-160z" />
    <glyph glyph-name="uni1E56" unicode="&#x1e56;" horiz-adv-x="930" 
d="M400 755v110h130v-110h-130zM70 0v660h550h40.5t38 -1.5t37.5 -3.5t33 -6.5t31 -11.5t24 -17t20 -23.5t11.5 -31.5t4.5 -40v-140q0 -22 -4.5 -40t-11.5 -31.5t-20 -23.5t-24 -17t-31 -11.5t-33 -6.5t-37.5 -3.5t-38 -1.5h-40.5h-380v-250h-170zM240 360h390q20 0 30 1
t20 9.5t10 24.5v120q0 16 -10 24.5t-20 9.5t-30 1h-390v-190z" />
    <glyph glyph-name="uni1E57" unicode="&#x1e57;" 
d="M305 575v110h130v-110h-130zM60 -225v705h420q33 0 50 -0.5t45.5 -3.5t43 -10.5t31 -19.5t23.5 -32.5t7 -48.5v-250q0 -28 -7 -48.5t-23.5 -32.5t-31 -19.5t-43 -10.5t-45.5 -3.5t-50 -0.5h-260v-225h-160zM220 95h250q17 0 25 1t16.5 8t8.5 21v230q0 14 -8.5 21t-16.5 8
t-25 1h-250v-290z" />
    <glyph glyph-name="uni1E60" unicode="&#x1e60;" horiz-adv-x="930" 
d="M400 755v110h130v-110h-130zM70 0v110h560q20 0 30 1t20 9.5t10 24.5v125q0 16 -10 24.5t-20 9.5t-30 1h-320h-40.5t-38 1.5t-37.5 3.5t-33 6.5t-31 11.5t-24 17t-20 23.5t-11.5 31.5t-4.5 40v85q0 22 4.5 40t11.5 31.5t20 23.5t24 17t31 11.5t33 6.5t37.5 3.5t38 1.5
h40.5h500v-110h-510q-20 0 -30 -1t-20 -9.5t-10 -24.5v-65q0 -16 10 -24.5t20 -9.5t30 -1h320h40.5t38 -1.5t37.5 -3.5t33 -6.5t31 -11.5t24 -17t20 -23.5t11.5 -31.5t4.5 -40v-145q0 -22 -4.5 -40t-11.5 -31.5t-20 -23.5t-24 -17t-31 -11.5t-33 -6.5t-37.5 -3.5t-38 -1.5
h-40.5h-550z" />
    <glyph glyph-name="uni1E61" unicode="&#x1e61;" 
d="M305 575v110h130v-110h-130zM60 0v95h410q17 0 25 1t16.5 8t8.5 21v50q0 14 -8.5 21t-16.5 8t-25 1h-210q-33 0 -50 0.5t-45.5 3.5t-43 10.5t-31 19.5t-23.5 32.5t-7 48.5v45q0 28 7 48.5t23.5 32.5t31 19.5t43 10.5t45.5 3.5t50 0.5h380v-95h-370q-17 0 -25 -1t-16.5 -8
t-8.5 -21v-25q0 -14 8.5 -21t16.5 -8t25 -1h210q33 0 50 -0.5t45.5 -3.5t43 -10.5t31 -19.5t23.5 -32.5t7 -48.5v-70q0 -28 -7 -48.5t-23.5 -32.5t-31 -19.5t-43 -10.5t-45.5 -3.5t-50 -0.5h-420z" />
    <glyph glyph-name="uni1E6A" unicode="&#x1e6a;" horiz-adv-x="910" 
d="M390 755v110h130v-110h-130zM30 550v110h850v-110h-340v-550h-170v550h-340z" />
    <glyph glyph-name="uni1E6B" unicode="&#x1e6b;" horiz-adv-x="480" 
d="M75 755v110h130v-110h-130zM60 115v545h160v-180h200v-95h-200v-260q0 -14 8.5 -21t16.5 -8t25 -1h150v-95h-160q-33 0 -50 0.5t-45.5 3.5t-43 10.5t-31 19.5t-23.5 32.5t-7 48.5z" />
    <glyph glyph-name="Wgrave" unicode="&#x1e80;" horiz-adv-x="1260" 
d="M460 890h170l100 -160h-110zM20 660h175l165 -495l155 465h230l155 -465l165 495h175l-220 -660h-220l-170 510l-170 -510h-220z" />
    <glyph glyph-name="wgrave" unicode="&#x1e81;" horiz-adv-x="960" 
d="M310 710h170l100 -160h-110zM20 480h160l110 -330l100 300h180l100 -300l110 330h160l-160 -480h-195l-105 315l-105 -315h-195z" />
    <glyph glyph-name="Wacute" unicode="&#x1e82;" horiz-adv-x="1260" 
d="M530 730l100 160h170l-160 -160h-110zM20 660h175l165 -495l155 465h230l155 -465l165 495h175l-220 -660h-220l-170 510l-170 -510h-220z" />
    <glyph glyph-name="wacute" unicode="&#x1e83;" horiz-adv-x="960" 
d="M380 550l100 160h170l-160 -160h-110zM20 480h160l110 -330l100 300h180l100 -300l110 330h160l-160 -480h-195l-105 315l-105 -315h-195z" />
    <glyph glyph-name="Wdieresis" unicode="&#x1e84;" horiz-adv-x="1260" 
d="M440 755v110h135v-110h-135zM685 755v110h135v-110h-135zM20 660h175l165 -495l155 465h230l155 -465l165 495h175l-220 -660h-220l-170 510l-170 -510h-220z" />
    <glyph glyph-name="wdieresis" unicode="&#x1e85;" horiz-adv-x="960" 
d="M290 575v110h135v-110h-135zM535 575v110h135v-110h-135zM20 480h160l110 -330l100 300h180l100 -300l110 330h160l-160 -480h-195l-105 315l-105 -315h-195z" />
    <glyph glyph-name="Ygrave" unicode="&#x1ef2;" horiz-adv-x="910" 
d="M285 890h170l100 -160h-110zM20 660h210l225 -225l225 225h210l-350 -350v-310h-170v310z" />
    <glyph glyph-name="ygrave" unicode="&#x1ef3;" horiz-adv-x="720" 
d="M190 710h170l100 -160h-110zM20 480h170l170 -340l170 340h170l-300 -600q-19 -37 -32 -55.5t-43 -34t-75 -15.5h-170v95h100q32 0 42.5 7.5t22.5 32.5l30 60z" />
    <glyph glyph-name="figuredash" unicode="&#x2012;" horiz-adv-x="910" 
d="M210 180v120h490v-120h-490z" />
    <glyph glyph-name="endash" unicode="&#x2013;" horiz-adv-x="500" 
d="M20 180v120h460v-120h-460z" />
    <glyph glyph-name="emdash" unicode="&#x2014;" horiz-adv-x="1000" 
d="M20 180v120h960v-120h-960z" />
    <glyph glyph-name="afii00208" unicode="&#x2015;" horiz-adv-x="1000" 
d="M20 180v120h960v-120h-960z" />
    <glyph glyph-name="quoteleft" unicode="&#x2018;" horiz-adv-x="350" 
d="M75 410l100 250h100l-50 -250h-150z" />
    <glyph glyph-name="quoteright" unicode="&#x2019;" horiz-adv-x="350" 
d="M75 410l50 250h150l-100 -250h-100z" />
    <glyph glyph-name="quotesinglbase" unicode="&#x201a;" horiz-adv-x="350" 
d="M75 -130l50 250h150l-100 -250h-100z" />
    <glyph glyph-name="quotereversed" unicode="&#x201b;" horiz-adv-x="350" 
d="M75 660h150l50 -250h-100z" />
    <glyph glyph-name="quotedblleft" unicode="&#x201c;" horiz-adv-x="600" 
d="M325 410l100 250h100l-50 -250h-150zM75 410l100 250h100l-50 -250h-150z" />
    <glyph glyph-name="quotedblright" unicode="&#x201d;" horiz-adv-x="600" 
d="M325 410l50 250h150l-100 -250h-100zM75 410l50 250h150l-100 -250h-100z" />
    <glyph glyph-name="quotedblbase" unicode="&#x201e;" horiz-adv-x="600" 
d="M325 -130l50 250h150l-100 -250h-100zM75 -130l50 250h150l-100 -250h-100z" />
    <glyph glyph-name="uni201F" unicode="&#x201f;" horiz-adv-x="600" 
d="M325 660h150l50 -250h-100zM75 660h150l50 -250h-100z" />
    <glyph glyph-name="dagger" unicode="&#x2020;" horiz-adv-x="680" 
d="M60 395v95h200v170h160v-170h200v-95h-200v-500h-160v500h-200z" />
    <glyph glyph-name="daggerdbl" unicode="&#x2021;" horiz-adv-x="680" 
d="M60 65v95h200v235h-200v95h200v170h160v-170h200v-95h-200v-235h200v-95h-200v-170h-160v170h-200z" />
    <glyph glyph-name="bullet" unicode="&#x2022;" horiz-adv-x="430" 
d="M75 340q0 58 41 99t99 41t99 -41t41 -99t-41 -99t-99 -41t-99 41t-41 99z" />
    <glyph glyph-name="ellipsis" unicode="&#x2026;" horiz-adv-x="960" 
d="M715 0v140h170v-140h-170zM395 0v140h170v-140h-170zM75 0v140h170v-140h-170z" />
    <glyph glyph-name="perthousand" unicode="&#x2030;" horiz-adv-x="1730" 
d="M730 90v160q0 26 10 44t22.5 27t37.5 13.5t41.5 5t48.5 0.5h120q32 0 48.5 -0.5t41.5 -5t37.5 -13.5t22.5 -27t10 -44v-160q0 -26 -10 -44t-22.5 -27t-37.5 -13.5t-41.5 -5t-48.5 -0.5h-120q-32 0 -48.5 0.5t-41.5 5t-37.5 13.5t-22.5 27t-10 44zM860 95q0 -17 10 -21
t30 -4h100q13 0 20 1t13.5 6.5t6.5 17.5v150q0 17 -10 21t-30 4h-100q-13 0 -20 -1t-13.5 -6.5t-6.5 -17.5v-150zM1230 90v160q0 26 10 44t22.5 27t37.5 13.5t41.5 5t48.5 0.5h120q32 0 48.5 -0.5t41.5 -5t37.5 -13.5t22.5 -27t10 -44v-160q0 -26 -10 -44t-22.5 -27
t-37.5 -13.5t-41.5 -5t-48.5 -0.5h-120q-32 0 -48.5 0.5t-41.5 5t-37.5 13.5t-22.5 27t-10 44zM1360 95q0 -17 10 -21t30 -4h100q13 0 20 1t13.5 6.5t6.5 17.5v150q0 17 -10 21t-30 4h-100q-13 0 -20 -1t-13.5 -6.5t-6.5 -17.5v-150zM60 410v160q0 26 10 44t22.5 27
t37.5 13.5t41.5 5t48.5 0.5h120q32 0 48.5 -0.5t41.5 -5t37.5 -13.5t22.5 -27t10 -44v-160q0 -26 -10 -44t-22.5 -27t-37.5 -13.5t-41.5 -5t-48.5 -0.5h-120q-32 0 -48.5 0.5t-41.5 5t-37.5 13.5t-22.5 27t-10 44zM190 415q0 -17 10 -21t30 -4h100q13 0 20 1t13.5 6.5
t6.5 17.5v150q0 17 -10 21t-30 4h-100q-13 0 -20 -1t-13.5 -6.5t-6.5 -17.5v-150zM380 0l330 660h140l-330 -660h-140z" />
    <glyph glyph-name="minute" unicode="&#x2032;" horiz-adv-x="350" 
d="M75 410l50 250h150l-100 -250h-100z" />
    <glyph glyph-name="second" unicode="&#x2033;" horiz-adv-x="600" 
d="M325 410l50 250h150l-100 -250h-100zM75 410l50 250h150l-100 -250h-100z" />
    <glyph glyph-name="guilsinglleft" unicode="&#x2039;" horiz-adv-x="470" 
d="M60 240l200 200h150l-180 -200l180 -200h-150z" />
    <glyph glyph-name="guilsinglright" unicode="&#x203a;" horiz-adv-x="470" 
d="M60 40l180 200l-180 200h150l200 -200l-200 -200h-150z" />
    <glyph glyph-name="uni203D" unicode="&#x203d;" horiz-adv-x="910" 
d="M75 555v105h520h40.5t38 -1.5t37.5 -3.5t33 -6.5t31 -11.5t24 -17t20 -23.5t11.5 -31.5t4.5 -40v-85q0 -22 -4.5 -40t-11.5 -31.5t-20 -23.5t-24 -17t-31 -11.5t-33 -6.5t-37.5 -3.5t-38 -1.5h-40.5h-80q-20 0 -30 -1t-20 -9.5t-10 -24.5v-50h-170v335h-210zM285 0v140
h170v-140h-170zM455 415h150q20 0 30 1t20 9.5t10 24.5v70q0 16 -10 24.5t-20 9.5t-30 1h-150v-140z" />
    <glyph glyph-name="uni203E" unicode="&#x203e;" horiz-adv-x="680" 
d="M20 820h640v-95h-640v95z" />
    <glyph glyph-name="fraction" unicode="&#x2044;" horiz-adv-x="110" 
d="M-180 0l330 660h140l-330 -660h-140z" />
    <glyph glyph-name="uni2070" unicode="&#x2070;" horiz-adv-x="560" 
d="M60 410v160q0 26 10 44t22.5 27t37.5 13.5t41.5 5t48.5 0.5h120q32 0 48.5 -0.5t41.5 -5t37.5 -13.5t22.5 -27t10 -44v-160q0 -26 -10 -44t-22.5 -27t-37.5 -13.5t-41.5 -5t-48.5 -0.5h-120q-32 0 -48.5 0.5t-41.5 5t-37.5 13.5t-22.5 27t-10 44zM190 415q0 -17 10 -21
t30 -4h100q13 0 20 1t13.5 6.5t6.5 17.5v150q0 17 -10 21t-30 4h-100q-13 0 -20 -1t-13.5 -6.5t-6.5 -17.5v-150z" />
    <glyph glyph-name="uni2074" unicode="&#x2074;" horiz-adv-x="560" 
d="M60 380v70l270 210h170v-340h-130v60h-310zM199 450h171v133z" />
    <glyph glyph-name="uni2075" unicode="&#x2075;" horiz-adv-x="560" 
d="M60 320v70h270q13 0 20 1t13.5 6.5t6.5 17.5v25q0 17 -10 21t-30 4h-270v195h420v-70h-290v-55h150q32 0 48.5 -0.5t41.5 -5t37.5 -13.5t22.5 -27t10 -44v-35q0 -26 -10 -44t-22.5 -27t-37.5 -13.5t-41.5 -5t-48.5 -0.5h-280z" />
    </font>
</defs>
</svg>
